<svg xmlns="http://www.w3.org/2000/svg" xmlns:xlink="http://www.w3.org/1999/xlink" width="400" zoomAndPan="magnify" viewBox="0 0 300 299.999988" height="400" preserveAspectRatio="xMidYMid meet" version="1.0"><defs><filter x="0%" y="0%" width="100%" height="100%" id="902299e676"><feColorMatrix values="0 0 0 0 1 0 0 0 0 1 0 0 0 0 1 0 0 0 1 0" color-interpolation-filters="sRGB"/></filter><g/><clipPath id="3c6e16c4e6"><path d="M 65 25 L 235 25 L 235 166 L 65 166 Z M 65 25 " clip-rule="nonzero"/></clipPath><clipPath id="ee03bc7a80"><path d="M 234.363281 43.832031 C 234.363281 43.742188 234.390625 43.65625 234.386719 43.519531 C 234.238281 38.292969 231.722656 33.203125 227.820312 29.746094 C 223.535156 25.957031 218.277344 24.945312 212.734375 25.871094 C 212.679688 25.882812 212.625 25.894531 212.5625 25.90625 C 204.265625 27.339844 193.957031 32.390625 184.269531 32.425781 C 173.832031 32.457031 163.449219 30.558594 153.128906 26.734375 C 151.089844 25.980469 148.859375 25.980469 146.824219 26.734375 C 136.503906 30.558594 126.121094 32.457031 115.683594 32.421875 C 105.996094 32.386719 95.6875 27.335938 87.386719 25.902344 C 87.339844 25.882812 87.28125 25.875 87.222656 25.863281 C 76.226562 24.019531 65.570312 32.125 65.570312 43.5625 C 65.570312 43.652344 65.59375 43.730469 65.59375 43.816406 C 65.738281 53.109375 72.453125 64.574219 72.492188 72.753906 C 72.519531 78.625 69.160156 87.410156 67.113281 92.21875 C 66.167969 94.429688 66.167969 96.890625 67.105469 99.105469 C 69.15625 103.921875 72.519531 112.738281 72.492188 118.621094 C 72.453125 126.871094 65.640625 138.394531 65.570312 147.914062 C 65.507812 156.128906 71.46875 163.503906 79.457031 165.332031 C 80.617188 165.597656 81.792969 165.6875 82.972656 165.816406 C 84.371094 165.964844 85.828125 165.820312 87.21875 165.589844 C 87.277344 165.578125 87.328125 165.566406 87.390625 165.554688 C 95.691406 164.121094 105.996094 159.070312 115.6875 159.035156 C 126.121094 159.003906 136.503906 160.902344 146.824219 164.726562 C 148.863281 165.480469 151.09375 165.480469 153.128906 164.726562 C 163.449219 160.902344 173.832031 159.003906 184.273438 159.039062 C 193.957031 159.074219 204.265625 164.125 212.566406 165.558594 C 212.625 165.570312 212.679688 165.582031 212.742188 165.59375 C 223.832031 167.449219 234.390625 159.175781 234.371094 147.785156 C 234.308594 138.394531 227.496094 126.871094 227.460938 118.621094 C 227.433594 112.875 230.636719 104.332031 232.691406 99.445312 C 233.691406 97.074219 233.632812 94.378906 232.464844 92.085938 C 229.097656 85.460938 227.429688 79.941406 227.464844 72.761719 C 227.507812 64.582031 234.210938 53.117188 234.363281 43.832031 Z M 234.363281 43.832031 " clip-rule="nonzero"/></clipPath><linearGradient x1="41.580999" gradientTransform="matrix(4.442618, 0, 0, 4.435232, 43.357022, -10.73316)" y1="6.417001" x2="6.404999" gradientUnits="userSpaceOnUse" y2="41.593003" id="8071216a30"><stop stop-opacity="1" stop-color="rgb(99.609375%, 64.309692%, 37.649536%)" offset="0"/><stop stop-opacity="1" stop-color="rgb(99.609375%, 64.309692%, 37.649536%)" offset="0.03125"/><stop stop-opacity="1" stop-color="rgb(99.609375%, 64.309692%, 37.649536%)" offset="0.0390625"/><stop stop-opacity="1" stop-color="rgb(99.609375%, 64.607239%, 38.143921%)" offset="0.0429688"/><stop stop-opacity="1" stop-color="rgb(99.609375%, 64.904785%, 38.638306%)" offset="0.046875"/><stop stop-opacity="1" stop-color="rgb(99.609375%, 65.206909%, 39.141846%)" offset="0.0507813"/><stop stop-opacity="1" stop-color="rgb(99.609375%, 65.510559%, 39.645386%)" offset="0.0546875"/><stop stop-opacity="1" stop-color="rgb(99.609375%, 65.814209%, 40.148926%)" offset="0.0585938"/><stop stop-opacity="1" stop-color="rgb(99.609375%, 66.117859%, 40.652466%)" offset="0.0625"/><stop stop-opacity="1" stop-color="rgb(99.609375%, 66.416931%, 41.151428%)" offset="0.0664063"/><stop stop-opacity="1" stop-color="rgb(99.609375%, 66.716003%, 41.650391%)" offset="0.0703125"/><stop stop-opacity="1" stop-color="rgb(99.609375%, 66.978455%, 42.106628%)" offset="0.0742188"/><stop stop-opacity="1" stop-color="rgb(99.609375%, 67.242432%, 42.562866%)" offset="0.078125"/><stop stop-opacity="1" stop-color="rgb(99.609375%, 67.506409%, 43.019104%)" offset="0.0820313"/><stop stop-opacity="1" stop-color="rgb(99.609375%, 67.770386%, 43.475342%)" offset="0.0859375"/><stop stop-opacity="1" stop-color="rgb(99.609375%, 68.032837%, 43.93158%)" offset="0.0898438"/><stop stop-opacity="1" stop-color="rgb(99.609375%, 68.296814%, 44.387817%)" offset="0.09375"/><stop stop-opacity="1" stop-color="rgb(99.609375%, 68.559265%, 44.844055%)" offset="0.0976562"/><stop stop-opacity="1" stop-color="rgb(99.609375%, 68.823242%, 45.300293%)" offset="0.101563"/><stop stop-opacity="1" stop-color="rgb(99.609375%, 69.085693%, 45.756531%)" offset="0.105469"/><stop stop-opacity="1" stop-color="rgb(99.609375%, 69.34967%, 46.212769%)" offset="0.109375"/><stop stop-opacity="1" stop-color="rgb(99.609375%, 69.613647%, 46.669006%)" offset="0.113281"/><stop stop-opacity="1" stop-color="rgb(99.609375%, 69.877625%, 47.125244%)" offset="0.117188"/><stop stop-opacity="1" stop-color="rgb(99.609375%, 70.140076%, 47.581482%)" offset="0.121094"/><stop stop-opacity="1" stop-color="rgb(99.609375%, 70.404053%, 48.03772%)" offset="0.125"/><stop stop-opacity="1" stop-color="rgb(99.609375%, 70.666504%, 48.493958%)" offset="0.128906"/><stop stop-opacity="1" stop-color="rgb(99.609375%, 70.930481%, 48.950195%)" offset="0.132813"/><stop stop-opacity="1" stop-color="rgb(99.609375%, 71.192932%, 49.406433%)" offset="0.136719"/><stop stop-opacity="1" stop-color="rgb(99.609375%, 71.456909%, 49.862671%)" offset="0.140625"/><stop stop-opacity="1" stop-color="rgb(99.609375%, 71.71936%, 50.318909%)" offset="0.144531"/><stop stop-opacity="1" stop-color="rgb(99.609375%, 71.983337%, 50.775146%)" offset="0.148438"/><stop stop-opacity="1" stop-color="rgb(99.609375%, 72.247314%, 51.231384%)" offset="0.152344"/><stop stop-opacity="1" stop-color="rgb(99.609375%, 72.511292%, 51.687622%)" offset="0.15625"/><stop stop-opacity="1" stop-color="rgb(99.609375%, 72.773743%, 52.14386%)" offset="0.160156"/><stop stop-opacity="1" stop-color="rgb(99.609375%, 73.03772%, 52.600098%)" offset="0.164063"/><stop stop-opacity="1" stop-color="rgb(99.609375%, 73.300171%, 53.056335%)" offset="0.167969"/><stop stop-opacity="1" stop-color="rgb(99.609375%, 73.564148%, 53.512573%)" offset="0.171875"/><stop stop-opacity="1" stop-color="rgb(99.609375%, 73.826599%, 53.967285%)" offset="0.175781"/><stop stop-opacity="1" stop-color="rgb(99.609375%, 74.090576%, 54.423523%)" offset="0.179688"/><stop stop-opacity="1" stop-color="rgb(99.609375%, 74.353027%, 54.879761%)" offset="0.183594"/><stop stop-opacity="1" stop-color="rgb(99.609375%, 74.617004%, 55.335999%)" offset="0.1875"/><stop stop-opacity="1" stop-color="rgb(99.609375%, 74.880981%, 55.792236%)" offset="0.191406"/><stop stop-opacity="1" stop-color="rgb(99.609375%, 75.144958%, 56.248474%)" offset="0.195313"/><stop stop-opacity="1" stop-color="rgb(99.609375%, 75.40741%, 56.704712%)" offset="0.199219"/><stop stop-opacity="1" stop-color="rgb(99.609375%, 75.671387%, 57.16095%)" offset="0.203125"/><stop stop-opacity="1" stop-color="rgb(99.609375%, 75.933838%, 57.617188%)" offset="0.207031"/><stop stop-opacity="1" stop-color="rgb(99.609375%, 76.197815%, 58.073425%)" offset="0.210938"/><stop stop-opacity="1" stop-color="rgb(99.609375%, 76.460266%, 58.529663%)" offset="0.214844"/><stop stop-opacity="1" stop-color="rgb(99.609375%, 76.724243%, 58.985901%)" offset="0.21875"/><stop stop-opacity="1" stop-color="rgb(99.617004%, 76.948547%, 59.387207%)" offset="0.222656"/><stop stop-opacity="1" stop-color="rgb(99.624634%, 77.174377%, 59.788513%)" offset="0.226563"/><stop stop-opacity="1" stop-color="rgb(99.633789%, 77.386475%, 60.171509%)" offset="0.230469"/><stop stop-opacity="1" stop-color="rgb(99.64447%, 77.598572%, 60.554504%)" offset="0.234375"/><stop stop-opacity="1" stop-color="rgb(99.653625%, 77.809143%, 60.9375%)" offset="0.238281"/><stop stop-opacity="1" stop-color="rgb(99.664307%, 78.02124%, 61.320496%)" offset="0.242188"/><stop stop-opacity="1" stop-color="rgb(99.673462%, 78.231812%, 61.703491%)" offset="0.246094"/><stop stop-opacity="1" stop-color="rgb(99.684143%, 78.443909%, 62.086487%)" offset="0.25"/><stop stop-opacity="1" stop-color="rgb(99.693298%, 78.656006%, 62.467957%)" offset="0.253906"/><stop stop-opacity="1" stop-color="rgb(99.703979%, 78.868103%, 62.850952%)" offset="0.257813"/><stop stop-opacity="1" stop-color="rgb(99.713135%, 79.078674%, 63.233948%)" offset="0.261719"/><stop stop-opacity="1" stop-color="rgb(99.723816%, 79.290771%, 63.616943%)" offset="0.265625"/><stop stop-opacity="1" stop-color="rgb(99.732971%, 79.502869%, 63.999939%)" offset="0.269531"/><stop stop-opacity="1" stop-color="rgb(99.743652%, 79.714966%, 64.382935%)" offset="0.273438"/><stop stop-opacity="1" stop-color="rgb(99.754333%, 79.925537%, 64.764404%)" offset="0.277344"/><stop stop-opacity="1" stop-color="rgb(99.765015%, 80.137634%, 65.1474%)" offset="0.28125"/><stop stop-opacity="1" stop-color="rgb(99.77417%, 80.349731%, 65.530396%)" offset="0.285156"/><stop stop-opacity="1" stop-color="rgb(99.784851%, 80.561829%, 65.913391%)" offset="0.289062"/><stop stop-opacity="1" stop-color="rgb(99.794006%, 80.7724%, 66.296387%)" offset="0.292969"/><stop stop-opacity="1" stop-color="rgb(99.804688%, 80.984497%, 66.679382%)" offset="0.296875"/><stop stop-opacity="1" stop-color="rgb(99.813843%, 81.196594%, 67.062378%)" offset="0.300781"/><stop stop-opacity="1" stop-color="rgb(99.824524%, 81.408691%, 67.445374%)" offset="0.304688"/><stop stop-opacity="1" stop-color="rgb(99.833679%, 81.619263%, 67.826843%)" offset="0.308594"/><stop stop-opacity="1" stop-color="rgb(99.84436%, 81.83136%, 68.209839%)" offset="0.3125"/><stop stop-opacity="1" stop-color="rgb(99.853516%, 82.043457%, 68.592834%)" offset="0.316406"/><stop stop-opacity="1" stop-color="rgb(99.864197%, 82.255554%, 68.97583%)" offset="0.320313"/><stop stop-opacity="1" stop-color="rgb(99.873352%, 82.466125%, 69.358826%)" offset="0.324219"/><stop stop-opacity="1" stop-color="rgb(99.884033%, 82.678223%, 69.741821%)" offset="0.328125"/><stop stop-opacity="1" stop-color="rgb(99.894714%, 82.888794%, 70.124817%)" offset="0.332031"/><stop stop-opacity="1" stop-color="rgb(99.905396%, 83.100891%, 70.507812%)" offset="0.335938"/><stop stop-opacity="1" stop-color="rgb(99.914551%, 83.312988%, 70.889282%)" offset="0.339844"/><stop stop-opacity="1" stop-color="rgb(99.925232%, 83.525085%, 71.272278%)" offset="0.34375"/><stop stop-opacity="1" stop-color="rgb(99.934387%, 83.735657%, 71.655273%)" offset="0.347656"/><stop stop-opacity="1" stop-color="rgb(99.945068%, 83.947754%, 72.038269%)" offset="0.351563"/><stop stop-opacity="1" stop-color="rgb(99.954224%, 84.159851%, 72.421265%)" offset="0.355469"/><stop stop-opacity="1" stop-color="rgb(99.964905%, 84.371948%, 72.80426%)" offset="0.359375"/><stop stop-opacity="1" stop-color="rgb(99.97406%, 84.58252%, 73.18573%)" offset="0.363281"/><stop stop-opacity="1" stop-color="rgb(99.984741%, 84.794617%, 73.568726%)" offset="0.367188"/><stop stop-opacity="1" stop-color="rgb(99.992371%, 84.996033%, 73.927307%)" offset="0.371094"/><stop stop-opacity="1" stop-color="rgb(100%, 85.197449%, 74.285889%)" offset="0.375"/><stop stop-opacity="1" stop-color="rgb(100%, 85.369873%, 74.580383%)" offset="0.378906"/><stop stop-opacity="1" stop-color="rgb(100%, 85.543823%, 74.876404%)" offset="0.382813"/><stop stop-opacity="1" stop-color="rgb(100%, 85.716248%, 75.172424%)" offset="0.386719"/><stop stop-opacity="1" stop-color="rgb(100%, 85.890198%, 75.468445%)" offset="0.390625"/><stop stop-opacity="1" stop-color="rgb(100%, 86.062622%, 75.764465%)" offset="0.394531"/><stop stop-opacity="1" stop-color="rgb(100%, 86.236572%, 76.060486%)" offset="0.398438"/><stop stop-opacity="1" stop-color="rgb(100%, 86.408997%, 76.35498%)" offset="0.402344"/><stop stop-opacity="1" stop-color="rgb(100%, 86.582947%, 76.651001%)" offset="0.40625"/><stop stop-opacity="1" stop-color="rgb(100%, 86.755371%, 76.947021%)" offset="0.410156"/><stop stop-opacity="1" stop-color="rgb(100%, 86.929321%, 77.243042%)" offset="0.414063"/><stop stop-opacity="1" stop-color="rgb(100%, 87.101746%, 77.537537%)" offset="0.417969"/><stop stop-opacity="1" stop-color="rgb(100%, 87.275696%, 77.833557%)" offset="0.421875"/><stop stop-opacity="1" stop-color="rgb(100%, 87.44812%, 78.129578%)" offset="0.425781"/><stop stop-opacity="1" stop-color="rgb(100%, 87.62207%, 78.425598%)" offset="0.429688"/><stop stop-opacity="1" stop-color="rgb(100%, 87.794495%, 78.720093%)" offset="0.433594"/><stop stop-opacity="1" stop-color="rgb(100%, 87.968445%, 79.016113%)" offset="0.4375"/><stop stop-opacity="1" stop-color="rgb(100%, 88.140869%, 79.312134%)" offset="0.441406"/><stop stop-opacity="1" stop-color="rgb(100%, 88.314819%, 79.608154%)" offset="0.445313"/><stop stop-opacity="1" stop-color="rgb(100%, 88.487244%, 79.902649%)" offset="0.449219"/><stop stop-opacity="1" stop-color="rgb(100%, 88.661194%, 80.198669%)" offset="0.453125"/><stop stop-opacity="1" stop-color="rgb(100%, 88.833618%, 80.49469%)" offset="0.457031"/><stop stop-opacity="1" stop-color="rgb(100%, 89.007568%, 80.79071%)" offset="0.460938"/><stop stop-opacity="1" stop-color="rgb(100%, 89.179993%, 81.086731%)" offset="0.464844"/><stop stop-opacity="1" stop-color="rgb(100%, 89.353943%, 81.382751%)" offset="0.46875"/><stop stop-opacity="1" stop-color="rgb(100%, 89.526367%, 81.677246%)" offset="0.472656"/><stop stop-opacity="1" stop-color="rgb(100%, 89.700317%, 81.973267%)" offset="0.476563"/><stop stop-opacity="1" stop-color="rgb(100%, 89.872742%, 82.269287%)" offset="0.480469"/><stop stop-opacity="1" stop-color="rgb(100%, 90.046692%, 82.565308%)" offset="0.484375"/><stop stop-opacity="1" stop-color="rgb(100%, 90.219116%, 82.859802%)" offset="0.488281"/><stop stop-opacity="1" stop-color="rgb(100%, 90.393066%, 83.155823%)" offset="0.492188"/><stop stop-opacity="1" stop-color="rgb(100%, 90.565491%, 83.451843%)" offset="0.496094"/><stop stop-opacity="1" stop-color="rgb(100%, 90.739441%, 83.747864%)" offset="0.5"/><stop stop-opacity="1" stop-color="rgb(100%, 90.911865%, 84.042358%)" offset="0.503906"/><stop stop-opacity="1" stop-color="rgb(100%, 91.085815%, 84.338379%)" offset="0.507813"/><stop stop-opacity="1" stop-color="rgb(100%, 91.25824%, 84.634399%)" offset="0.511719"/><stop stop-opacity="1" stop-color="rgb(100%, 91.43219%, 84.93042%)" offset="0.515625"/><stop stop-opacity="1" stop-color="rgb(100%, 91.601562%, 85.220337%)" offset="0.519531"/><stop stop-opacity="1" stop-color="rgb(100%, 91.770935%, 85.51178%)" offset="0.523438"/><stop stop-opacity="1" stop-color="rgb(100%, 91.88385%, 85.716248%)" offset="0.527344"/><stop stop-opacity="1" stop-color="rgb(100%, 91.998291%, 85.922241%)" offset="0.53125"/><stop stop-opacity="1" stop-color="rgb(100%, 92.111206%, 86.126709%)" offset="0.535156"/><stop stop-opacity="1" stop-color="rgb(100%, 92.224121%, 86.332703%)" offset="0.539063"/><stop stop-opacity="1" stop-color="rgb(100%, 92.337036%, 86.53717%)" offset="0.542969"/><stop stop-opacity="1" stop-color="rgb(100%, 92.449951%, 86.743164%)" offset="0.546875"/><stop stop-opacity="1" stop-color="rgb(100%, 92.562866%, 86.947632%)" offset="0.550781"/><stop stop-opacity="1" stop-color="rgb(100%, 92.675781%, 87.1521%)" offset="0.554688"/><stop stop-opacity="1" stop-color="rgb(100%, 92.788696%, 87.356567%)" offset="0.558594"/><stop stop-opacity="1" stop-color="rgb(100%, 92.901611%, 87.562561%)" offset="0.5625"/><stop stop-opacity="1" stop-color="rgb(100%, 93.014526%, 87.767029%)" offset="0.566406"/><stop stop-opacity="1" stop-color="rgb(100%, 93.127441%, 87.973022%)" offset="0.570313"/><stop stop-opacity="1" stop-color="rgb(100%, 93.240356%, 88.17749%)" offset="0.574219"/><stop stop-opacity="1" stop-color="rgb(100%, 93.354797%, 88.383484%)" offset="0.578125"/><stop stop-opacity="1" stop-color="rgb(100%, 93.467712%, 88.587952%)" offset="0.582031"/><stop stop-opacity="1" stop-color="rgb(100%, 93.580627%, 88.793945%)" offset="0.585938"/><stop stop-opacity="1" stop-color="rgb(100%, 93.693542%, 88.998413%)" offset="0.589844"/><stop stop-opacity="1" stop-color="rgb(100%, 93.806458%, 89.204407%)" offset="0.59375"/><stop stop-opacity="1" stop-color="rgb(100%, 93.919373%, 89.408875%)" offset="0.597656"/><stop stop-opacity="1" stop-color="rgb(100%, 94.032288%, 89.614868%)" offset="0.601563"/><stop stop-opacity="1" stop-color="rgb(100%, 94.145203%, 89.819336%)" offset="0.605469"/><stop stop-opacity="1" stop-color="rgb(100%, 94.258118%, 90.02533%)" offset="0.609375"/><stop stop-opacity="1" stop-color="rgb(100%, 94.371033%, 90.229797%)" offset="0.613281"/><stop stop-opacity="1" stop-color="rgb(100%, 94.483948%, 90.434265%)" offset="0.617188"/><stop stop-opacity="1" stop-color="rgb(100%, 94.596863%, 90.638733%)" offset="0.621094"/><stop stop-opacity="1" stop-color="rgb(100%, 94.709778%, 90.844727%)" offset="0.625"/><stop stop-opacity="1" stop-color="rgb(100%, 94.822693%, 91.049194%)" offset="0.628906"/><stop stop-opacity="1" stop-color="rgb(100%, 94.937134%, 91.255188%)" offset="0.632812"/><stop stop-opacity="1" stop-color="rgb(100%, 95.050049%, 91.459656%)" offset="0.636719"/><stop stop-opacity="1" stop-color="rgb(100%, 95.162964%, 91.665649%)" offset="0.640625"/><stop stop-opacity="1" stop-color="rgb(100%, 95.275879%, 91.870117%)" offset="0.644531"/><stop stop-opacity="1" stop-color="rgb(100%, 95.388794%, 92.076111%)" offset="0.648438"/><stop stop-opacity="1" stop-color="rgb(100%, 95.501709%, 92.280579%)" offset="0.652344"/><stop stop-opacity="1" stop-color="rgb(100%, 95.614624%, 92.486572%)" offset="0.65625"/><stop stop-opacity="1" stop-color="rgb(100%, 95.727539%, 92.69104%)" offset="0.660156"/><stop stop-opacity="1" stop-color="rgb(100%, 95.840454%, 92.897034%)" offset="0.664063"/><stop stop-opacity="1" stop-color="rgb(100%, 95.953369%, 93.101501%)" offset="0.667969"/><stop stop-opacity="1" stop-color="rgb(100%, 96.066284%, 93.307495%)" offset="0.671875"/><stop stop-opacity="1" stop-color="rgb(100%, 96.151733%, 93.44635%)" offset="0.679688"/><stop stop-opacity="1" stop-color="rgb(100%, 96.321106%, 93.722534%)" offset="0.6875"/><stop stop-opacity="1" stop-color="rgb(100%, 96.488953%, 93.994141%)" offset="0.695312"/><stop stop-opacity="1" stop-color="rgb(100%, 96.655273%, 94.265747%)" offset="0.703125"/><stop stop-opacity="1" stop-color="rgb(100%, 96.82312%, 94.537354%)" offset="0.710938"/><stop stop-opacity="1" stop-color="rgb(100%, 96.990967%, 94.810486%)" offset="0.71875"/><stop stop-opacity="1" stop-color="rgb(100%, 97.158813%, 95.082092%)" offset="0.726562"/><stop stop-opacity="1" stop-color="rgb(100%, 97.325134%, 95.353699%)" offset="0.734375"/><stop stop-opacity="1" stop-color="rgb(100%, 97.492981%, 95.625305%)" offset="0.742188"/><stop stop-opacity="1" stop-color="rgb(100%, 97.660828%, 95.896912%)" offset="0.75"/><stop stop-opacity="1" stop-color="rgb(100%, 97.827148%, 96.170044%)" offset="0.757813"/><stop stop-opacity="1" stop-color="rgb(100%, 97.994995%, 96.44165%)" offset="0.765625"/><stop stop-opacity="1" stop-color="rgb(100%, 98.162842%, 96.713257%)" offset="0.773438"/><stop stop-opacity="1" stop-color="rgb(100%, 98.330688%, 96.984863%)" offset="0.78125"/><stop stop-opacity="1" stop-color="rgb(100%, 98.497009%, 97.257996%)" offset="0.789063"/><stop stop-opacity="1" stop-color="rgb(100%, 98.664856%, 97.529602%)" offset="0.796875"/><stop stop-opacity="1" stop-color="rgb(100%, 98.832703%, 97.801208%)" offset="0.804688"/><stop stop-opacity="1" stop-color="rgb(100%, 99.000549%, 98.072815%)" offset="0.8125"/><stop stop-opacity="1" stop-color="rgb(100%, 99.177551%, 98.370361%)" offset="0.828125"/><stop stop-opacity="1" stop-color="rgb(100%, 99.313354%, 98.617554%)" offset="0.84375"/><stop stop-opacity="1" stop-color="rgb(100%, 99.441528%, 98.876953%)" offset="0.875"/><stop stop-opacity="1" stop-color="rgb(100%, 99.613953%, 99.223328%)" offset="0.90625"/><stop stop-opacity="1" stop-color="rgb(100%, 99.784851%, 99.568176%)" offset="0.9375"/><stop stop-opacity="1" stop-color="rgb(100%, 99.935913%, 99.8703%)" offset="1"/></linearGradient><clipPath id="632f73c290"><path d="M 146 21.074219 L 241.125 21.074219 L 241.125 174.824219 L 146 174.824219 Z M 146 21.074219 " clip-rule="nonzero"/></clipPath><clipPath id="52d19624d8"><path d="M 58.875 21.074219 L 154 21.074219 L 154 174.824219 L 58.875 174.824219 Z M 58.875 21.074219 " clip-rule="nonzero"/></clipPath><clipPath id="33b38a8eb2"><path d="M 58.875 21.074219 L 241.125 21.074219 L 241.125 174.824219 L 58.875 174.824219 Z M 58.875 21.074219 " clip-rule="nonzero"/></clipPath><clipPath id="756bbb97ab"><path d="M 0 0.199219 L 300 0.199219 L 300 142 L 0 142 Z M 0 0.199219 " clip-rule="nonzero"/></clipPath><clipPath id="0002372acc"><path d="M 0 0.277344 L 300 0.277344 L 300 141.410156 L 0 141.410156 Z M 0 0.277344 " clip-rule="nonzero"/></clipPath><clipPath id="6e630db8bc"><path d="M 0 0.277344 L 300 0.277344 L 300 141.410156 L 0 141.410156 Z M 0 0.277344 " clip-rule="nonzero"/></clipPath><clipPath id="38513bba30"><path d="M 9.480469 0.277344 L 300 0.277344 L 300 141.410156 L 9.480469 141.410156 Z M 9.480469 0.277344 " clip-rule="nonzero"/></clipPath><linearGradient x1="18.547001" gradientTransform="matrix(0.143437, 0, 0, 0.143426, 6.818322, 57.64852)" y1="92" x2="2043.979175" gradientUnits="userSpaceOnUse" y2="92" id="9f5cc17328"><stop stop-opacity="1" stop-color="rgb(100%, 19.219971%, 19.219971%)" offset="0"/><stop stop-opacity="1" stop-color="rgb(100%, 19.219971%, 19.219971%)" offset="0.125"/><stop stop-opacity="1" stop-color="rgb(100%, 19.219971%, 19.219971%)" offset="0.1875"/><stop stop-opacity="1" stop-color="rgb(100%, 19.390869%, 19.268799%)" offset="0.203125"/><stop stop-opacity="1" stop-color="rgb(100%, 19.799805%, 19.387817%)" offset="0.207031"/><stop stop-opacity="1" stop-color="rgb(100%, 20.037842%, 19.458008%)" offset="0.210938"/><stop stop-opacity="1" stop-color="rgb(100%, 20.275879%, 19.526672%)" offset="0.214844"/><stop stop-opacity="1" stop-color="rgb(100%, 20.513916%, 19.596863%)" offset="0.21875"/><stop stop-opacity="1" stop-color="rgb(100%, 20.751953%, 19.665527%)" offset="0.222656"/><stop stop-opacity="1" stop-color="rgb(100%, 20.98999%, 19.735718%)" offset="0.226563"/><stop stop-opacity="1" stop-color="rgb(100%, 21.228027%, 19.804382%)" offset="0.230469"/><stop stop-opacity="1" stop-color="rgb(100%, 21.466064%, 19.874573%)" offset="0.234375"/><stop stop-opacity="1" stop-color="rgb(100%, 21.704102%, 19.943237%)" offset="0.238281"/><stop stop-opacity="1" stop-color="rgb(100%, 21.942139%, 20.013428%)" offset="0.242188"/><stop stop-opacity="1" stop-color="rgb(100%, 22.17865%, 20.082092%)" offset="0.246094"/><stop stop-opacity="1" stop-color="rgb(100%, 22.416687%, 20.152283%)" offset="0.25"/><stop stop-opacity="1" stop-color="rgb(100%, 22.654724%, 20.220947%)" offset="0.253906"/><stop stop-opacity="1" stop-color="rgb(100%, 22.892761%, 20.291138%)" offset="0.257812"/><stop stop-opacity="1" stop-color="rgb(100%, 23.130798%, 20.359802%)" offset="0.261719"/><stop stop-opacity="1" stop-color="rgb(100%, 23.368835%, 20.429993%)" offset="0.265625"/><stop stop-opacity="1" stop-color="rgb(100%, 23.606873%, 20.498657%)" offset="0.269531"/><stop stop-opacity="1" stop-color="rgb(100%, 23.84491%, 20.568848%)" offset="0.273438"/><stop stop-opacity="1" stop-color="rgb(100%, 24.082947%, 20.637512%)" offset="0.277344"/><stop stop-opacity="1" stop-color="rgb(100%, 24.320984%, 20.707703%)" offset="0.28125"/><stop stop-opacity="1" stop-color="rgb(100%, 24.557495%, 20.776367%)" offset="0.285156"/><stop stop-opacity="1" stop-color="rgb(100%, 24.795532%, 20.846558%)" offset="0.289062"/><stop stop-opacity="1" stop-color="rgb(100%, 25.033569%, 20.915222%)" offset="0.292969"/><stop stop-opacity="1" stop-color="rgb(100%, 25.271606%, 20.985413%)" offset="0.296875"/><stop stop-opacity="1" stop-color="rgb(100%, 25.509644%, 21.054077%)" offset="0.300781"/><stop stop-opacity="1" stop-color="rgb(100%, 25.747681%, 21.124268%)" offset="0.304688"/><stop stop-opacity="1" stop-color="rgb(100%, 25.985718%, 21.192932%)" offset="0.308594"/><stop stop-opacity="1" stop-color="rgb(100%, 26.223755%, 21.263123%)" offset="0.3125"/><stop stop-opacity="1" stop-color="rgb(100%, 26.461792%, 21.331787%)" offset="0.316406"/><stop stop-opacity="1" stop-color="rgb(100%, 26.699829%, 21.401978%)" offset="0.320313"/><stop stop-opacity="1" stop-color="rgb(100%, 26.93634%, 21.470642%)" offset="0.324219"/><stop stop-opacity="1" stop-color="rgb(100%, 27.174377%, 21.539307%)" offset="0.328125"/><stop stop-opacity="1" stop-color="rgb(100%, 27.412415%, 21.607971%)" offset="0.332031"/><stop stop-opacity="1" stop-color="rgb(100%, 27.650452%, 21.678162%)" offset="0.335938"/><stop stop-opacity="1" stop-color="rgb(100%, 27.888489%, 21.746826%)" offset="0.339844"/><stop stop-opacity="1" stop-color="rgb(100%, 28.126526%, 21.817017%)" offset="0.34375"/><stop stop-opacity="1" stop-color="rgb(100%, 28.364563%, 21.885681%)" offset="0.347656"/><stop stop-opacity="1" stop-color="rgb(100%, 28.6026%, 21.955872%)" offset="0.351562"/><stop stop-opacity="1" stop-color="rgb(100%, 28.840637%, 22.024536%)" offset="0.355469"/><stop stop-opacity="1" stop-color="rgb(100%, 29.078674%, 22.094727%)" offset="0.359375"/><stop stop-opacity="1" stop-color="rgb(100%, 29.315186%, 22.163391%)" offset="0.363281"/><stop stop-opacity="1" stop-color="rgb(100%, 29.553223%, 22.233582%)" offset="0.367188"/><stop stop-opacity="1" stop-color="rgb(100%, 29.79126%, 22.302246%)" offset="0.371094"/><stop stop-opacity="1" stop-color="rgb(100%, 30.029297%, 22.372437%)" offset="0.375"/><stop stop-opacity="1" stop-color="rgb(100%, 30.267334%, 22.441101%)" offset="0.378906"/><stop stop-opacity="1" stop-color="rgb(100%, 30.505371%, 22.511292%)" offset="0.382812"/><stop stop-opacity="1" stop-color="rgb(100%, 30.743408%, 22.579956%)" offset="0.386719"/><stop stop-opacity="1" stop-color="rgb(100%, 30.981445%, 22.650146%)" offset="0.390625"/><stop stop-opacity="1" stop-color="rgb(100%, 31.219482%, 22.718811%)" offset="0.394531"/><stop stop-opacity="1" stop-color="rgb(100%, 31.45752%, 22.789001%)" offset="0.398438"/><stop stop-opacity="1" stop-color="rgb(100%, 31.694031%, 22.857666%)" offset="0.402344"/><stop stop-opacity="1" stop-color="rgb(100%, 31.932068%, 22.927856%)" offset="0.40625"/><stop stop-opacity="1" stop-color="rgb(100%, 32.170105%, 22.996521%)" offset="0.410156"/><stop stop-opacity="1" stop-color="rgb(100%, 32.408142%, 23.066711%)" offset="0.414062"/><stop stop-opacity="1" stop-color="rgb(100%, 32.646179%, 23.135376%)" offset="0.417969"/><stop stop-opacity="1" stop-color="rgb(100%, 32.884216%, 23.205566%)" offset="0.421875"/><stop stop-opacity="1" stop-color="rgb(100%, 33.122253%, 23.274231%)" offset="0.425781"/><stop stop-opacity="1" stop-color="rgb(100%, 33.360291%, 23.344421%)" offset="0.429688"/><stop stop-opacity="1" stop-color="rgb(100%, 33.598328%, 23.413086%)" offset="0.433594"/><stop stop-opacity="1" stop-color="rgb(100%, 33.836365%, 23.483276%)" offset="0.4375"/><stop stop-opacity="1" stop-color="rgb(100%, 34.074402%, 23.551941%)" offset="0.441406"/><stop stop-opacity="1" stop-color="rgb(100%, 34.312439%, 23.622131%)" offset="0.445313"/><stop stop-opacity="1" stop-color="rgb(100%, 34.54895%, 23.690796%)" offset="0.449219"/><stop stop-opacity="1" stop-color="rgb(100%, 34.786987%, 23.760986%)" offset="0.453125"/><stop stop-opacity="1" stop-color="rgb(100%, 35.025024%, 23.829651%)" offset="0.457031"/><stop stop-opacity="1" stop-color="rgb(100%, 35.263062%, 23.899841%)" offset="0.460938"/><stop stop-opacity="1" stop-color="rgb(100%, 35.501099%, 23.968506%)" offset="0.464844"/><stop stop-opacity="1" stop-color="rgb(100%, 35.739136%, 24.038696%)" offset="0.46875"/><stop stop-opacity="1" stop-color="rgb(100%, 35.977173%, 24.107361%)" offset="0.472656"/><stop stop-opacity="1" stop-color="rgb(100%, 36.21521%, 24.177551%)" offset="0.476563"/><stop stop-opacity="1" stop-color="rgb(100%, 36.453247%, 24.246216%)" offset="0.480469"/><stop stop-opacity="1" stop-color="rgb(100%, 36.691284%, 24.316406%)" offset="0.484375"/><stop stop-opacity="1" stop-color="rgb(100%, 36.927795%, 24.385071%)" offset="0.488281"/><stop stop-opacity="1" stop-color="rgb(100%, 37.165833%, 24.455261%)" offset="0.492188"/><stop stop-opacity="1" stop-color="rgb(100%, 37.40387%, 24.523926%)" offset="0.496094"/><stop stop-opacity="1" stop-color="rgb(100%, 37.641907%, 24.594116%)" offset="0.5"/><stop stop-opacity="1" stop-color="rgb(100%, 37.879944%, 24.662781%)" offset="0.503906"/><stop stop-opacity="1" stop-color="rgb(100%, 38.117981%, 24.731445%)" offset="0.507813"/><stop stop-opacity="1" stop-color="rgb(100%, 38.356018%, 24.80011%)" offset="0.511719"/><stop stop-opacity="1" stop-color="rgb(100%, 38.594055%, 24.8703%)" offset="0.515625"/><stop stop-opacity="1" stop-color="rgb(100%, 38.832092%, 24.938965%)" offset="0.519531"/><stop stop-opacity="1" stop-color="rgb(100%, 39.070129%, 25.009155%)" offset="0.523438"/><stop stop-opacity="1" stop-color="rgb(100%, 39.306641%, 25.07782%)" offset="0.527344"/><stop stop-opacity="1" stop-color="rgb(100%, 39.544678%, 25.14801%)" offset="0.53125"/><stop stop-opacity="1" stop-color="rgb(100%, 39.782715%, 25.216675%)" offset="0.535156"/><stop stop-opacity="1" stop-color="rgb(100%, 40.020752%, 25.286865%)" offset="0.539063"/><stop stop-opacity="1" stop-color="rgb(100%, 40.258789%, 25.35553%)" offset="0.542969"/><stop stop-opacity="1" stop-color="rgb(100%, 40.496826%, 25.42572%)" offset="0.546875"/><stop stop-opacity="1" stop-color="rgb(100%, 40.734863%, 25.494385%)" offset="0.550781"/><stop stop-opacity="1" stop-color="rgb(100%, 40.9729%, 25.564575%)" offset="0.554688"/><stop stop-opacity="1" stop-color="rgb(100%, 41.210938%, 25.63324%)" offset="0.558594"/><stop stop-opacity="1" stop-color="rgb(100%, 41.448975%, 25.70343%)" offset="0.5625"/><stop stop-opacity="1" stop-color="rgb(100%, 41.685486%, 25.772095%)" offset="0.566406"/><stop stop-opacity="1" stop-color="rgb(100%, 41.923523%, 25.842285%)" offset="0.570313"/><stop stop-opacity="1" stop-color="rgb(100%, 42.16156%, 25.91095%)" offset="0.574219"/><stop stop-opacity="1" stop-color="rgb(100%, 42.399597%, 25.98114%)" offset="0.578125"/><stop stop-opacity="1" stop-color="rgb(100%, 42.637634%, 26.049805%)" offset="0.582031"/><stop stop-opacity="1" stop-color="rgb(100%, 42.875671%, 26.119995%)" offset="0.585938"/><stop stop-opacity="1" stop-color="rgb(100%, 43.113708%, 26.18866%)" offset="0.589844"/><stop stop-opacity="1" stop-color="rgb(100%, 43.351746%, 26.25885%)" offset="0.59375"/><stop stop-opacity="1" stop-color="rgb(100%, 43.589783%, 26.327515%)" offset="0.597656"/><stop stop-opacity="1" stop-color="rgb(100%, 43.82782%, 26.397705%)" offset="0.601563"/><stop stop-opacity="1" stop-color="rgb(100%, 44.064331%, 26.46637%)" offset="0.605469"/><stop stop-opacity="1" stop-color="rgb(100%, 44.302368%, 26.53656%)" offset="0.609375"/><stop stop-opacity="1" stop-color="rgb(100%, 44.540405%, 26.605225%)" offset="0.613281"/><stop stop-opacity="1" stop-color="rgb(100%, 44.778442%, 26.675415%)" offset="0.617188"/><stop stop-opacity="1" stop-color="rgb(100%, 45.016479%, 26.74408%)" offset="0.621094"/><stop stop-opacity="1" stop-color="rgb(100%, 45.254517%, 26.81427%)" offset="0.625"/><stop stop-opacity="1" stop-color="rgb(100%, 45.492554%, 26.882935%)" offset="0.628906"/><stop stop-opacity="1" stop-color="rgb(100%, 45.730591%, 26.953125%)" offset="0.632812"/><stop stop-opacity="1" stop-color="rgb(100%, 45.968628%, 27.02179%)" offset="0.636719"/><stop stop-opacity="1" stop-color="rgb(100%, 46.206665%, 27.09198%)" offset="0.640625"/><stop stop-opacity="1" stop-color="rgb(100%, 46.444702%, 27.160645%)" offset="0.644531"/><stop stop-opacity="1" stop-color="rgb(100%, 46.682739%, 27.230835%)" offset="0.648438"/><stop stop-opacity="1" stop-color="rgb(100%, 46.91925%, 27.2995%)" offset="0.652344"/><stop stop-opacity="1" stop-color="rgb(100%, 47.157288%, 27.36969%)" offset="0.65625"/><stop stop-opacity="1" stop-color="rgb(100%, 47.395325%, 27.438354%)" offset="0.660156"/><stop stop-opacity="1" stop-color="rgb(100%, 47.633362%, 27.508545%)" offset="0.664062"/><stop stop-opacity="1" stop-color="rgb(100%, 47.871399%, 27.577209%)" offset="0.667969"/><stop stop-opacity="1" stop-color="rgb(100%, 48.109436%, 27.6474%)" offset="0.671875"/><stop stop-opacity="1" stop-color="rgb(100%, 48.347473%, 27.716064%)" offset="0.675781"/><stop stop-opacity="1" stop-color="rgb(100%, 48.58551%, 27.786255%)" offset="0.679688"/><stop stop-opacity="1" stop-color="rgb(100%, 48.823547%, 27.854919%)" offset="0.683594"/><stop stop-opacity="1" stop-color="rgb(100%, 49.061584%, 27.92511%)" offset="0.6875"/><stop stop-opacity="1" stop-color="rgb(100%, 49.298096%, 27.993774%)" offset="0.691406"/><stop stop-opacity="1" stop-color="rgb(100%, 49.536133%, 28.062439%)" offset="0.695312"/><stop stop-opacity="1" stop-color="rgb(100%, 49.77417%, 28.131104%)" offset="0.699219"/><stop stop-opacity="1" stop-color="rgb(100%, 50.012207%, 28.201294%)" offset="0.703125"/><stop stop-opacity="1" stop-color="rgb(100%, 50.250244%, 28.269958%)" offset="0.707031"/><stop stop-opacity="1" stop-color="rgb(100%, 50.488281%, 28.340149%)" offset="0.710938"/><stop stop-opacity="1" stop-color="rgb(100%, 50.726318%, 28.408813%)" offset="0.714844"/><stop stop-opacity="1" stop-color="rgb(100%, 50.964355%, 28.479004%)" offset="0.71875"/><stop stop-opacity="1" stop-color="rgb(100%, 51.202393%, 28.547668%)" offset="0.722656"/><stop stop-opacity="1" stop-color="rgb(100%, 51.44043%, 28.617859%)" offset="0.726563"/><stop stop-opacity="1" stop-color="rgb(100%, 51.676941%, 28.686523%)" offset="0.730469"/><stop stop-opacity="1" stop-color="rgb(100%, 51.914978%, 28.756714%)" offset="0.734375"/><stop stop-opacity="1" stop-color="rgb(100%, 52.153015%, 28.825378%)" offset="0.738281"/><stop stop-opacity="1" stop-color="rgb(100%, 52.391052%, 28.895569%)" offset="0.742188"/><stop stop-opacity="1" stop-color="rgb(100%, 52.629089%, 28.964233%)" offset="0.746094"/><stop stop-opacity="1" stop-color="rgb(100%, 52.867126%, 29.034424%)" offset="0.75"/><stop stop-opacity="1" stop-color="rgb(100%, 53.105164%, 29.103088%)" offset="0.753906"/><stop stop-opacity="1" stop-color="rgb(100%, 53.343201%, 29.173279%)" offset="0.757813"/><stop stop-opacity="1" stop-color="rgb(100%, 53.581238%, 29.241943%)" offset="0.761719"/><stop stop-opacity="1" stop-color="rgb(100%, 53.819275%, 29.312134%)" offset="0.765625"/><stop stop-opacity="1" stop-color="rgb(100%, 54.055786%, 29.380798%)" offset="0.769531"/><stop stop-opacity="1" stop-color="rgb(100%, 54.293823%, 29.450989%)" offset="0.773438"/><stop stop-opacity="1" stop-color="rgb(100%, 54.53186%, 29.519653%)" offset="0.777344"/><stop stop-opacity="1" stop-color="rgb(100%, 54.769897%, 29.589844%)" offset="0.78125"/><stop stop-opacity="1" stop-color="rgb(100%, 55.007935%, 29.658508%)" offset="0.785156"/><stop stop-opacity="1" stop-color="rgb(100%, 55.245972%, 29.728699%)" offset="0.789063"/><stop stop-opacity="1" stop-color="rgb(100%, 55.484009%, 29.797363%)" offset="0.792969"/><stop stop-opacity="1" stop-color="rgb(100%, 55.722046%, 29.867554%)" offset="0.796875"/><stop stop-opacity="1" stop-color="rgb(100%, 55.960083%, 29.936218%)" offset="0.800781"/><stop stop-opacity="1" stop-color="rgb(100%, 56.19812%, 30.006409%)" offset="0.804688"/><stop stop-opacity="1" stop-color="rgb(100%, 56.434631%, 30.075073%)" offset="0.808594"/><stop stop-opacity="1" stop-color="rgb(100%, 56.672668%, 30.145264%)" offset="0.8125"/><stop stop-opacity="1" stop-color="rgb(100%, 56.765747%, 30.171204%)" offset="0.875"/><stop stop-opacity="1" stop-color="rgb(100%, 56.858826%, 30.198669%)" offset="1"/></linearGradient><clipPath id="605ca02c95"><rect x="0" width="300" y="0" height="142"/></clipPath><clipPath id="cefa8f4c2f"><path d="M 0 0.277344 L 300 0.277344 L 300 141.410156 L 0 141.410156 Z M 0 0.277344 " clip-rule="nonzero"/></clipPath><clipPath id="e0f2dee0f1"><rect x="0" width="300" y="0" height="142"/></clipPath><clipPath id="2651494bc0"><rect x="0" width="300" y="0" height="142"/></clipPath><mask id="0f3093cbc9"><g filter="url(#902299e676)"><g transform="matrix(1, 0, 0, 1, 0, 0)"><g clip-path="url(#2651494bc0)"><g clip-path="url(#cefa8f4c2f)"><g transform="matrix(1, 0, 0, 1, 0, 0)"><g clip-path="url(#e0f2dee0f1)"><g fill="#000000" fill-opacity="1"><g transform="translate(66.783973, 80.8835)"><g><path d="M 8.59375 -17.21875 L 8.59375 -14.375 L 5.75 -14.375 L 5.75 -5.71875 L 8.59375 -5.71875 L 8.59375 -2.875 L 14.34375 -2.875 L 14.34375 -5.75 L 20.09375 -5.75 L 20.09375 -2.875 L 17.21875 -2.875 L 17.21875 0 L 5.75 0 L 5.75 -2.875 L 2.875 -2.875 L 2.875 -5.75 L 0 -5.75 L 0 -14.34375 L 2.875 -14.34375 L 2.875 -17.21875 L 5.75 -17.21875 L 5.75 -20.09375 L 17.21875 -20.09375 L 17.21875 -17.21875 L 20.09375 -17.21875 L 20.09375 -14.34375 L 14.34375 -14.34375 L 14.34375 -17.21875 Z M 8.59375 -17.21875 "/></g></g></g><g fill="#000000" fill-opacity="1"><g transform="translate(91.73446, 80.8835)"><g><path d="M 2.875 -14.34375 L 2.875 -17.21875 L 5.75 -17.21875 L 5.75 -20.09375 L 17.21875 -20.09375 L 17.21875 -17.21875 L 20.09375 -17.21875 L 20.09375 -14.34375 L 22.9375 -14.34375 L 22.9375 -5.75 L 20.09375 -5.75 L 20.09375 -2.875 L 17.21875 -2.875 L 17.21875 0 L 5.75 0 L 5.75 -2.875 L 2.875 -2.875 L 2.875 -5.75 L 0 -5.75 L 0 -14.34375 Z M 14.34375 -14.34375 L 14.34375 -17.21875 L 8.59375 -17.21875 L 8.59375 -14.375 L 5.75 -14.375 L 5.75 -5.71875 L 8.59375 -5.71875 L 8.59375 -2.875 L 14.34375 -2.875 L 14.34375 -5.75 L 17.21875 -5.75 L 17.21875 -14.34375 Z M 14.34375 -14.34375 "/></g></g></g><g fill="#000000" fill-opacity="1"><g transform="translate(119.556265, 80.8835)"><g><path d="M 2.875 -2.875 L 0 -2.875 L 0 -20.09375 L 5.75 -20.09375 L 5.75 -2.875 L 14.34375 -2.875 L 14.34375 -20.09375 L 20.09375 -20.09375 L 20.09375 -2.875 L 17.21875 -2.875 L 17.21875 0 L 2.875 0 Z M 2.875 -2.875 "/></g></g></g><g fill="#000000" fill-opacity="1"><g transform="translate(144.506752, 80.8835)"><g><path d="M 14.34375 -2.875 L 14.34375 0 L 0 0 L 0 -20.09375 L 5.71875 -20.09375 L 5.71875 -2.875 Z M 14.34375 -2.875 "/></g></g></g><g fill="#000000" fill-opacity="1"><g transform="translate(163.72861, 80.8835)"><g><path d="M 14.34375 -14.34375 L 11.46875 -14.34375 L 11.46875 -17.21875 L 5.75 -17.21875 L 5.75 -2.875 L 11.46875 -2.875 L 11.46875 -5.75 L 14.34375 -5.75 Z M 17.21875 -17.21875 L 17.21875 -14.34375 L 20.09375 -14.34375 L 20.09375 -5.75 L 17.21875 -5.75 L 17.21875 -2.875 L 14.34375 -2.875 L 14.34375 0 L 0 0 L 0 -20.09375 L 14.34375 -20.09375 L 14.34375 -17.21875 Z M 17.21875 -17.21875 "/></g></g></g><g fill="#000000" fill-opacity="1"><g transform="translate(188.679097, 80.8835)"><g><path d="M 20.09375 -20.09375 L 20.09375 0 L 14.34375 0 L 14.34375 -5.75 L 11.46875 -5.75 L 11.46875 -8.59375 L 8.59375 -8.59375 L 8.59375 -11.46875 L 5.75 -11.46875 L 5.75 0 L 0 0 L 0 -20.09375 L 5.75 -20.09375 L 5.75 -17.21875 L 8.59375 -17.21875 L 8.59375 -14.34375 L 11.46875 -14.34375 L 11.46875 -11.46875 L 14.34375 -11.46875 L 14.34375 -20.09375 Z M 20.09375 -20.09375 "/></g></g></g><g fill="#000000" fill-opacity="1"><g transform="translate(213.629584, 80.8835)"><g><path d="M 0 -20.09375 L 5.75 -20.09375 L 5.75 -14.34375 L 2.875 -14.34375 L 2.875 -11.46875 L 0 -11.46875 Z M 0 -20.09375 "/></g></g></g><g fill="#000000" fill-opacity="1"><g transform="translate(224.237491, 80.8835)"><g><path d="M 0 -20.09375 L 17.21875 -20.09375 L 17.21875 -17.21875 L 11.484375 -17.21875 L 11.484375 0 L 5.75 0 L 5.75 -17.21875 L 0 -17.21875 Z M 0 -20.09375 "/></g></g></g></g></g></g></g></g></g></mask><clipPath id="d5c32f38e7"><path d="M 9.480469 0.277344 L 300 0.277344 L 300 141.410156 L 9.480469 141.410156 Z M 9.480469 0.277344 " clip-rule="nonzero"/></clipPath><clipPath id="4919fc8310"><rect x="0" width="300" y="0" height="142"/></clipPath><clipPath id="6d36b7705f"><rect x="0" width="300" y="0" height="142"/></clipPath><clipPath id="7bfc246962"><rect x="0" width="300" y="0" height="142"/></clipPath><clipPath id="3abdb4f8a6"><path d="M 0 0.769531 L 300 0.769531 L 300 144 L 0 144 Z M 0 0.769531 " clip-rule="nonzero"/></clipPath><clipPath id="7b25ad6b11"><path d="M 0 0.769531 L 300 0.769531 L 300 144 L 0 144 Z M 0 0.769531 " clip-rule="nonzero"/></clipPath><clipPath id="4dd328009b"><path d="M 0 0.769531 L 300 0.769531 L 300 144 L 0 144 Z M 0 0.769531 " clip-rule="nonzero"/></clipPath><linearGradient x1="-86.827766" gradientTransform="matrix(0.197805, 0, 0, 0.197797, 17.175012, 79.88771)" y1="92" x2="1429.813772" gradientUnits="userSpaceOnUse" y2="92" id="256b789ee1"><stop stop-opacity="1" stop-color="rgb(100%, 19.219971%, 19.219971%)" offset="0"/><stop stop-opacity="1" stop-color="rgb(100%, 19.219971%, 19.219971%)" offset="0.125"/><stop stop-opacity="1" stop-color="rgb(100%, 19.219971%, 19.219971%)" offset="0.140625"/><stop stop-opacity="1" stop-color="rgb(100%, 19.381714%, 19.267273%)" offset="0.148438"/><stop stop-opacity="1" stop-color="rgb(100%, 19.743347%, 19.372559%)" offset="0.152344"/><stop stop-opacity="1" stop-color="rgb(100%, 19.943237%, 19.430542%)" offset="0.15625"/><stop stop-opacity="1" stop-color="rgb(100%, 20.141602%, 19.488525%)" offset="0.160156"/><stop stop-opacity="1" stop-color="rgb(100%, 20.341492%, 19.546509%)" offset="0.164062"/><stop stop-opacity="1" stop-color="rgb(100%, 20.539856%, 19.604492%)" offset="0.167969"/><stop stop-opacity="1" stop-color="rgb(100%, 20.739746%, 19.662476%)" offset="0.171875"/><stop stop-opacity="1" stop-color="rgb(100%, 20.93811%, 19.720459%)" offset="0.175781"/><stop stop-opacity="1" stop-color="rgb(100%, 21.138%, 19.778442%)" offset="0.179687"/><stop stop-opacity="1" stop-color="rgb(100%, 21.336365%, 19.836426%)" offset="0.183594"/><stop stop-opacity="1" stop-color="rgb(100%, 21.536255%, 19.895935%)" offset="0.1875"/><stop stop-opacity="1" stop-color="rgb(100%, 21.734619%, 19.953918%)" offset="0.191406"/><stop stop-opacity="1" stop-color="rgb(100%, 21.934509%, 20.011902%)" offset="0.195312"/><stop stop-opacity="1" stop-color="rgb(100%, 22.132874%, 20.069885%)" offset="0.199219"/><stop stop-opacity="1" stop-color="rgb(100%, 22.332764%, 20.127869%)" offset="0.203125"/><stop stop-opacity="1" stop-color="rgb(100%, 22.531128%, 20.185852%)" offset="0.207031"/><stop stop-opacity="1" stop-color="rgb(100%, 22.731018%, 20.243835%)" offset="0.210937"/><stop stop-opacity="1" stop-color="rgb(100%, 22.929382%, 20.301819%)" offset="0.214844"/><stop stop-opacity="1" stop-color="rgb(100%, 23.129272%, 20.359802%)" offset="0.21875"/><stop stop-opacity="1" stop-color="rgb(100%, 23.327637%, 20.417786%)" offset="0.222656"/><stop stop-opacity="1" stop-color="rgb(100%, 23.527527%, 20.475769%)" offset="0.226562"/><stop stop-opacity="1" stop-color="rgb(100%, 23.725891%, 20.533752%)" offset="0.230469"/><stop stop-opacity="1" stop-color="rgb(100%, 23.925781%, 20.591736%)" offset="0.234375"/><stop stop-opacity="1" stop-color="rgb(100%, 24.124146%, 20.649719%)" offset="0.238281"/><stop stop-opacity="1" stop-color="rgb(100%, 24.324036%, 20.707703%)" offset="0.242187"/><stop stop-opacity="1" stop-color="rgb(100%, 24.5224%, 20.765686%)" offset="0.246094"/><stop stop-opacity="1" stop-color="rgb(100%, 24.72229%, 20.825195%)" offset="0.25"/><stop stop-opacity="1" stop-color="rgb(100%, 24.920654%, 20.883179%)" offset="0.253906"/><stop stop-opacity="1" stop-color="rgb(100%, 25.120544%, 20.941162%)" offset="0.257812"/><stop stop-opacity="1" stop-color="rgb(100%, 25.318909%, 20.999146%)" offset="0.261719"/><stop stop-opacity="1" stop-color="rgb(100%, 25.518799%, 21.057129%)" offset="0.265625"/><stop stop-opacity="1" stop-color="rgb(100%, 25.717163%, 21.115112%)" offset="0.269531"/><stop stop-opacity="1" stop-color="rgb(100%, 25.917053%, 21.173096%)" offset="0.273438"/><stop stop-opacity="1" stop-color="rgb(100%, 26.115417%, 21.231079%)" offset="0.277344"/><stop stop-opacity="1" stop-color="rgb(100%, 26.315308%, 21.289062%)" offset="0.28125"/><stop stop-opacity="1" stop-color="rgb(100%, 26.513672%, 21.347046%)" offset="0.285156"/><stop stop-opacity="1" stop-color="rgb(100%, 26.713562%, 21.405029%)" offset="0.289062"/><stop stop-opacity="1" stop-color="rgb(100%, 26.911926%, 21.463013%)" offset="0.292969"/><stop stop-opacity="1" stop-color="rgb(100%, 27.111816%, 21.520996%)" offset="0.296875"/><stop stop-opacity="1" stop-color="rgb(100%, 27.310181%, 21.578979%)" offset="0.300781"/><stop stop-opacity="1" stop-color="rgb(100%, 27.510071%, 21.638489%)" offset="0.304688"/><stop stop-opacity="1" stop-color="rgb(100%, 27.708435%, 21.696472%)" offset="0.308594"/><stop stop-opacity="1" stop-color="rgb(100%, 27.908325%, 21.754456%)" offset="0.3125"/><stop stop-opacity="1" stop-color="rgb(100%, 28.106689%, 21.812439%)" offset="0.316406"/><stop stop-opacity="1" stop-color="rgb(100%, 28.30658%, 21.870422%)" offset="0.320312"/><stop stop-opacity="1" stop-color="rgb(100%, 28.504944%, 21.928406%)" offset="0.324219"/><stop stop-opacity="1" stop-color="rgb(100%, 28.704834%, 21.986389%)" offset="0.328125"/><stop stop-opacity="1" stop-color="rgb(100%, 28.903198%, 22.044373%)" offset="0.332031"/><stop stop-opacity="1" stop-color="rgb(100%, 29.103088%, 22.102356%)" offset="0.335937"/><stop stop-opacity="1" stop-color="rgb(100%, 29.301453%, 22.160339%)" offset="0.339844"/><stop stop-opacity="1" stop-color="rgb(100%, 29.501343%, 22.218323%)" offset="0.34375"/><stop stop-opacity="1" stop-color="rgb(100%, 29.699707%, 22.276306%)" offset="0.347656"/><stop stop-opacity="1" stop-color="rgb(100%, 29.899597%, 22.33429%)" offset="0.351562"/><stop stop-opacity="1" stop-color="rgb(100%, 30.097961%, 22.392273%)" offset="0.355469"/><stop stop-opacity="1" stop-color="rgb(100%, 30.297852%, 22.450256%)" offset="0.359375"/><stop stop-opacity="1" stop-color="rgb(100%, 30.496216%, 22.50824%)" offset="0.363281"/><stop stop-opacity="1" stop-color="rgb(100%, 30.696106%, 22.567749%)" offset="0.367188"/><stop stop-opacity="1" stop-color="rgb(100%, 30.89447%, 22.625732%)" offset="0.371094"/><stop stop-opacity="1" stop-color="rgb(100%, 31.09436%, 22.683716%)" offset="0.375"/><stop stop-opacity="1" stop-color="rgb(100%, 31.292725%, 22.741699%)" offset="0.378906"/><stop stop-opacity="1" stop-color="rgb(100%, 31.492615%, 22.799683%)" offset="0.382812"/><stop stop-opacity="1" stop-color="rgb(100%, 31.690979%, 22.857666%)" offset="0.386719"/><stop stop-opacity="1" stop-color="rgb(100%, 31.890869%, 22.915649%)" offset="0.390625"/><stop stop-opacity="1" stop-color="rgb(100%, 32.089233%, 22.973633%)" offset="0.394531"/><stop stop-opacity="1" stop-color="rgb(100%, 32.289124%, 23.031616%)" offset="0.398438"/><stop stop-opacity="1" stop-color="rgb(100%, 32.487488%, 23.0896%)" offset="0.402344"/><stop stop-opacity="1" stop-color="rgb(100%, 32.687378%, 23.147583%)" offset="0.40625"/><stop stop-opacity="1" stop-color="rgb(100%, 32.885742%, 23.205566%)" offset="0.410156"/><stop stop-opacity="1" stop-color="rgb(100%, 33.085632%, 23.26355%)" offset="0.414062"/><stop stop-opacity="1" stop-color="rgb(100%, 33.283997%, 23.321533%)" offset="0.417969"/><stop stop-opacity="1" stop-color="rgb(100%, 33.483887%, 23.379517%)" offset="0.421875"/><stop stop-opacity="1" stop-color="rgb(100%, 33.682251%, 23.4375%)" offset="0.425781"/><stop stop-opacity="1" stop-color="rgb(100%, 33.882141%, 23.497009%)" offset="0.429687"/><stop stop-opacity="1" stop-color="rgb(100%, 34.080505%, 23.554993%)" offset="0.433594"/><stop stop-opacity="1" stop-color="rgb(100%, 34.280396%, 23.612976%)" offset="0.4375"/><stop stop-opacity="1" stop-color="rgb(100%, 34.47876%, 23.670959%)" offset="0.441406"/><stop stop-opacity="1" stop-color="rgb(100%, 34.67865%, 23.728943%)" offset="0.445312"/><stop stop-opacity="1" stop-color="rgb(100%, 34.877014%, 23.786926%)" offset="0.449219"/><stop stop-opacity="1" stop-color="rgb(100%, 35.076904%, 23.84491%)" offset="0.453125"/><stop stop-opacity="1" stop-color="rgb(100%, 35.275269%, 23.902893%)" offset="0.457031"/><stop stop-opacity="1" stop-color="rgb(100%, 35.475159%, 23.960876%)" offset="0.460937"/><stop stop-opacity="1" stop-color="rgb(100%, 35.673523%, 24.01886%)" offset="0.464844"/><stop stop-opacity="1" stop-color="rgb(100%, 35.873413%, 24.076843%)" offset="0.46875"/><stop stop-opacity="1" stop-color="rgb(100%, 36.071777%, 24.134827%)" offset="0.472656"/><stop stop-opacity="1" stop-color="rgb(100%, 36.271667%, 24.19281%)" offset="0.476562"/><stop stop-opacity="1" stop-color="rgb(100%, 36.470032%, 24.250793%)" offset="0.480469"/><stop stop-opacity="1" stop-color="rgb(100%, 36.669922%, 24.310303%)" offset="0.484375"/><stop stop-opacity="1" stop-color="rgb(100%, 36.868286%, 24.368286%)" offset="0.488281"/><stop stop-opacity="1" stop-color="rgb(100%, 37.068176%, 24.42627%)" offset="0.492188"/><stop stop-opacity="1" stop-color="rgb(100%, 37.266541%, 24.484253%)" offset="0.496094"/><stop stop-opacity="1" stop-color="rgb(100%, 37.466431%, 24.542236%)" offset="0.5"/><stop stop-opacity="1" stop-color="rgb(100%, 37.664795%, 24.60022%)" offset="0.503906"/><stop stop-opacity="1" stop-color="rgb(100%, 37.864685%, 24.658203%)" offset="0.507812"/><stop stop-opacity="1" stop-color="rgb(100%, 38.063049%, 24.716187%)" offset="0.511719"/><stop stop-opacity="1" stop-color="rgb(100%, 38.262939%, 24.77417%)" offset="0.515625"/><stop stop-opacity="1" stop-color="rgb(100%, 38.461304%, 24.832153%)" offset="0.519531"/><stop stop-opacity="1" stop-color="rgb(100%, 38.661194%, 24.890137%)" offset="0.523437"/><stop stop-opacity="1" stop-color="rgb(100%, 38.859558%, 24.94812%)" offset="0.527344"/><stop stop-opacity="1" stop-color="rgb(100%, 39.059448%, 25.006104%)" offset="0.53125"/><stop stop-opacity="1" stop-color="rgb(100%, 39.257812%, 25.064087%)" offset="0.535156"/><stop stop-opacity="1" stop-color="rgb(100%, 39.457703%, 25.12207%)" offset="0.539062"/><stop stop-opacity="1" stop-color="rgb(100%, 39.656067%, 25.180054%)" offset="0.542969"/><stop stop-opacity="1" stop-color="rgb(100%, 39.854431%, 25.239563%)" offset="0.546875"/><stop stop-opacity="1" stop-color="rgb(100%, 40.052795%, 25.297546%)" offset="0.550781"/><stop stop-opacity="1" stop-color="rgb(100%, 40.252686%, 25.35553%)" offset="0.554687"/><stop stop-opacity="1" stop-color="rgb(100%, 40.45105%, 25.413513%)" offset="0.558594"/><stop stop-opacity="1" stop-color="rgb(100%, 40.65094%, 25.471497%)" offset="0.5625"/><stop stop-opacity="1" stop-color="rgb(100%, 40.849304%, 25.52948%)" offset="0.566406"/><stop stop-opacity="1" stop-color="rgb(100%, 41.049194%, 25.587463%)" offset="0.570312"/><stop stop-opacity="1" stop-color="rgb(100%, 41.247559%, 25.645447%)" offset="0.574219"/><stop stop-opacity="1" stop-color="rgb(100%, 41.447449%, 25.70343%)" offset="0.578125"/><stop stop-opacity="1" stop-color="rgb(100%, 41.645813%, 25.761414%)" offset="0.582031"/><stop stop-opacity="1" stop-color="rgb(100%, 41.845703%, 25.819397%)" offset="0.585938"/><stop stop-opacity="1" stop-color="rgb(100%, 42.044067%, 25.87738%)" offset="0.589844"/><stop stop-opacity="1" stop-color="rgb(100%, 42.243958%, 25.935364%)" offset="0.59375"/><stop stop-opacity="1" stop-color="rgb(100%, 42.442322%, 25.993347%)" offset="0.597656"/><stop stop-opacity="1" stop-color="rgb(100%, 42.642212%, 26.052856%)" offset="0.601562"/><stop stop-opacity="1" stop-color="rgb(100%, 42.840576%, 26.11084%)" offset="0.605469"/><stop stop-opacity="1" stop-color="rgb(100%, 43.040466%, 26.168823%)" offset="0.609375"/><stop stop-opacity="1" stop-color="rgb(100%, 43.238831%, 26.226807%)" offset="0.613281"/><stop stop-opacity="1" stop-color="rgb(100%, 43.438721%, 26.28479%)" offset="0.617187"/><stop stop-opacity="1" stop-color="rgb(100%, 43.637085%, 26.342773%)" offset="0.621094"/><stop stop-opacity="1" stop-color="rgb(100%, 43.836975%, 26.400757%)" offset="0.625"/><stop stop-opacity="1" stop-color="rgb(100%, 44.035339%, 26.45874%)" offset="0.628906"/><stop stop-opacity="1" stop-color="rgb(100%, 44.235229%, 26.516724%)" offset="0.632812"/><stop stop-opacity="1" stop-color="rgb(100%, 44.433594%, 26.574707%)" offset="0.636719"/><stop stop-opacity="1" stop-color="rgb(100%, 44.633484%, 26.63269%)" offset="0.640625"/><stop stop-opacity="1" stop-color="rgb(100%, 44.831848%, 26.690674%)" offset="0.644531"/><stop stop-opacity="1" stop-color="rgb(100%, 45.031738%, 26.748657%)" offset="0.648437"/><stop stop-opacity="1" stop-color="rgb(100%, 45.230103%, 26.806641%)" offset="0.652344"/><stop stop-opacity="1" stop-color="rgb(100%, 45.429993%, 26.864624%)" offset="0.65625"/><stop stop-opacity="1" stop-color="rgb(100%, 45.628357%, 26.922607%)" offset="0.660156"/><stop stop-opacity="1" stop-color="rgb(100%, 45.828247%, 26.982117%)" offset="0.664062"/><stop stop-opacity="1" stop-color="rgb(100%, 46.026611%, 27.0401%)" offset="0.667969"/><stop stop-opacity="1" stop-color="rgb(100%, 46.226501%, 27.098083%)" offset="0.671875"/><stop stop-opacity="1" stop-color="rgb(100%, 46.424866%, 27.156067%)" offset="0.675781"/><stop stop-opacity="1" stop-color="rgb(100%, 46.624756%, 27.21405%)" offset="0.679687"/><stop stop-opacity="1" stop-color="rgb(100%, 46.82312%, 27.272034%)" offset="0.683594"/><stop stop-opacity="1" stop-color="rgb(100%, 47.02301%, 27.330017%)" offset="0.6875"/><stop stop-opacity="1" stop-color="rgb(100%, 47.221375%, 27.388%)" offset="0.691406"/><stop stop-opacity="1" stop-color="rgb(100%, 47.421265%, 27.445984%)" offset="0.695312"/><stop stop-opacity="1" stop-color="rgb(100%, 47.619629%, 27.503967%)" offset="0.699219"/><stop stop-opacity="1" stop-color="rgb(100%, 47.819519%, 27.561951%)" offset="0.703125"/><stop stop-opacity="1" stop-color="rgb(100%, 48.017883%, 27.619934%)" offset="0.707031"/><stop stop-opacity="1" stop-color="rgb(100%, 48.217773%, 27.677917%)" offset="0.710937"/><stop stop-opacity="1" stop-color="rgb(100%, 48.416138%, 27.735901%)" offset="0.714844"/><stop stop-opacity="1" stop-color="rgb(100%, 48.616028%, 27.79541%)" offset="0.71875"/><stop stop-opacity="1" stop-color="rgb(100%, 48.814392%, 27.853394%)" offset="0.722656"/><stop stop-opacity="1" stop-color="rgb(100%, 49.014282%, 27.911377%)" offset="0.726562"/><stop stop-opacity="1" stop-color="rgb(100%, 49.212646%, 27.96936%)" offset="0.730469"/><stop stop-opacity="1" stop-color="rgb(100%, 49.412537%, 28.027344%)" offset="0.734375"/><stop stop-opacity="1" stop-color="rgb(100%, 49.610901%, 28.085327%)" offset="0.738281"/><stop stop-opacity="1" stop-color="rgb(100%, 49.810791%, 28.143311%)" offset="0.742187"/><stop stop-opacity="1" stop-color="rgb(100%, 50.009155%, 28.201294%)" offset="0.746094"/><stop stop-opacity="1" stop-color="rgb(100%, 50.209045%, 28.259277%)" offset="0.75"/><stop stop-opacity="1" stop-color="rgb(100%, 50.40741%, 28.317261%)" offset="0.753906"/><stop stop-opacity="1" stop-color="rgb(100%, 50.6073%, 28.375244%)" offset="0.757812"/><stop stop-opacity="1" stop-color="rgb(100%, 50.805664%, 28.433228%)" offset="0.761719"/><stop stop-opacity="1" stop-color="rgb(100%, 51.005554%, 28.491211%)" offset="0.765625"/><stop stop-opacity="1" stop-color="rgb(100%, 51.203918%, 28.549194%)" offset="0.769531"/><stop stop-opacity="1" stop-color="rgb(100%, 51.403809%, 28.607178%)" offset="0.773438"/><stop stop-opacity="1" stop-color="rgb(100%, 51.602173%, 28.665161%)" offset="0.777344"/><stop stop-opacity="1" stop-color="rgb(100%, 51.802063%, 28.72467%)" offset="0.78125"/><stop stop-opacity="1" stop-color="rgb(100%, 52.000427%, 28.782654%)" offset="0.785156"/><stop stop-opacity="1" stop-color="rgb(100%, 52.200317%, 28.840637%)" offset="0.789062"/><stop stop-opacity="1" stop-color="rgb(100%, 52.398682%, 28.898621%)" offset="0.792969"/><stop stop-opacity="1" stop-color="rgb(100%, 52.598572%, 28.956604%)" offset="0.796875"/><stop stop-opacity="1" stop-color="rgb(100%, 52.796936%, 29.014587%)" offset="0.800781"/><stop stop-opacity="1" stop-color="rgb(100%, 52.996826%, 29.072571%)" offset="0.804687"/><stop stop-opacity="1" stop-color="rgb(100%, 53.19519%, 29.130554%)" offset="0.808594"/><stop stop-opacity="1" stop-color="rgb(100%, 53.395081%, 29.188538%)" offset="0.8125"/><stop stop-opacity="1" stop-color="rgb(100%, 53.593445%, 29.246521%)" offset="0.816406"/><stop stop-opacity="1" stop-color="rgb(100%, 53.793335%, 29.304504%)" offset="0.820312"/><stop stop-opacity="1" stop-color="rgb(100%, 53.991699%, 29.362488%)" offset="0.824219"/><stop stop-opacity="1" stop-color="rgb(100%, 54.191589%, 29.420471%)" offset="0.828125"/><stop stop-opacity="1" stop-color="rgb(100%, 54.389954%, 29.478455%)" offset="0.832031"/><stop stop-opacity="1" stop-color="rgb(100%, 54.589844%, 29.536438%)" offset="0.835938"/><stop stop-opacity="1" stop-color="rgb(100%, 54.788208%, 29.594421%)" offset="0.839844"/><stop stop-opacity="1" stop-color="rgb(100%, 54.988098%, 29.653931%)" offset="0.84375"/><stop stop-opacity="1" stop-color="rgb(100%, 55.186462%, 29.711914%)" offset="0.847656"/><stop stop-opacity="1" stop-color="rgb(100%, 55.386353%, 29.769897%)" offset="0.851562"/><stop stop-opacity="1" stop-color="rgb(100%, 55.584717%, 29.827881%)" offset="0.855469"/><stop stop-opacity="1" stop-color="rgb(100%, 55.784607%, 29.885864%)" offset="0.859375"/><stop stop-opacity="1" stop-color="rgb(100%, 55.982971%, 29.943848%)" offset="0.863281"/><stop stop-opacity="1" stop-color="rgb(100%, 56.182861%, 30.001831%)" offset="0.867188"/><stop stop-opacity="1" stop-color="rgb(100%, 56.381226%, 30.059814%)" offset="0.871094"/><stop stop-opacity="1" stop-color="rgb(100%, 56.581116%, 30.117798%)" offset="0.875"/><stop stop-opacity="1" stop-color="rgb(100%, 56.719971%, 30.157471%)" offset="1"/></linearGradient><clipPath id="6e8ae20796"><rect x="0" width="300" y="0" height="144"/></clipPath><clipPath id="f75f26664c"><path d="M 0 0.769531 L 300 0.769531 L 300 144 L 0 144 Z M 0 0.769531 " clip-rule="nonzero"/></clipPath><clipPath id="9b3c7dafe7"><rect x="0" width="300" y="0" height="144"/></clipPath><clipPath id="ea1fd8cf3c"><rect x="0" width="300" y="0" height="144"/></clipPath><mask id="d7b9426d61"><g filter="url(#902299e676)"><g transform="matrix(1, 0, 0, 1, 0, 0.000000000000028422)"><g clip-path="url(#ea1fd8cf3c)"><g clip-path="url(#f75f26664c)"><g transform="matrix(1, 0, 0, 1, 0, 0.000000000000028422)"><g clip-path="url(#9b3c7dafe7)"><g fill="#000000" fill-opacity="1"><g transform="translate(42.528028, 111.930893)"><g><path d="M 11.859375 -15.828125 L 23.734375 -15.828125 L 23.734375 0 L 7.921875 0 L 7.921875 -3.953125 L 3.953125 -3.953125 L 3.953125 -7.875 L 7.921875 -7.875 L 7.921875 -3.953125 L 19.78125 -3.953125 L 19.78125 -11.859375 L 11.859375 -11.859375 Z M 23.734375 -23.734375 L 23.734375 -19.78125 L 19.78125 -19.78125 L 19.78125 -23.734375 L 7.921875 -23.734375 L 7.921875 -27.703125 L 19.78125 -27.703125 L 19.78125 -23.734375 Z M 3.953125 -19.78125 L 3.953125 -7.921875 L 0 -7.921875 L 0 -19.78125 Z M 7.921875 -19.8125 L 3.953125 -19.8125 L 3.953125 -23.734375 L 7.921875 -23.734375 Z M 7.921875 -19.8125 "/></g></g><g transform="translate(74.167889, 111.930893)"><g><path d="M 3.953125 -3.953125 L 19.78125 -3.953125 L 19.78125 0 L 0 0 L 0 -27.703125 L 19.78125 -27.703125 L 19.78125 -23.734375 L 3.953125 -23.734375 L 3.953125 -15.828125 L 15.828125 -15.828125 L 15.828125 -11.859375 L 3.953125 -11.859375 Z M 3.953125 -3.953125 "/></g></g><g transform="translate(101.867254, 111.930893)"><g><path d="M 0 -27.703125 L 19.78125 -27.703125 L 19.78125 -23.734375 L 11.875 -23.734375 L 11.875 0 L 7.921875 0 L 7.921875 -23.734375 L 0 -23.734375 Z M 0 -27.703125 "/></g></g><g transform="translate(129.56662, 111.930893)"><g/></g><g transform="translate(141.426739, 111.930893)"><g><path d="M 15.828125 -3.953125 L 15.828125 0 L 0 0 L 0 -27.703125 L 15.828125 -27.703125 L 15.828125 -23.734375 L 19.78125 -23.734375 L 19.78125 -19.78125 L 23.734375 -19.78125 L 23.734375 -7.921875 L 19.78125 -7.921875 L 19.78125 -3.953125 Z M 15.78125 -23.734375 L 3.953125 -23.734375 L 3.953125 -3.953125 L 15.78125 -3.953125 L 15.78125 -7.921875 L 19.75 -7.921875 L 19.75 -19.78125 L 15.78125 -19.78125 Z M 15.78125 -23.734375 "/></g></g><g transform="translate(173.0666, 111.930893)"><g><path d="M 7.921875 -27.703125 L 15.84375 -27.703125 L 15.84375 -19.78125 L 19.78125 -19.78125 L 19.78125 -7.921875 L 23.734375 -7.921875 L 23.734375 0 L 19.78125 0 L 19.78125 -7.921875 L 3.953125 -7.921875 L 3.953125 -19.78125 L 7.921875 -19.78125 Z M 15.84375 -11.875 L 15.84375 -19.75 L 7.921875 -19.75 L 7.921875 -11.875 Z M 0 0 L 0 -7.921875 L 3.953125 -7.921875 L 3.953125 0 Z M 0 0 "/></g></g><g transform="translate(204.706461, 111.930893)"><g><path d="M 0 -27.703125 L 19.78125 -27.703125 L 19.78125 -23.734375 L 11.875 -23.734375 L 11.875 0 L 7.921875 0 L 7.921875 -23.734375 L 0 -23.734375 Z M 0 -27.703125 "/></g></g><g transform="translate(232.405826, 111.930893)"><g><path d="M 7.921875 -27.703125 L 15.84375 -27.703125 L 15.84375 -19.78125 L 19.78125 -19.78125 L 19.78125 -7.921875 L 23.734375 -7.921875 L 23.734375 0 L 19.78125 0 L 19.78125 -7.921875 L 3.953125 -7.921875 L 3.953125 -19.78125 L 7.921875 -19.78125 Z M 15.84375 -11.875 L 15.84375 -19.75 L 7.921875 -19.75 L 7.921875 -11.875 Z M 0 0 L 0 -7.921875 L 3.953125 -7.921875 L 3.953125 0 Z M 0 0 "/></g></g></g></g></g></g></g></g></g></mask><clipPath id="dde6b5ec20"><path d="M 0 0.769531 L 300 0.769531 L 300 144 L 0 144 Z M 0 0.769531 " clip-rule="nonzero"/></clipPath><clipPath id="a2ebea60d1"><rect x="0" width="300" y="0" height="144"/></clipPath><clipPath id="5bffa543b7"><rect x="0" width="300" y="0" height="144"/></clipPath><clipPath id="646eae7690"><rect x="0" width="300" y="0" height="144"/></clipPath><clipPath id="dd735745e5"><rect x="0" width="300" y="0" height="161"/></clipPath></defs><g clip-path="url(#3c6e16c4e6)"><g clip-path="url(#ee03bc7a80)"><path fill="url(#8071216a30)" d="M 65.507812 24.019531 L 65.507812 167.449219 L 234.390625 167.449219 L 234.390625 24.019531 Z M 65.507812 24.019531 " fill-rule="nonzero"/></g></g><g clip-path="url(#632f73c290)"><path stroke-linecap="round" transform="matrix(4.442618, 0, 0, 4.435232, 43.35702, -10.733142)" fill="none" stroke-linejoin="round" d="M 31.719232 38.77394 C 33.898937 38.781867 36.219324 39.920653 38.087768 40.243882 C 38.100957 40.247405 38.113267 40.249166 38.127335 40.251808 C 38.321653 40.285276 38.50542 40.295845 38.689187 40.309056 C 38.77008 40.31434 38.845697 40.332836 38.929227 40.332836 C 38.935382 40.332836 38.942416 40.331074 38.947692 40.331074 C 38.954726 40.331074 38.962639 40.332836 38.971432 40.332836 L 38.971432 40.294964 C 41.195979 40.294964 43.000236 38.491226 43.000236 36.265616 C 43.000236 36.264736 43.000236 36.263855 43.000236 36.262974 C 43.000236 36.262093 43.000236 36.262093 43.000236 36.261213 C 43.000236 36.253286 42.996719 36.245359 42.996719 36.237433 C 42.982651 34.119273 41.449208 31.521114 41.441295 29.661008 C 41.43514 28.366333 42.156139 26.439291 42.618634 25.338377 C 42.843727 24.802892 42.831417 24.195187 42.567637 23.678197 C 41.809708 22.185357 41.434261 20.940002 41.442174 19.321217 C 41.450967 17.476964 42.95979 14.892016 42.994961 12.799398 C 42.994961 12.77826 43.001116 12.758884 43.001116 12.737746 C 43.001116 12.735985 43.000236 12.734223 43.000236 12.733343 C 43.000236 12.7307 43.001116 12.728939 43.001116 12.727178 L 43.000236 12.727178 C 43.000236 10.501568 41.196858 8.69871 38.972311 8.69871 L 38.972311 8.667004 C 38.965277 8.667004 38.957364 8.668765 38.94945 8.668765 C 38.942416 8.668765 38.935382 8.667004 38.929227 8.667004 C 38.846576 8.667004 38.77008 8.68638 38.688308 8.690784 C 38.503661 8.703114 38.320774 8.714563 38.125576 8.748031 C 38.113267 8.750673 38.100957 8.753316 38.086889 8.755958 C 36.219324 9.079186 33.898937 10.217973 31.718353 10.225899 C 29.36895 10.232945 27.031856 9.804909 24.708831 8.942673 " stroke="#fe7c12" stroke-width="3" stroke-opacity="1" stroke-miterlimit="10"/></g><g clip-path="url(#52d19624d8)"><path stroke-linecap="round" transform="matrix(4.442618, 0, 0, 4.435232, 43.35702, -10.733142)" fill="none" stroke-linejoin="round" d="M 16.28105 10.225899 C 14.101346 10.217973 11.780079 9.079186 9.911635 8.755958 C 9.899326 8.753316 9.887016 8.749793 9.873827 8.74715 C 9.678629 8.714563 9.495742 8.703114 9.311975 8.690784 C 9.231082 8.68638 9.153707 8.667004 9.071055 8.667004 C 9.064901 8.667004 9.057866 8.668765 9.051712 8.668765 C 9.044677 8.668765 9.035885 8.667004 9.027971 8.667004 L 9.027971 8.69871 C 6.804303 8.697829 5.000046 10.501568 5.000046 12.727178 C 5.000046 12.728939 5.000925 12.731581 5.000925 12.733343 C 5.000925 12.735104 5.000046 12.735985 5.000046 12.737746 C 5.000046 12.758003 5.005322 12.775618 5.005322 12.794994 C 5.037855 14.890255 6.549316 17.475203 6.558108 19.320336 C 6.564263 20.643195 5.808093 22.623961 5.347357 23.708142 C 5.134574 24.206636 5.134574 24.762378 5.345598 25.260872 C 5.807214 26.346814 6.564263 28.334626 6.558108 29.661008 C 6.549316 31.521114 5.015873 34.119273 5.001805 36.237433 C 5.002684 36.24624 5.000046 36.254167 5.000046 36.262093 C 5.000046 36.262974 5.000046 36.262974 5.000046 36.263855 C 5.000046 36.264736 5.000046 36.265616 5.000046 36.267378 L 5.000925 36.267378 C 5.000925 38.492106 6.805183 40.295845 9.02973 40.295845 L 9.02973 40.333717 C 9.036764 40.333717 9.044677 40.331955 9.052591 40.331955 C 9.058746 40.331955 9.06578 40.333717 9.071935 40.333717 C 9.153707 40.333717 9.231082 40.315221 9.312854 40.309937 C 9.496621 40.297607 9.680388 40.286157 9.874706 40.252689 C 9.887895 40.250047 9.900205 40.248286 9.914273 40.244763 C 11.781838 39.922415 14.102225 38.782748 16.282809 38.774821 C 18.632212 38.767775 20.969306 39.195811 23.292331 40.058047 " stroke="#fe7c12" stroke-width="3" stroke-opacity="1" stroke-miterlimit="10"/></g><path fill="#fe7c12" d="M 132.210938 80.1875 C 132.210938 80.917969 132.136719 81.636719 131.996094 82.351562 C 131.855469 83.066406 131.644531 83.757812 131.363281 84.433594 C 131.085938 85.105469 130.742188 85.742188 130.335938 86.347656 C 129.933594 86.953125 129.472656 87.515625 128.957031 88.03125 C 128.441406 88.542969 127.878906 89.003906 127.273438 89.410156 C 126.667969 89.8125 126.027344 90.15625 125.351562 90.433594 C 124.679688 90.710938 123.984375 90.921875 123.269531 91.0625 C 122.554688 91.207031 121.832031 91.277344 121.101562 91.277344 C 120.375 91.277344 119.652344 91.207031 118.9375 91.0625 C 118.222656 90.921875 117.527344 90.710938 116.851562 90.433594 C 116.179688 90.15625 115.539062 89.8125 114.933594 89.410156 C 114.324219 89.003906 113.765625 88.542969 113.25 88.03125 C 112.734375 87.515625 112.273438 86.953125 111.867188 86.347656 C 111.464844 85.742188 111.121094 85.105469 110.839844 84.433594 C 110.5625 83.757812 110.351562 83.066406 110.210938 82.351562 C 110.066406 81.636719 109.996094 80.917969 109.996094 80.1875 C 109.996094 79.460938 110.066406 78.738281 110.210938 78.027344 C 110.351562 77.3125 110.5625 76.617188 110.839844 75.945312 C 111.121094 75.273438 111.464844 74.632812 111.867188 74.027344 C 112.273438 73.421875 112.734375 72.863281 113.25 72.347656 C 113.765625 71.832031 114.324219 71.375 114.933594 70.96875 C 115.539062 70.566406 116.179688 70.222656 116.851562 69.945312 C 117.527344 69.667969 118.222656 69.457031 118.9375 69.3125 C 119.652344 69.171875 120.375 69.101562 121.101562 69.101562 C 121.832031 69.101562 122.554688 69.171875 123.269531 69.3125 C 123.984375 69.457031 124.679688 69.667969 125.351562 69.945312 C 126.027344 70.222656 126.667969 70.566406 127.273438 70.96875 C 127.878906 71.375 128.441406 71.832031 128.957031 72.347656 C 129.472656 72.863281 129.933594 73.421875 130.335938 74.027344 C 130.742188 74.632812 131.085938 75.273438 131.363281 75.945312 C 131.644531 76.617188 131.855469 77.3125 131.996094 78.027344 C 132.136719 78.738281 132.210938 79.460938 132.210938 80.1875 Z M 132.210938 80.1875 " fill-opacity="1" fill-rule="nonzero"/><path fill="#fe7c12" d="M 189.964844 80.1875 C 189.964844 80.917969 189.890625 81.636719 189.75 82.351562 C 189.609375 83.066406 189.398438 83.757812 189.117188 84.433594 C 188.839844 85.105469 188.496094 85.742188 188.089844 86.347656 C 187.6875 86.953125 187.226562 87.515625 186.710938 88.03125 C 186.195312 88.542969 185.632812 89.003906 185.027344 89.410156 C 184.421875 89.8125 183.78125 90.15625 183.105469 90.433594 C 182.433594 90.710938 181.738281 90.921875 181.023438 91.0625 C 180.308594 91.207031 179.585938 91.277344 178.855469 91.277344 C 178.128906 91.277344 177.40625 91.207031 176.691406 91.0625 C 175.976562 90.921875 175.28125 90.710938 174.605469 90.433594 C 173.933594 90.15625 173.292969 89.8125 172.6875 89.410156 C 172.078125 89.003906 171.519531 88.542969 171.003906 88.03125 C 170.488281 87.515625 170.027344 86.953125 169.621094 86.347656 C 169.21875 85.742188 168.875 85.105469 168.597656 84.433594 C 168.316406 83.757812 168.105469 83.066406 167.964844 82.351562 C 167.820312 81.636719 167.75 80.917969 167.75 80.1875 C 167.75 79.460938 167.820312 78.738281 167.964844 78.027344 C 168.105469 77.3125 168.316406 76.617188 168.597656 75.945312 C 168.875 75.273438 169.21875 74.632812 169.621094 74.027344 C 170.027344 73.421875 170.488281 72.863281 171.003906 72.347656 C 171.519531 71.832031 172.078125 71.375 172.6875 70.96875 C 173.292969 70.566406 173.933594 70.222656 174.605469 69.945312 C 175.28125 69.667969 175.976562 69.457031 176.691406 69.3125 C 177.40625 69.171875 178.128906 69.101562 178.855469 69.101562 C 179.585938 69.101562 180.308594 69.171875 181.023438 69.3125 C 181.738281 69.457031 182.433594 69.667969 183.105469 69.945312 C 183.78125 70.222656 184.421875 70.566406 185.027344 70.96875 C 185.632812 71.375 186.195312 71.832031 186.710938 72.347656 C 187.226562 72.863281 187.6875 73.421875 188.089844 74.027344 C 188.496094 74.632812 188.839844 75.273438 189.117188 75.945312 C 189.398438 76.617188 189.609375 77.3125 189.75 78.027344 C 189.890625 78.738281 189.964844 79.460938 189.964844 80.1875 Z M 189.964844 80.1875 " fill-opacity="1" fill-rule="nonzero"/><g clip-path="url(#33b38a8eb2)"><path stroke-linecap="round" transform="matrix(4.442618, 0, 0, 4.435232, 43.35702, -10.733142)" fill="none" stroke-linejoin="miter" d="M 16.499988 30.500346 C 16.499988 30.500346 18.999746 27.499692 24.000141 27.499692 C 28.999657 27.499692 31.500294 30.500346 31.500294 30.500346 " stroke="#fe7c12" stroke-width="3" stroke-opacity="1" stroke-miterlimit="10"/></g><g transform="matrix(1, 0, 0, 1, 0, 139)"><g clip-path="url(#dd735745e5)"><g clip-path="url(#756bbb97ab)"><g transform="matrix(1, 0, 0, 1, 0, 0)"><g clip-path="url(#7bfc246962)"><g fill="#000000" fill-opacity="1"><g transform="translate(66.783973, 80.8835)"><g><path d="M 10.5 -17.214844 L 10.5 -12.46875 L 5.742188 -12.46875 L 5.742188 -14.371094 L 7.644531 -14.371094 L 7.644531 -5.714844 L 5.742188 -5.714844 L 5.742188 -7.613281 L 10.5 -7.613281 L 10.5 -2.871094 L 8.601562 -2.871094 L 8.601562 -4.773438 L 14.34375 -4.773438 L 14.34375 -2.871094 L 12.441406 -2.871094 L 12.441406 -7.644531 L 21.984375 -7.644531 L 21.984375 -0.972656 L 17.214844 -0.972656 L 17.214844 -2.871094 L 19.113281 -2.871094 L 19.113281 1.902344 L 3.84375 1.902344 L 3.84375 -2.871094 L 5.742188 -2.871094 L 5.742188 -0.972656 L 0.972656 -0.972656 L 0.972656 -5.742188 L 2.871094 -5.742188 L 2.871094 -3.84375 L -1.902344 -3.84375 L -1.902344 -16.242188 L 2.871094 -16.242188 L 2.871094 -14.34375 L 0.972656 -14.34375 L 0.972656 -19.113281 L 5.742188 -19.113281 L 5.742188 -17.214844 L 3.84375 -17.214844 L 3.84375 -21.984375 L 19.113281 -21.984375 L 19.113281 -17.214844 L 17.214844 -17.214844 L 17.214844 -19.113281 L 21.984375 -19.113281 L 21.984375 -12.441406 L 12.441406 -12.441406 L 12.441406 -17.214844 L 14.34375 -17.214844 L 14.34375 -15.3125 L 8.601562 -15.3125 L 8.601562 -17.214844 Z M 6.699219 -19.113281 L 16.242188 -19.113281 L 16.242188 -14.34375 L 14.34375 -14.34375 L 14.34375 -16.242188 L 20.085938 -16.242188 L 20.085938 -14.34375 L 18.183594 -14.34375 L 18.183594 -17.214844 L 20.085938 -17.214844 L 20.085938 -15.3125 L 15.3125 -15.3125 L 15.3125 -20.085938 L 17.214844 -20.085938 L 17.214844 -18.183594 L 5.742188 -18.183594 L 5.742188 -20.085938 L 7.644531 -20.085938 L 7.644531 -15.3125 L 2.871094 -15.3125 L 2.871094 -17.214844 L 4.773438 -17.214844 L 4.773438 -12.441406 L 0 -12.441406 L 0 -14.34375 L 1.902344 -14.34375 L 1.902344 -5.742188 L 0 -5.742188 L 0 -7.644531 L 4.773438 -7.644531 L 4.773438 -2.871094 L 2.871094 -2.871094 L 2.871094 -4.773438 L 7.644531 -4.773438 L 7.644531 0 L 5.742188 0 L 5.742188 -1.902344 L 17.214844 -1.902344 L 17.214844 0 L 15.3125 0 L 15.3125 -4.773438 L 20.085938 -4.773438 L 20.085938 -2.871094 L 18.183594 -2.871094 L 18.183594 -5.742188 L 20.085938 -5.742188 L 20.085938 -3.84375 L 14.34375 -3.84375 L 14.34375 -5.742188 L 16.242188 -5.742188 L 16.242188 -0.972656 L 6.699219 -0.972656 L 6.699219 -5.714844 L 8.601562 -5.714844 L 8.601562 -3.8125 L 3.84375 -3.8125 L 3.84375 -16.269531 L 8.601562 -16.269531 L 8.601562 -14.371094 L 6.699219 -14.371094 Z M 6.699219 -19.113281 "/></g></g></g><g fill="#000000" fill-opacity="1"><g transform="translate(91.73446, 80.8835)"><g><path d="M 0.972656 -14.34375 L 0.972656 -19.113281 L 5.742188 -19.113281 L 5.742188 -17.214844 L 3.84375 -17.214844 L 3.84375 -21.984375 L 19.113281 -21.984375 L 19.113281 -17.214844 L 17.214844 -17.214844 L 17.214844 -19.113281 L 21.984375 -19.113281 L 21.984375 -14.34375 L 20.085938 -14.34375 L 20.085938 -16.242188 L 24.84375 -16.242188 L 24.84375 -3.84375 L 20.085938 -3.84375 L 20.085938 -5.742188 L 21.984375 -5.742188 L 21.984375 -0.972656 L 17.214844 -0.972656 L 17.214844 -2.871094 L 19.113281 -2.871094 L 19.113281 1.902344 L 3.84375 1.902344 L 3.84375 -2.871094 L 5.742188 -2.871094 L 5.742188 -0.972656 L 0.972656 -0.972656 L 0.972656 -5.742188 L 2.871094 -5.742188 L 2.871094 -3.84375 L -1.902344 -3.84375 L -1.902344 -16.242188 L 2.871094 -16.242188 L 2.871094 -14.34375 Z M 4.773438 -12.441406 L 0 -12.441406 L 0 -14.34375 L 1.902344 -14.34375 L 1.902344 -5.742188 L 0 -5.742188 L 0 -7.644531 L 4.773438 -7.644531 L 4.773438 -2.871094 L 2.871094 -2.871094 L 2.871094 -4.773438 L 7.644531 -4.773438 L 7.644531 0 L 5.742188 0 L 5.742188 -1.902344 L 17.214844 -1.902344 L 17.214844 0 L 15.3125 0 L 15.3125 -4.773438 L 20.085938 -4.773438 L 20.085938 -2.871094 L 18.183594 -2.871094 L 18.183594 -7.644531 L 22.941406 -7.644531 L 22.941406 -5.742188 L 21.042969 -5.742188 L 21.042969 -14.34375 L 22.941406 -14.34375 L 22.941406 -12.441406 L 18.183594 -12.441406 L 18.183594 -17.214844 L 20.085938 -17.214844 L 20.085938 -15.3125 L 15.3125 -15.3125 L 15.3125 -20.085938 L 17.214844 -20.085938 L 17.214844 -18.183594 L 5.742188 -18.183594 L 5.742188 -20.085938 L 7.644531 -20.085938 L 7.644531 -15.3125 L 2.871094 -15.3125 L 2.871094 -17.214844 L 4.773438 -17.214844 Z M 12.441406 -14.34375 L 12.441406 -17.214844 L 14.34375 -17.214844 L 14.34375 -15.3125 L 8.601562 -15.3125 L 8.601562 -17.214844 L 10.5 -17.214844 L 10.5 -12.46875 L 5.742188 -12.46875 L 5.742188 -14.371094 L 7.644531 -14.371094 L 7.644531 -5.714844 L 5.742188 -5.714844 L 5.742188 -7.613281 L 10.5 -7.613281 L 10.5 -2.871094 L 8.601562 -2.871094 L 8.601562 -4.773438 L 14.34375 -4.773438 L 14.34375 -2.871094 L 12.441406 -2.871094 L 12.441406 -7.644531 L 17.214844 -7.644531 L 17.214844 -5.742188 L 15.3125 -5.742188 L 15.3125 -14.34375 L 17.214844 -14.34375 L 17.214844 -12.441406 L 12.441406 -12.441406 Z M 16.242188 -14.34375 L 14.34375 -14.34375 L 14.34375 -16.242188 L 19.113281 -16.242188 L 19.113281 -3.84375 L 14.34375 -3.84375 L 14.34375 -5.742188 L 16.242188 -5.742188 L 16.242188 -0.972656 L 6.699219 -0.972656 L 6.699219 -5.714844 L 8.601562 -5.714844 L 8.601562 -3.8125 L 3.84375 -3.8125 L 3.84375 -16.269531 L 8.601562 -16.269531 L 8.601562 -14.371094 L 6.699219 -14.371094 L 6.699219 -19.113281 L 16.242188 -19.113281 Z M 16.242188 -14.34375 "/></g></g></g><g fill="#000000" fill-opacity="1"><g transform="translate(119.556265, 80.8835)"><g><path d="M 2.871094 -0.972656 L -1.902344 -0.972656 L -1.902344 -21.984375 L 7.644531 -21.984375 L 7.644531 -2.871094 L 5.742188 -2.871094 L 5.742188 -4.773438 L 14.34375 -4.773438 L 14.34375 -2.871094 L 12.441406 -2.871094 L 12.441406 -21.984375 L 21.984375 -21.984375 L 21.984375 -0.972656 L 17.214844 -0.972656 L 17.214844 -2.871094 L 19.113281 -2.871094 L 19.113281 1.902344 L 0.972656 1.902344 L 0.972656 -2.871094 L 2.871094 -2.871094 Z M 4.773438 -4.773438 L 4.773438 0 L 2.871094 0 L 2.871094 -1.902344 L 17.214844 -1.902344 L 17.214844 0 L 15.3125 0 L 15.3125 -4.773438 L 20.085938 -4.773438 L 20.085938 -2.871094 L 18.183594 -2.871094 L 18.183594 -20.085938 L 20.085938 -20.085938 L 20.085938 -18.183594 L 14.34375 -18.183594 L 14.34375 -20.085938 L 16.242188 -20.085938 L 16.242188 -0.972656 L 3.84375 -0.972656 L 3.84375 -20.085938 L 5.742188 -20.085938 L 5.742188 -18.183594 L 0 -18.183594 L 0 -20.085938 L 1.902344 -20.085938 L 1.902344 -2.871094 L 0 -2.871094 L 0 -4.773438 Z M 4.773438 -4.773438 "/></g></g></g><g fill="#000000" fill-opacity="1"><g transform="translate(144.506752, 80.8835)"><g><path d="M 16.242188 -2.871094 L 16.242188 1.902344 L -1.902344 1.902344 L -1.902344 -21.984375 L 7.613281 -21.984375 L 7.613281 -2.871094 L 5.714844 -2.871094 L 5.714844 -4.773438 L 16.242188 -4.773438 Z M 12.441406 -2.871094 L 14.34375 -2.871094 L 14.34375 -0.972656 L 3.8125 -0.972656 L 3.8125 -20.085938 L 5.714844 -20.085938 L 5.714844 -18.183594 L 0 -18.183594 L 0 -20.085938 L 1.902344 -20.085938 L 1.902344 0 L 0 0 L 0 -1.902344 L 14.34375 -1.902344 L 14.34375 0 L 12.441406 0 Z M 12.441406 -2.871094 "/></g></g></g><g fill="#000000" fill-opacity="1"><g transform="translate(163.72861, 80.8835)"><g><path d="M 14.34375 -12.441406 L 9.570312 -12.441406 L 9.570312 -17.214844 L 11.472656 -17.214844 L 11.472656 -15.3125 L 5.742188 -15.3125 L 5.742188 -17.214844 L 7.644531 -17.214844 L 7.644531 -2.871094 L 5.742188 -2.871094 L 5.742188 -4.773438 L 11.472656 -4.773438 L 11.472656 -2.871094 L 9.570312 -2.871094 L 9.570312 -7.644531 L 14.34375 -7.644531 L 14.34375 -5.742188 L 12.441406 -5.742188 L 12.441406 -14.34375 L 14.34375 -14.34375 Z M 16.242188 -16.242188 L 16.242188 -3.84375 L 11.472656 -3.84375 L 11.472656 -5.742188 L 13.371094 -5.742188 L 13.371094 -0.972656 L 3.84375 -0.972656 L 3.84375 -19.113281 L 13.371094 -19.113281 L 13.371094 -14.34375 L 11.472656 -14.34375 L 11.472656 -16.242188 Z M 19.113281 -17.214844 L 19.113281 -14.34375 L 17.214844 -14.34375 L 17.214844 -16.242188 L 21.984375 -16.242188 L 21.984375 -3.84375 L 17.214844 -3.84375 L 17.214844 -5.742188 L 19.113281 -5.742188 L 19.113281 -0.972656 L 14.34375 -0.972656 L 14.34375 -2.871094 L 16.242188 -2.871094 L 16.242188 1.902344 L -1.902344 1.902344 L -1.902344 -21.984375 L 16.242188 -21.984375 L 16.242188 -17.214844 L 14.34375 -17.214844 L 14.34375 -19.113281 L 19.113281 -19.113281 Z M 15.3125 -17.214844 L 17.214844 -17.214844 L 17.214844 -15.3125 L 12.441406 -15.3125 L 12.441406 -20.085938 L 14.34375 -20.085938 L 14.34375 -18.183594 L 0 -18.183594 L 0 -20.085938 L 1.902344 -20.085938 L 1.902344 0 L 0 0 L 0 -1.902344 L 14.34375 -1.902344 L 14.34375 0 L 12.441406 0 L 12.441406 -4.773438 L 17.214844 -4.773438 L 17.214844 -2.871094 L 15.3125 -2.871094 L 15.3125 -7.644531 L 20.085938 -7.644531 L 20.085938 -5.742188 L 18.183594 -5.742188 L 18.183594 -14.34375 L 20.085938 -14.34375 L 20.085938 -12.441406 L 15.3125 -12.441406 Z M 15.3125 -17.214844 "/></g></g></g><g fill="#000000" fill-opacity="1"><g transform="translate(188.679097, 80.8835)"><g><path d="M 21.984375 -20.085938 L 21.984375 1.902344 L 12.441406 1.902344 L 12.441406 -5.742188 L 14.34375 -5.742188 L 14.34375 -3.84375 L 9.570312 -3.84375 L 9.570312 -8.601562 L 11.472656 -8.601562 L 11.472656 -6.699219 L 6.699219 -6.699219 L 6.699219 -11.472656 L 8.601562 -11.472656 L 8.601562 -9.570312 L 5.742188 -9.570312 L 5.742188 -11.472656 L 7.644531 -11.472656 L 7.644531 1.902344 L -1.902344 1.902344 L -1.902344 -21.984375 L 7.644531 -21.984375 L 7.644531 -17.214844 L 5.742188 -17.214844 L 5.742188 -19.113281 L 10.5 -19.113281 L 10.5 -14.34375 L 8.601562 -14.34375 L 8.601562 -16.242188 L 13.371094 -16.242188 L 13.371094 -11.472656 L 11.472656 -11.472656 L 11.472656 -13.371094 L 14.34375 -13.371094 L 14.34375 -11.472656 L 12.441406 -11.472656 L 12.441406 -21.984375 L 21.984375 -21.984375 Z M 18.183594 -20.085938 L 20.085938 -20.085938 L 20.085938 -18.183594 L 14.34375 -18.183594 L 14.34375 -20.085938 L 16.242188 -20.085938 L 16.242188 -9.570312 L 9.570312 -9.570312 L 9.570312 -14.34375 L 11.472656 -14.34375 L 11.472656 -12.441406 L 6.699219 -12.441406 L 6.699219 -17.214844 L 8.601562 -17.214844 L 8.601562 -15.3125 L 3.84375 -15.3125 L 3.84375 -20.085938 L 5.742188 -20.085938 L 5.742188 -18.183594 L 0 -18.183594 L 0 -20.085938 L 1.902344 -20.085938 L 1.902344 0 L 0 0 L 0 -1.902344 L 5.742188 -1.902344 L 5.742188 0 L 3.84375 0 L 3.84375 -13.371094 L 10.5 -13.371094 L 10.5 -8.601562 L 8.601562 -8.601562 L 8.601562 -10.5 L 13.371094 -10.5 L 13.371094 -5.742188 L 11.472656 -5.742188 L 11.472656 -7.644531 L 16.242188 -7.644531 L 16.242188 0 L 14.34375 0 L 14.34375 -1.902344 L 20.085938 -1.902344 L 20.085938 0 L 18.183594 0 Z M 18.183594 -20.085938 "/></g></g></g><g fill="#000000" fill-opacity="1"><g transform="translate(213.629584, 80.8835)"><g><path d="M 0 -21.984375 L 7.644531 -21.984375 L 7.644531 -12.441406 L 2.871094 -12.441406 L 2.871094 -14.34375 L 4.773438 -14.34375 L 4.773438 -9.570312 L -1.902344 -9.570312 L -1.902344 -21.984375 Z M 0 -18.183594 L 0 -20.085938 L 1.902344 -20.085938 L 1.902344 -11.472656 L 0 -11.472656 L 0 -13.371094 L 2.871094 -13.371094 L 2.871094 -11.472656 L 0.972656 -11.472656 L 0.972656 -16.242188 L 5.742188 -16.242188 L 5.742188 -14.34375 L 3.84375 -14.34375 L 3.84375 -20.085938 L 5.742188 -20.085938 L 5.742188 -18.183594 Z M 0 -18.183594 "/></g></g></g><g fill="#000000" fill-opacity="1"><g transform="translate(224.237491, 80.8835)"><g><path d="M 0 -21.984375 L 19.113281 -21.984375 L 19.113281 -15.3125 L 11.484375 -15.3125 L 11.484375 -17.214844 L 13.386719 -17.214844 L 13.386719 1.902344 L 3.84375 1.902344 L 3.84375 -17.214844 L 5.742188 -17.214844 L 5.742188 -15.3125 L -1.902344 -15.3125 L -1.902344 -21.984375 Z M 0 -18.183594 L 0 -20.085938 L 1.902344 -20.085938 L 1.902344 -17.214844 L 0 -17.214844 L 0 -19.113281 L 7.644531 -19.113281 L 7.644531 0 L 5.742188 0 L 5.742188 -1.902344 L 11.484375 -1.902344 L 11.484375 0 L 9.585938 0 L 9.585938 -19.113281 L 17.214844 -19.113281 L 17.214844 -17.214844 L 15.3125 -17.214844 L 15.3125 -20.085938 L 17.214844 -20.085938 L 17.214844 -18.183594 Z M 0 -18.183594 "/></g></g></g><g clip-path="url(#0002372acc)"><g transform="matrix(1, 0, 0, 1, 0, 0)"><g clip-path="url(#6d36b7705f)"><g clip-path="url(#6e630db8bc)"><g mask="url(#0f3093cbc9)"><g transform="matrix(1, 0, 0, 1, 0, 0)"><g clip-path="url(#4919fc8310)"><g clip-path="url(#d5c32f38e7)"><path fill="url(#9f5cc17328)" d="M 9.480469 0.277344 L 9.480469 141.410156 L 300 141.410156 L 300 0.277344 Z M 9.480469 0.277344 " fill-rule="nonzero"/></g></g></g></g></g></g></g></g></g></g></g><g transform="matrix(1, 0, 0, 1, 0, 17)"><g clip-path="url(#646eae7690)"><g fill="#000000" fill-opacity="1"><g transform="translate(42.528028, 111.930893)"><g><path d="M 11.859375 -17.476562 L 25.394531 -17.476562 L 25.394531 1.65625 L 6.261719 1.65625 L 6.261719 -3.960938 L 7.917969 -3.960938 L 7.917969 -2.304688 L 2.304688 -2.304688 L 2.304688 -9.539062 L 9.578125 -9.539062 L 9.578125 -3.960938 L 7.917969 -3.960938 L 7.917969 -5.617188 L 19.78125 -5.617188 L 19.78125 -3.960938 L 18.125 -3.960938 L 18.125 -11.859375 L 19.78125 -11.859375 L 19.78125 -10.203125 L 10.203125 -10.203125 L 10.203125 -17.476562 Z M 11.859375 -14.164062 L 11.859375 -15.820312 L 13.515625 -15.820312 L 13.515625 -11.859375 L 11.859375 -11.859375 L 11.859375 -13.515625 L 21.4375 -13.515625 L 21.4375 -2.304688 L 6.261719 -2.304688 L 6.261719 -7.882812 L 7.917969 -7.882812 L 7.917969 -6.222656 L 3.960938 -6.222656 L 3.960938 -7.882812 L 5.617188 -7.882812 L 5.617188 -3.960938 L 3.960938 -3.960938 L 3.960938 -5.617188 L 9.578125 -5.617188 L 9.578125 0 L 7.917969 0 L 7.917969 -1.65625 L 23.738281 -1.65625 L 23.738281 0 L 22.082031 0 L 22.082031 -15.820312 L 23.738281 -15.820312 L 23.738281 -14.164062 Z M 25.394531 -23.738281 L 25.394531 -18.125 L 18.125 -18.125 L 18.125 -23.738281 L 19.78125 -23.738281 L 19.78125 -22.082031 L 6.261719 -22.082031 L 6.261719 -29.355469 L 21.4375 -29.355469 L 21.4375 -23.738281 L 19.78125 -23.738281 L 19.78125 -25.394531 L 25.394531 -25.394531 Z M 22.082031 -23.738281 L 23.738281 -23.738281 L 23.738281 -22.082031 L 18.125 -22.082031 L 18.125 -27.699219 L 19.78125 -27.699219 L 19.78125 -26.042969 L 7.917969 -26.042969 L 7.917969 -27.699219 L 9.578125 -27.699219 L 9.578125 -23.738281 L 7.917969 -23.738281 L 7.917969 -25.394531 L 21.4375 -25.394531 L 21.4375 -19.78125 L 19.78125 -19.78125 L 19.78125 -21.4375 L 23.738281 -21.4375 L 23.738281 -19.78125 L 22.082031 -19.78125 Z M 5.617188 -19.78125 L 5.617188 -6.261719 L -1.65625 -6.261719 L -1.65625 -21.4375 L 5.617188 -21.4375 Z M 2.304688 -19.78125 L 3.960938 -19.78125 L 3.960938 -18.125 L 0 -18.125 L 0 -19.78125 L 1.65625 -19.78125 L 1.65625 -7.917969 L 0 -7.917969 L 0 -9.578125 L 3.960938 -9.578125 L 3.960938 -7.917969 L 2.304688 -7.917969 Z M 7.917969 -18.160156 L 2.304688 -18.160156 L 2.304688 -25.394531 L 9.578125 -25.394531 L 9.578125 -18.160156 Z M 7.917969 -21.476562 L 7.917969 -19.820312 L 6.261719 -19.820312 L 6.261719 -23.738281 L 7.917969 -23.738281 L 7.917969 -22.082031 L 3.960938 -22.082031 L 3.960938 -23.738281 L 5.617188 -23.738281 L 5.617188 -19.820312 L 3.960938 -19.820312 L 3.960938 -21.476562 Z M 7.917969 -21.476562 "/></g></g></g><g fill="#000000" fill-opacity="1"><g transform="translate(74.167889, 111.930893)"><g><path d="M 3.960938 -5.617188 L 21.4375 -5.617188 L 21.4375 1.65625 L -1.65625 1.65625 L -1.65625 -29.355469 L 21.4375 -29.355469 L 21.4375 -22.082031 L 3.960938 -22.082031 L 3.960938 -23.738281 L 5.617188 -23.738281 L 5.617188 -15.820312 L 3.960938 -15.820312 L 3.960938 -17.476562 L 17.476562 -17.476562 L 17.476562 -10.203125 L 3.960938 -10.203125 L 3.960938 -11.859375 L 5.617188 -11.859375 L 5.617188 -3.960938 L 3.960938 -3.960938 Z M 2.304688 -2.304688 L 2.304688 -13.515625 L 15.820312 -13.515625 L 15.820312 -11.859375 L 14.164062 -11.859375 L 14.164062 -15.820312 L 15.820312 -15.820312 L 15.820312 -14.164062 L 2.304688 -14.164062 L 2.304688 -25.394531 L 19.78125 -25.394531 L 19.78125 -23.738281 L 18.125 -23.738281 L 18.125 -27.699219 L 19.78125 -27.699219 L 19.78125 -26.042969 L 0 -26.042969 L 0 -27.699219 L 1.65625 -27.699219 L 1.65625 0 L 0 0 L 0 -1.65625 L 19.78125 -1.65625 L 19.78125 0 L 18.125 0 L 18.125 -3.960938 L 19.78125 -3.960938 L 19.78125 -2.304688 Z M 2.304688 -2.304688 "/></g></g></g><g fill="#000000" fill-opacity="1"><g transform="translate(101.867254, 111.930893)"><g><path d="M 0 -29.355469 L 21.4375 -29.355469 L 21.4375 -22.082031 L 11.878906 -22.082031 L 11.878906 -23.738281 L 13.535156 -23.738281 L 13.535156 1.65625 L 6.261719 1.65625 L 6.261719 -23.738281 L 7.917969 -23.738281 L 7.917969 -22.082031 L -1.65625 -22.082031 L -1.65625 -29.355469 Z M 0 -26.042969 L 0 -27.699219 L 1.65625 -27.699219 L 1.65625 -23.738281 L 0 -23.738281 L 0 -25.394531 L 9.578125 -25.394531 L 9.578125 0 L 7.917969 0 L 7.917969 -1.65625 L 11.878906 -1.65625 L 11.878906 0 L 10.222656 0 L 10.222656 -25.394531 L 19.78125 -25.394531 L 19.78125 -23.738281 L 18.125 -23.738281 L 18.125 -27.699219 L 19.78125 -27.699219 L 19.78125 -26.042969 Z M 0 -26.042969 "/></g></g></g><g fill="#000000" fill-opacity="1"><g transform="translate(129.56662, 111.930893)"><g/></g></g><g fill="#000000" fill-opacity="1"><g transform="translate(141.426739, 111.930893)"><g><path d="M 17.476562 -3.960938 L 17.476562 1.65625 L -1.65625 1.65625 L -1.65625 -29.355469 L 17.476562 -29.355469 L 17.476562 -23.738281 L 15.820312 -23.738281 L 15.820312 -25.394531 L 21.4375 -25.394531 L 21.4375 -19.78125 L 19.78125 -19.78125 L 19.78125 -21.4375 L 25.394531 -21.4375 L 25.394531 -6.261719 L 19.78125 -6.261719 L 19.78125 -7.917969 L 21.4375 -7.917969 L 21.4375 -2.304688 L 15.820312 -2.304688 L 15.820312 -3.960938 Z M 14.164062 -5.617188 L 19.78125 -5.617188 L 19.78125 -3.960938 L 18.125 -3.960938 L 18.125 -9.578125 L 23.738281 -9.578125 L 23.738281 -7.917969 L 22.082031 -7.917969 L 22.082031 -19.78125 L 23.738281 -19.78125 L 23.738281 -18.125 L 18.125 -18.125 L 18.125 -23.738281 L 19.78125 -23.738281 L 19.78125 -22.082031 L 14.164062 -22.082031 L 14.164062 -27.699219 L 15.820312 -27.699219 L 15.820312 -26.042969 L 0 -26.042969 L 0 -27.699219 L 1.65625 -27.699219 L 1.65625 0 L 0 0 L 0 -1.65625 L 15.820312 -1.65625 L 15.820312 0 L 14.164062 0 Z M 15.78125 -22.082031 L 3.960938 -22.082031 L 3.960938 -23.738281 L 5.617188 -23.738281 L 5.617188 -3.960938 L 3.960938 -3.960938 L 3.960938 -5.617188 L 15.78125 -5.617188 L 15.78125 -3.960938 L 14.125 -3.960938 L 14.125 -9.578125 L 19.742188 -9.578125 L 19.742188 -7.917969 L 18.085938 -7.917969 L 18.085938 -19.78125 L 19.742188 -19.78125 L 19.742188 -18.125 L 14.125 -18.125 L 14.125 -23.738281 L 15.78125 -23.738281 Z M 17.4375 -25.394531 L 17.4375 -19.78125 L 15.78125 -19.78125 L 15.78125 -21.4375 L 21.398438 -21.4375 L 21.398438 -6.261719 L 15.78125 -6.261719 L 15.78125 -7.917969 L 17.4375 -7.917969 L 17.4375 -2.304688 L 2.304688 -2.304688 L 2.304688 -25.394531 Z M 17.4375 -25.394531 "/></g></g></g><g fill="#000000" fill-opacity="1"><g transform="translate(173.0666, 111.930893)"><g><path d="M 7.917969 -29.355469 L 17.496094 -29.355469 L 17.496094 -19.78125 L 15.839844 -19.78125 L 15.839844 -21.4375 L 21.4375 -21.4375 L 21.4375 -7.917969 L 19.78125 -7.917969 L 19.78125 -9.578125 L 25.394531 -9.578125 L 25.394531 1.65625 L 18.125 1.65625 L 18.125 -7.917969 L 19.78125 -7.917969 L 19.78125 -6.261719 L 2.304688 -6.261719 L 2.304688 -21.4375 L 7.917969 -21.4375 L 7.917969 -19.78125 L 6.261719 -19.78125 L 6.261719 -29.355469 Z M 7.917969 -26.042969 L 7.917969 -27.699219 L 9.578125 -27.699219 L 9.578125 -18.125 L 3.960938 -18.125 L 3.960938 -19.78125 L 5.617188 -19.78125 L 5.617188 -7.917969 L 3.960938 -7.917969 L 3.960938 -9.578125 L 21.4375 -9.578125 L 21.4375 0 L 19.78125 0 L 19.78125 -1.65625 L 23.738281 -1.65625 L 23.738281 0 L 22.082031 0 L 22.082031 -7.917969 L 23.738281 -7.917969 L 23.738281 -6.261719 L 18.125 -6.261719 L 18.125 -19.78125 L 19.78125 -19.78125 L 19.78125 -18.125 L 14.183594 -18.125 L 14.183594 -27.699219 L 15.839844 -27.699219 L 15.839844 -26.042969 Z M 14.183594 -11.878906 L 14.183594 -19.742188 L 15.839844 -19.742188 L 15.839844 -18.085938 L 7.917969 -18.085938 L 7.917969 -19.742188 L 9.578125 -19.742188 L 9.578125 -11.878906 L 7.917969 -11.878906 L 7.917969 -13.535156 L 15.839844 -13.535156 L 15.839844 -11.878906 Z M 17.496094 -10.222656 L 6.261719 -10.222656 L 6.261719 -21.398438 L 17.496094 -21.398438 Z M -1.65625 0 L -1.65625 -9.578125 L 5.617188 -9.578125 L 5.617188 1.65625 L -1.65625 1.65625 Z M 1.65625 0 L 0 0 L 0 -1.65625 L 3.960938 -1.65625 L 3.960938 0 L 2.304688 0 L 2.304688 -7.917969 L 3.960938 -7.917969 L 3.960938 -6.261719 L 0 -6.261719 L 0 -7.917969 L 1.65625 -7.917969 Z M 1.65625 0 "/></g></g></g><g fill="#000000" fill-opacity="1"><g transform="translate(204.706461, 111.930893)"><g><path d="M 0 -29.355469 L 21.4375 -29.355469 L 21.4375 -22.082031 L 11.878906 -22.082031 L 11.878906 -23.738281 L 13.535156 -23.738281 L 13.535156 1.65625 L 6.261719 1.65625 L 6.261719 -23.738281 L 7.917969 -23.738281 L 7.917969 -22.082031 L -1.65625 -22.082031 L -1.65625 -29.355469 Z M 0 -26.042969 L 0 -27.699219 L 1.65625 -27.699219 L 1.65625 -23.738281 L 0 -23.738281 L 0 -25.394531 L 9.578125 -25.394531 L 9.578125 0 L 7.917969 0 L 7.917969 -1.65625 L 11.878906 -1.65625 L 11.878906 0 L 10.222656 0 L 10.222656 -25.394531 L 19.78125 -25.394531 L 19.78125 -23.738281 L 18.125 -23.738281 L 18.125 -27.699219 L 19.78125 -27.699219 L 19.78125 -26.042969 Z M 0 -26.042969 "/></g></g></g><g fill="#000000" fill-opacity="1"><g transform="translate(232.405827, 111.930893)"><g><path d="M 7.917969 -29.355469 L 17.496094 -29.355469 L 17.496094 -19.78125 L 15.839844 -19.78125 L 15.839844 -21.4375 L 21.4375 -21.4375 L 21.4375 -7.917969 L 19.78125 -7.917969 L 19.78125 -9.578125 L 25.394531 -9.578125 L 25.394531 1.65625 L 18.125 1.65625 L 18.125 -7.917969 L 19.78125 -7.917969 L 19.78125 -6.261719 L 2.304688 -6.261719 L 2.304688 -21.4375 L 7.917969 -21.4375 L 7.917969 -19.78125 L 6.261719 -19.78125 L 6.261719 -29.355469 Z M 7.917969 -26.042969 L 7.917969 -27.699219 L 9.578125 -27.699219 L 9.578125 -18.125 L 3.960938 -18.125 L 3.960938 -19.78125 L 5.617188 -19.78125 L 5.617188 -7.917969 L 3.960938 -7.917969 L 3.960938 -9.578125 L 21.4375 -9.578125 L 21.4375 0 L 19.78125 0 L 19.78125 -1.65625 L 23.738281 -1.65625 L 23.738281 0 L 22.082031 0 L 22.082031 -7.917969 L 23.738281 -7.917969 L 23.738281 -6.261719 L 18.125 -6.261719 L 18.125 -19.78125 L 19.78125 -19.78125 L 19.78125 -18.125 L 14.183594 -18.125 L 14.183594 -27.699219 L 15.839844 -27.699219 L 15.839844 -26.042969 Z M 14.183594 -11.878906 L 14.183594 -19.742188 L 15.839844 -19.742188 L 15.839844 -18.085938 L 7.917969 -18.085938 L 7.917969 -19.742188 L 9.578125 -19.742188 L 9.578125 -11.878906 L 7.917969 -11.878906 L 7.917969 -13.535156 L 15.839844 -13.535156 L 15.839844 -11.878906 Z M 17.496094 -10.222656 L 6.261719 -10.222656 L 6.261719 -21.398438 L 17.496094 -21.398438 Z M -1.65625 0 L -1.65625 -9.578125 L 5.617188 -9.578125 L 5.617188 1.65625 L -1.65625 1.65625 Z M 1.65625 0 L 0 0 L 0 -1.65625 L 3.960938 -1.65625 L 3.960938 0 L 2.304688 0 L 2.304688 -7.917969 L 3.960938 -7.917969 L 3.960938 -6.261719 L 0 -6.261719 L 0 -7.917969 L 1.65625 -7.917969 Z M 1.65625 0 "/></g></g></g><g clip-path="url(#3abdb4f8a6)"><g transform="matrix(1, 0, 0, 1, 0, 0.000000000000028422)"><g clip-path="url(#5bffa543b7)"><g clip-path="url(#7b25ad6b11)"><g mask="url(#d7b9426d61)"><g transform="matrix(1, 0, 0, 1, 0, 0.000000000000028422)"><g clip-path="url(#a2ebea60d1)"><g clip-path="url(#dde6b5ec20)"><path fill="url(#256b789ee1)" d="M 0 0.769531 L 0 144 L 300 144 L 300 0.769531 Z M 0 0.769531 " fill-rule="nonzero"/></g></g></g></g></g></g></g></g></g></g></g></g></svg>