<svg xmlns="http://www.w3.org/2000/svg" xmlns:xlink="http://www.w3.org/1999/xlink" width="400" zoomAndPan="magnify" viewBox="0 0 300 299.999988" height="400" preserveAspectRatio="xMidYMid meet" version="1.0"><defs><filter x="0%" y="0%" width="100%" height="100%" id="e622c3fb75"><feColorMatrix values="0 0 0 0 1 0 0 0 0 1 0 0 0 0 1 0 0 0 1 0" color-interpolation-filters="sRGB"/></filter><g/><clipPath id="49485d1094"><path d="M 0 0 L 300 0 L 300 63.53125 L 0 63.53125 Z M 0 0 " clip-rule="nonzero"/></clipPath><clipPath id="abdae0dd72"><path d="M 0 0 L 300 0 L 300 63.53125 L 0 63.53125 Z M 0 0 " clip-rule="nonzero"/></clipPath><clipPath id="0d17130a3b"><path d="M 0 0 L 300 0 L 300 63.53125 L 0 63.53125 Z M 0 0 " clip-rule="nonzero"/></clipPath><linearGradient x1="3.861596" gradientTransform="matrix(0.103798, 0, 0, 0.10381, -0.400819, 2.906693)" y1="92" x2="2894.095885" gradientUnits="userSpaceOnUse" y2="92" id="550800f453"><stop stop-opacity="1" stop-color="rgb(100%, 19.219971%, 19.219971%)" offset="0"/><stop stop-opacity="1" stop-color="rgb(100%, 19.219971%, 19.219971%)" offset="0.015625"/><stop stop-opacity="1" stop-color="rgb(100%, 19.320679%, 19.248962%)" offset="0.0234375"/><stop stop-opacity="1" stop-color="rgb(100%, 19.572449%, 19.322205%)" offset="0.03125"/><stop stop-opacity="1" stop-color="rgb(100%, 19.876099%, 19.410706%)" offset="0.0390625"/><stop stop-opacity="1" stop-color="rgb(100%, 20.179749%, 19.499207%)" offset="0.046875"/><stop stop-opacity="1" stop-color="rgb(100%, 20.483398%, 19.587708%)" offset="0.0546875"/><stop stop-opacity="1" stop-color="rgb(100%, 20.787048%, 19.676208%)" offset="0.0625"/><stop stop-opacity="1" stop-color="rgb(100%, 21.090698%, 19.766235%)" offset="0.0703125"/><stop stop-opacity="1" stop-color="rgb(100%, 21.394348%, 19.854736%)" offset="0.078125"/><stop stop-opacity="1" stop-color="rgb(100%, 21.697998%, 19.943237%)" offset="0.0859375"/><stop stop-opacity="1" stop-color="rgb(100%, 22.001648%, 20.031738%)" offset="0.09375"/><stop stop-opacity="1" stop-color="rgb(100%, 22.305298%, 20.120239%)" offset="0.101563"/><stop stop-opacity="1" stop-color="rgb(100%, 22.608948%, 20.20874%)" offset="0.109375"/><stop stop-opacity="1" stop-color="rgb(100%, 22.912598%, 20.297241%)" offset="0.117188"/><stop stop-opacity="1" stop-color="rgb(100%, 23.216248%, 20.385742%)" offset="0.125"/><stop stop-opacity="1" stop-color="rgb(100%, 23.519897%, 20.474243%)" offset="0.132813"/><stop stop-opacity="1" stop-color="rgb(100%, 23.823547%, 20.562744%)" offset="0.140625"/><stop stop-opacity="1" stop-color="rgb(100%, 24.127197%, 20.651245%)" offset="0.148438"/><stop stop-opacity="1" stop-color="rgb(100%, 24.430847%, 20.739746%)" offset="0.15625"/><stop stop-opacity="1" stop-color="rgb(100%, 24.734497%, 20.828247%)" offset="0.164062"/><stop stop-opacity="1" stop-color="rgb(100%, 25.038147%, 20.916748%)" offset="0.171875"/><stop stop-opacity="1" stop-color="rgb(100%, 25.341797%, 21.005249%)" offset="0.179688"/><stop stop-opacity="1" stop-color="rgb(100%, 25.645447%, 21.09375%)" offset="0.1875"/><stop stop-opacity="1" stop-color="rgb(100%, 25.949097%, 21.182251%)" offset="0.195312"/><stop stop-opacity="1" stop-color="rgb(100%, 26.252747%, 21.270752%)" offset="0.203125"/><stop stop-opacity="1" stop-color="rgb(100%, 26.556396%, 21.359253%)" offset="0.210938"/><stop stop-opacity="1" stop-color="rgb(100%, 26.860046%, 21.447754%)" offset="0.21875"/><stop stop-opacity="1" stop-color="rgb(100%, 27.163696%, 21.536255%)" offset="0.226563"/><stop stop-opacity="1" stop-color="rgb(100%, 27.467346%, 21.624756%)" offset="0.234375"/><stop stop-opacity="1" stop-color="rgb(100%, 27.770996%, 21.713257%)" offset="0.242188"/><stop stop-opacity="1" stop-color="rgb(100%, 28.074646%, 21.801758%)" offset="0.25"/><stop stop-opacity="1" stop-color="rgb(100%, 28.378296%, 21.890259%)" offset="0.257812"/><stop stop-opacity="1" stop-color="rgb(100%, 28.68042%, 21.980286%)" offset="0.265625"/><stop stop-opacity="1" stop-color="rgb(100%, 28.98407%, 22.068787%)" offset="0.273438"/><stop stop-opacity="1" stop-color="rgb(100%, 29.28772%, 22.157288%)" offset="0.28125"/><stop stop-opacity="1" stop-color="rgb(100%, 29.59137%, 22.245789%)" offset="0.289063"/><stop stop-opacity="1" stop-color="rgb(100%, 29.89502%, 22.33429%)" offset="0.296875"/><stop stop-opacity="1" stop-color="rgb(100%, 30.198669%, 22.422791%)" offset="0.304688"/><stop stop-opacity="1" stop-color="rgb(100%, 30.502319%, 22.511292%)" offset="0.3125"/><stop stop-opacity="1" stop-color="rgb(100%, 30.805969%, 22.599792%)" offset="0.320312"/><stop stop-opacity="1" stop-color="rgb(100%, 31.109619%, 22.688293%)" offset="0.328125"/><stop stop-opacity="1" stop-color="rgb(100%, 31.413269%, 22.776794%)" offset="0.335938"/><stop stop-opacity="1" stop-color="rgb(100%, 31.716919%, 22.865295%)" offset="0.34375"/><stop stop-opacity="1" stop-color="rgb(100%, 32.020569%, 22.953796%)" offset="0.351563"/><stop stop-opacity="1" stop-color="rgb(100%, 32.324219%, 23.042297%)" offset="0.359375"/><stop stop-opacity="1" stop-color="rgb(100%, 32.627869%, 23.130798%)" offset="0.367188"/><stop stop-opacity="1" stop-color="rgb(100%, 32.931519%, 23.219299%)" offset="0.375"/><stop stop-opacity="1" stop-color="rgb(100%, 33.235168%, 23.3078%)" offset="0.382813"/><stop stop-opacity="1" stop-color="rgb(100%, 33.538818%, 23.396301%)" offset="0.390625"/><stop stop-opacity="1" stop-color="rgb(100%, 33.842468%, 23.484802%)" offset="0.398438"/><stop stop-opacity="1" stop-color="rgb(100%, 34.146118%, 23.573303%)" offset="0.40625"/><stop stop-opacity="1" stop-color="rgb(100%, 34.449768%, 23.661804%)" offset="0.414062"/><stop stop-opacity="1" stop-color="rgb(100%, 34.753418%, 23.750305%)" offset="0.421875"/><stop stop-opacity="1" stop-color="rgb(100%, 35.057068%, 23.838806%)" offset="0.429688"/><stop stop-opacity="1" stop-color="rgb(100%, 35.360718%, 23.927307%)" offset="0.4375"/><stop stop-opacity="1" stop-color="rgb(100%, 35.664368%, 24.015808%)" offset="0.445313"/><stop stop-opacity="1" stop-color="rgb(100%, 35.968018%, 24.105835%)" offset="0.453125"/><stop stop-opacity="1" stop-color="rgb(100%, 36.271667%, 24.194336%)" offset="0.460938"/><stop stop-opacity="1" stop-color="rgb(100%, 36.575317%, 24.282837%)" offset="0.46875"/><stop stop-opacity="1" stop-color="rgb(100%, 36.878967%, 24.371338%)" offset="0.476563"/><stop stop-opacity="1" stop-color="rgb(100%, 37.182617%, 24.459839%)" offset="0.484375"/><stop stop-opacity="1" stop-color="rgb(100%, 37.486267%, 24.54834%)" offset="0.492188"/><stop stop-opacity="1" stop-color="rgb(100%, 37.788391%, 24.636841%)" offset="0.5"/><stop stop-opacity="1" stop-color="rgb(100%, 38.092041%, 24.725342%)" offset="0.507812"/><stop stop-opacity="1" stop-color="rgb(100%, 38.395691%, 24.813843%)" offset="0.515625"/><stop stop-opacity="1" stop-color="rgb(100%, 38.699341%, 24.902344%)" offset="0.523438"/><stop stop-opacity="1" stop-color="rgb(100%, 39.002991%, 24.990845%)" offset="0.53125"/><stop stop-opacity="1" stop-color="rgb(100%, 39.306641%, 25.079346%)" offset="0.539063"/><stop stop-opacity="1" stop-color="rgb(100%, 39.610291%, 25.167847%)" offset="0.546875"/><stop stop-opacity="1" stop-color="rgb(100%, 39.91394%, 25.256348%)" offset="0.554688"/><stop stop-opacity="1" stop-color="rgb(100%, 40.21759%, 25.344849%)" offset="0.5625"/><stop stop-opacity="1" stop-color="rgb(100%, 40.52124%, 25.43335%)" offset="0.570312"/><stop stop-opacity="1" stop-color="rgb(100%, 40.82489%, 25.521851%)" offset="0.578125"/><stop stop-opacity="1" stop-color="rgb(100%, 41.12854%, 25.610352%)" offset="0.585938"/><stop stop-opacity="1" stop-color="rgb(100%, 41.43219%, 25.698853%)" offset="0.59375"/><stop stop-opacity="1" stop-color="rgb(100%, 41.73584%, 25.787354%)" offset="0.601562"/><stop stop-opacity="1" stop-color="rgb(100%, 42.03949%, 25.875854%)" offset="0.609375"/><stop stop-opacity="1" stop-color="rgb(100%, 42.34314%, 25.964355%)" offset="0.617188"/><stop stop-opacity="1" stop-color="rgb(100%, 42.64679%, 26.052856%)" offset="0.625"/><stop stop-opacity="1" stop-color="rgb(100%, 42.950439%, 26.141357%)" offset="0.632813"/><stop stop-opacity="1" stop-color="rgb(100%, 43.254089%, 26.229858%)" offset="0.640625"/><stop stop-opacity="1" stop-color="rgb(100%, 43.557739%, 26.319885%)" offset="0.648438"/><stop stop-opacity="1" stop-color="rgb(100%, 43.861389%, 26.408386%)" offset="0.65625"/><stop stop-opacity="1" stop-color="rgb(100%, 44.165039%, 26.496887%)" offset="0.664062"/><stop stop-opacity="1" stop-color="rgb(100%, 44.468689%, 26.585388%)" offset="0.671875"/><stop stop-opacity="1" stop-color="rgb(100%, 44.772339%, 26.673889%)" offset="0.679688"/><stop stop-opacity="1" stop-color="rgb(100%, 45.075989%, 26.76239%)" offset="0.6875"/><stop stop-opacity="1" stop-color="rgb(100%, 45.379639%, 26.850891%)" offset="0.695312"/><stop stop-opacity="1" stop-color="rgb(100%, 45.683289%, 26.939392%)" offset="0.703125"/><stop stop-opacity="1" stop-color="rgb(100%, 45.986938%, 27.027893%)" offset="0.710938"/><stop stop-opacity="1" stop-color="rgb(100%, 46.290588%, 27.116394%)" offset="0.71875"/><stop stop-opacity="1" stop-color="rgb(100%, 46.594238%, 27.204895%)" offset="0.726563"/><stop stop-opacity="1" stop-color="rgb(100%, 46.897888%, 27.293396%)" offset="0.734375"/><stop stop-opacity="1" stop-color="rgb(100%, 47.200012%, 27.381897%)" offset="0.742188"/><stop stop-opacity="1" stop-color="rgb(100%, 47.503662%, 27.470398%)" offset="0.75"/><stop stop-opacity="1" stop-color="rgb(100%, 47.807312%, 27.558899%)" offset="0.757812"/><stop stop-opacity="1" stop-color="rgb(100%, 48.110962%, 27.6474%)" offset="0.765625"/><stop stop-opacity="1" stop-color="rgb(100%, 48.414612%, 27.735901%)" offset="0.773438"/><stop stop-opacity="1" stop-color="rgb(100%, 48.718262%, 27.824402%)" offset="0.78125"/><stop stop-opacity="1" stop-color="rgb(100%, 49.021912%, 27.912903%)" offset="0.789062"/><stop stop-opacity="1" stop-color="rgb(100%, 49.325562%, 28.001404%)" offset="0.796875"/><stop stop-opacity="1" stop-color="rgb(100%, 49.629211%, 28.089905%)" offset="0.804688"/><stop stop-opacity="1" stop-color="rgb(100%, 49.932861%, 28.178406%)" offset="0.8125"/><stop stop-opacity="1" stop-color="rgb(100%, 50.236511%, 28.266907%)" offset="0.820313"/><stop stop-opacity="1" stop-color="rgb(100%, 50.540161%, 28.355408%)" offset="0.828125"/><stop stop-opacity="1" stop-color="rgb(100%, 50.843811%, 28.445435%)" offset="0.835938"/><stop stop-opacity="1" stop-color="rgb(100%, 51.147461%, 28.533936%)" offset="0.84375"/><stop stop-opacity="1" stop-color="rgb(100%, 51.451111%, 28.622437%)" offset="0.851562"/><stop stop-opacity="1" stop-color="rgb(100%, 51.754761%, 28.710938%)" offset="0.859375"/><stop stop-opacity="1" stop-color="rgb(100%, 52.058411%, 28.799438%)" offset="0.867188"/><stop stop-opacity="1" stop-color="rgb(100%, 52.362061%, 28.887939%)" offset="0.875"/><stop stop-opacity="1" stop-color="rgb(100%, 52.66571%, 28.97644%)" offset="0.882812"/><stop stop-opacity="1" stop-color="rgb(100%, 52.96936%, 29.064941%)" offset="0.890625"/><stop stop-opacity="1" stop-color="rgb(100%, 53.27301%, 29.153442%)" offset="0.898438"/><stop stop-opacity="1" stop-color="rgb(100%, 53.57666%, 29.241943%)" offset="0.90625"/><stop stop-opacity="1" stop-color="rgb(100%, 53.88031%, 29.330444%)" offset="0.914063"/><stop stop-opacity="1" stop-color="rgb(100%, 54.18396%, 29.418945%)" offset="0.921875"/><stop stop-opacity="1" stop-color="rgb(100%, 54.48761%, 29.507446%)" offset="0.929688"/><stop stop-opacity="1" stop-color="rgb(100%, 54.79126%, 29.595947%)" offset="0.9375"/><stop stop-opacity="1" stop-color="rgb(100%, 55.09491%, 29.684448%)" offset="0.945312"/><stop stop-opacity="1" stop-color="rgb(100%, 55.39856%, 29.772949%)" offset="0.953125"/><stop stop-opacity="1" stop-color="rgb(100%, 55.702209%, 29.86145%)" offset="0.960938"/><stop stop-opacity="1" stop-color="rgb(100%, 56.005859%, 29.949951%)" offset="0.96875"/><stop stop-opacity="1" stop-color="rgb(100%, 56.309509%, 30.038452%)" offset="0.976562"/><stop stop-opacity="1" stop-color="rgb(100%, 56.611633%, 30.126953%)" offset="0.984375"/><stop stop-opacity="1" stop-color="rgb(100%, 56.811523%, 30.184937%)" offset="1"/></linearGradient><clipPath id="ebfcc30ed1"><rect x="0" width="300" y="0" height="64"/></clipPath><clipPath id="f7a9fc768f"><path d="M 0 0 L 300 0 L 300 63.53125 L 0 63.53125 Z M 0 0 " clip-rule="nonzero"/></clipPath><clipPath id="ddb9b83d83"><rect x="0" width="300" y="0" height="64"/></clipPath><clipPath id="e923265ceb"><rect x="0" width="300" y="0" height="64"/></clipPath><mask id="82a1c6926e"><g filter="url(#e622c3fb75)"><g transform="matrix(1, 0, 0, 1, 0, 0)"><g clip-path="url(#e923265ceb)"><g clip-path="url(#f7a9fc768f)"><g transform="matrix(1, 0, 0, 1, 0, 0)"><g clip-path="url(#ddb9b83d83)"><g fill="#000000" fill-opacity="1"><g transform="translate(5.420183, 19.723983)"><g><path d="M 14.546875 -14.546875 L 14.546875 0 L 10.390625 0 L 10.390625 -4.15625 L 8.296875 -4.15625 L 8.296875 -6.21875 L 6.21875 -6.21875 L 6.21875 -8.296875 L 4.15625 -8.296875 L 4.15625 0 L 0 0 L 0 -14.546875 L 4.15625 -14.546875 L 4.15625 -12.46875 L 6.21875 -12.46875 L 6.21875 -10.390625 L 8.296875 -10.390625 L 8.296875 -8.296875 L 10.390625 -8.296875 L 10.390625 -14.546875 Z M 14.546875 -14.546875 "/></g></g></g><g fill="#000000" fill-opacity="1"><g transform="translate(23.479144, 19.723983)"><g><path d="M 2.078125 -10.390625 L 2.078125 -12.46875 L 4.15625 -12.46875 L 4.15625 -14.546875 L 12.46875 -14.546875 L 12.46875 -12.46875 L 14.546875 -12.46875 L 14.546875 -10.390625 L 16.609375 -10.390625 L 16.609375 -4.15625 L 14.546875 -4.15625 L 14.546875 -2.078125 L 12.46875 -2.078125 L 12.46875 0 L 4.15625 0 L 4.15625 -2.078125 L 2.078125 -2.078125 L 2.078125 -4.15625 L 0 -4.15625 L 0 -10.390625 Z M 10.390625 -10.390625 L 10.390625 -12.46875 L 6.21875 -12.46875 L 6.21875 -10.40625 L 4.15625 -10.40625 L 4.15625 -4.140625 L 6.21875 -4.140625 L 6.21875 -2.078125 L 10.390625 -2.078125 L 10.390625 -4.15625 L 12.46875 -4.15625 L 12.46875 -10.390625 Z M 10.390625 -10.390625 "/></g></g></g><g fill="#000000" fill-opacity="1"><g transform="translate(43.616341, 19.723983)"><g/></g></g><g fill="#000000" fill-opacity="1"><g transform="translate(51.294258, 19.723983)"><g><path d="M 10.390625 -8.296875 L 10.390625 -14.546875 L 16.609375 -14.546875 L 16.609375 0 L 12.453125 0 L 12.453125 -6.21875 L 10.390625 -6.21875 L 10.390625 0 L 6.21875 0 L 6.21875 -6.21875 L 4.15625 -6.21875 L 4.15625 0 L 0 0 L 0 -14.546875 L 6.21875 -14.546875 L 6.21875 -8.296875 Z M 10.390625 -8.296875 "/></g></g></g><g fill="#000000" fill-opacity="1"><g transform="translate(71.431456, 19.723983)"><g><path d="M 6.21875 -6.21875 L 8.296875 -6.21875 L 8.296875 -10.390625 L 6.21875 -10.390625 Z M 4.15625 -14.546875 L 10.390625 -14.546875 L 10.390625 -10.390625 L 12.46875 -10.390625 L 12.46875 -4.15625 L 14.546875 -4.15625 L 14.546875 0 L 10.390625 0 L 10.390625 -4.15625 L 4.15625 -4.15625 L 4.15625 0 L 0 0 L 0 -4.15625 L 2.078125 -4.15625 L 2.078125 -10.390625 L 4.15625 -10.390625 Z M 4.15625 -14.546875 "/></g></g></g><g fill="#000000" fill-opacity="1"><g transform="translate(89.490417, 19.723983)"><g><path d="M 0 -14.546875 L 12.46875 -14.546875 L 12.46875 -12.46875 L 8.3125 -12.46875 L 8.3125 0 L 4.15625 0 L 4.15625 -12.46875 L 0 -12.46875 Z M 0 -14.546875 "/></g></g></g><g fill="#000000" fill-opacity="1"><g transform="translate(105.481279, 19.723983)"><g><path d="M 6.21875 -12.46875 L 6.21875 -10.40625 L 4.15625 -10.40625 L 4.15625 -4.140625 L 6.21875 -4.140625 L 6.21875 -2.078125 L 10.390625 -2.078125 L 10.390625 -4.15625 L 14.546875 -4.15625 L 14.546875 -2.078125 L 12.46875 -2.078125 L 12.46875 0 L 4.15625 0 L 4.15625 -2.078125 L 2.078125 -2.078125 L 2.078125 -4.15625 L 0 -4.15625 L 0 -10.390625 L 2.078125 -10.390625 L 2.078125 -12.46875 L 4.15625 -12.46875 L 4.15625 -14.546875 L 12.46875 -14.546875 L 12.46875 -12.46875 L 14.546875 -12.46875 L 14.546875 -10.390625 L 10.390625 -10.390625 L 10.390625 -12.46875 Z M 6.21875 -12.46875 "/></g></g></g><g fill="#000000" fill-opacity="1"><g transform="translate(123.54024, 19.723983)"><g><path d="M 0 -14.546875 L 4.15625 -14.546875 L 4.15625 -8.296875 L 10.390625 -8.296875 L 10.390625 -14.546875 L 14.546875 -14.546875 L 14.546875 0 L 10.390625 0 L 10.390625 -6.21875 L 4.15625 -6.21875 L 4.15625 0 L 0 0 Z M 0 -14.546875 "/></g></g></g><g fill="#000000" fill-opacity="1"><g transform="translate(141.599201, 19.723983)"><g><path d="M 0 -14.546875 L 4.15625 -14.546875 L 4.15625 0 L 0 0 Z M 0 -14.546875 "/></g></g></g><g fill="#000000" fill-opacity="1"><g transform="translate(149.277118, 19.723983)"><g><path d="M 14.546875 -14.546875 L 14.546875 0 L 10.390625 0 L 10.390625 -4.15625 L 8.296875 -4.15625 L 8.296875 -6.21875 L 6.21875 -6.21875 L 6.21875 -8.296875 L 4.15625 -8.296875 L 4.15625 0 L 0 0 L 0 -14.546875 L 4.15625 -14.546875 L 4.15625 -12.46875 L 6.21875 -12.46875 L 6.21875 -10.390625 L 8.296875 -10.390625 L 8.296875 -8.296875 L 10.390625 -8.296875 L 10.390625 -14.546875 Z M 14.546875 -14.546875 "/></g></g></g><g fill="#000000" fill-opacity="1"><g transform="translate(167.336079, 19.723983)"><g><path d="M 6.21875 -12.46875 L 6.21875 -10.40625 L 4.15625 -10.40625 L 4.15625 -4.140625 L 6.21875 -4.140625 L 6.21875 -2.078125 L 10.390625 -2.078125 L 10.390625 -6.21875 L 8.296875 -6.21875 L 8.296875 -8.296875 L 14.546875 -8.296875 L 14.546875 0 L 4.15625 0 L 4.15625 -2.078125 L 2.078125 -2.078125 L 2.078125 -4.15625 L 0 -4.15625 L 0 -10.390625 L 2.078125 -10.390625 L 2.078125 -12.46875 L 4.15625 -12.46875 L 4.15625 -14.546875 L 12.46875 -14.546875 L 12.46875 -12.46875 L 14.546875 -12.46875 L 14.546875 -10.390625 L 10.390625 -10.390625 L 10.390625 -12.46875 Z M 6.21875 -12.46875 "/></g></g></g><g fill="#000000" fill-opacity="1"><g transform="translate(185.395041, 19.723983)"><g/></g></g><g fill="#000000" fill-opacity="1"><g transform="translate(193.072958, 19.723983)"><g><path d="M 6.21875 -12.46875 L 6.21875 -10.40625 L 4.15625 -10.40625 L 4.15625 -4.140625 L 6.21875 -4.140625 L 6.21875 -2.078125 L 10.390625 -2.078125 L 10.390625 -4.15625 L 14.546875 -4.15625 L 14.546875 -2.078125 L 12.46875 -2.078125 L 12.46875 0 L 4.15625 0 L 4.15625 -2.078125 L 2.078125 -2.078125 L 2.078125 -4.15625 L 0 -4.15625 L 0 -10.390625 L 2.078125 -10.390625 L 2.078125 -12.46875 L 4.15625 -12.46875 L 4.15625 -14.546875 L 12.46875 -14.546875 L 12.46875 -12.46875 L 14.546875 -12.46875 L 14.546875 -10.390625 L 10.390625 -10.390625 L 10.390625 -12.46875 Z M 6.21875 -12.46875 "/></g></g></g><g fill="#000000" fill-opacity="1"><g transform="translate(211.131919, 19.723983)"><g><path d="M 2.078125 -10.390625 L 2.078125 -12.46875 L 4.15625 -12.46875 L 4.15625 -14.546875 L 12.46875 -14.546875 L 12.46875 -12.46875 L 14.546875 -12.46875 L 14.546875 -10.390625 L 16.609375 -10.390625 L 16.609375 -4.15625 L 14.546875 -4.15625 L 14.546875 -2.078125 L 12.46875 -2.078125 L 12.46875 0 L 4.15625 0 L 4.15625 -2.078125 L 2.078125 -2.078125 L 2.078125 -4.15625 L 0 -4.15625 L 0 -10.390625 Z M 10.390625 -10.390625 L 10.390625 -12.46875 L 6.21875 -12.46875 L 6.21875 -10.40625 L 4.15625 -10.40625 L 4.15625 -4.140625 L 6.21875 -4.140625 L 6.21875 -2.078125 L 10.390625 -2.078125 L 10.390625 -4.15625 L 12.46875 -4.15625 L 12.46875 -10.390625 Z M 10.390625 -10.390625 "/></g></g></g><g fill="#000000" fill-opacity="1"><g transform="translate(231.269116, 19.723983)"><g><path d="M 0 -14.546875 L 4.15625 -14.546875 L 4.15625 0 L 0 0 Z M 0 -14.546875 "/></g></g></g><g fill="#000000" fill-opacity="1"><g transform="translate(238.947033, 19.723983)"><g><path d="M 14.546875 -14.546875 L 14.546875 0 L 10.390625 0 L 10.390625 -4.15625 L 8.296875 -4.15625 L 8.296875 -6.21875 L 6.21875 -6.21875 L 6.21875 -8.296875 L 4.15625 -8.296875 L 4.15625 0 L 0 0 L 0 -14.546875 L 4.15625 -14.546875 L 4.15625 -12.46875 L 6.21875 -12.46875 L 6.21875 -10.390625 L 8.296875 -10.390625 L 8.296875 -8.296875 L 10.390625 -8.296875 L 10.390625 -14.546875 Z M 14.546875 -14.546875 "/></g></g></g><g fill="#000000" fill-opacity="1"><g transform="translate(257.005994, 19.723983)"><g><path d="M 2.078125 -2.078125 L 0 -2.078125 L 0 -4.15625 L 4.15625 -4.15625 L 4.15625 -2.078125 L 8.296875 -2.078125 L 8.296875 -6.21875 L 2.078125 -6.21875 L 2.078125 -8.296875 L 0 -8.296875 L 0 -12.46875 L 2.078125 -12.46875 L 2.078125 -14.546875 L 10.390625 -14.546875 L 10.390625 -12.46875 L 12.46875 -12.46875 L 12.46875 -10.390625 L 8.296875 -10.390625 L 8.296875 -12.46875 L 4.15625 -12.46875 L 4.15625 -8.296875 L 10.390625 -8.296875 L 10.390625 -6.21875 L 12.46875 -6.21875 L 12.46875 -2.078125 L 10.390625 -2.078125 L 10.390625 0 L 2.078125 0 Z M 2.078125 -2.078125 "/></g></g></g><g fill="#000000" fill-opacity="1"><g transform="translate(272.996857, 19.723983)"><g><path d="M 0 -2.078125 L 4.15625 -2.078125 L 4.15625 0 L 0 0 Z M 0 -14.546875 L 4.15625 -14.546875 L 4.15625 -4.15625 L 0 -4.15625 Z M 0 -14.546875 "/></g></g></g><g fill="#000000" fill-opacity="1"><g transform="translate(280.674774, 19.723983)"><g><path d="M 0 -2.078125 L 4.15625 -2.078125 L 4.15625 0 L 0 0 Z M 0 -14.546875 L 4.15625 -14.546875 L 4.15625 -4.15625 L 0 -4.15625 Z M 0 -14.546875 "/></g></g></g><g fill="#000000" fill-opacity="1"><g transform="translate(288.352691, 19.723983)"><g><path d="M 0 -2.078125 L 4.15625 -2.078125 L 4.15625 0 L 0 0 Z M 0 -14.546875 L 4.15625 -14.546875 L 4.15625 -4.15625 L 0 -4.15625 Z M 0 -14.546875 "/></g></g></g></g></g></g></g></g></g></mask><clipPath id="9892d97b77"><path d="M 0 0 L 300 0 L 300 63.53125 L 0 63.53125 Z M 0 0 " clip-rule="nonzero"/></clipPath><clipPath id="034d44d320"><rect x="0" width="300" y="0" height="64"/></clipPath><clipPath id="616670d3ad"><rect x="0" width="300" y="0" height="64"/></clipPath><clipPath id="647be43eb5"><rect x="0" width="300" y="0" height="64"/></clipPath></defs><g transform="matrix(1, 0, 0, 1, 0, 0)"><g clip-path="url(#647be43eb5)"><g fill="#000000" fill-opacity="1"><g transform="translate(5.420183, 19.723983)"><g><path d="M 15.914062 -14.539062 L 15.914062 1.375 L 9.003906 1.375 L 9.003906 -4.15625 L 10.382812 -4.15625 L 10.382812 -2.78125 L 6.925781 -2.78125 L 6.925781 -6.222656 L 8.304688 -6.222656 L 8.304688 -4.847656 L 4.847656 -4.847656 L 4.847656 -8.304688 L 6.222656 -8.304688 L 6.222656 -6.925781 L 4.15625 -6.925781 L 4.15625 -8.304688 L 5.53125 -8.304688 L 5.53125 1.375 L -1.375 1.375 L -1.375 -15.914062 L 5.53125 -15.914062 L 5.53125 -12.460938 L 4.15625 -12.460938 L 4.15625 -13.835938 L 7.601562 -13.835938 L 7.601562 -10.382812 L 6.222656 -10.382812 L 6.222656 -11.757812 L 9.679688 -11.757812 L 9.679688 -8.304688 L 8.304688 -8.304688 L 8.304688 -9.679688 L 10.382812 -9.679688 L 10.382812 -8.304688 L 9.003906 -8.304688 L 9.003906 -15.914062 L 15.914062 -15.914062 Z M 13.160156 -14.539062 L 14.539062 -14.539062 L 14.539062 -13.160156 L 10.382812 -13.160156 L 10.382812 -14.539062 L 11.757812 -14.539062 L 11.757812 -6.925781 L 6.925781 -6.925781 L 6.925781 -10.382812 L 8.304688 -10.382812 L 8.304688 -9.003906 L 4.847656 -9.003906 L 4.847656 -12.460938 L 6.222656 -12.460938 L 6.222656 -11.082031 L 2.78125 -11.082031 L 2.78125 -14.539062 L 4.15625 -14.539062 L 4.15625 -13.160156 L 0 -13.160156 L 0 -14.539062 L 1.375 -14.539062 L 1.375 0 L 0 0 L 0 -1.375 L 4.15625 -1.375 L 4.15625 0 L 2.78125 0 L 2.78125 -9.679688 L 7.601562 -9.679688 L 7.601562 -6.222656 L 6.222656 -6.222656 L 6.222656 -7.601562 L 9.679688 -7.601562 L 9.679688 -4.15625 L 8.304688 -4.15625 L 8.304688 -5.53125 L 11.757812 -5.53125 L 11.757812 0 L 10.382812 0 L 10.382812 -1.375 L 14.539062 -1.375 L 14.539062 0 L 13.160156 0 Z M 13.160156 -14.539062 "/></g></g></g><g fill="#000000" fill-opacity="1"><g transform="translate(23.479144, 19.723983)"><g><path d="M 0.703125 -10.382812 L 0.703125 -13.835938 L 4.15625 -13.835938 L 4.15625 -12.460938 L 2.78125 -12.460938 L 2.78125 -15.914062 L 13.835938 -15.914062 L 13.835938 -12.460938 L 12.460938 -12.460938 L 12.460938 -13.835938 L 15.914062 -13.835938 L 15.914062 -10.382812 L 14.539062 -10.382812 L 14.539062 -11.757812 L 17.980469 -11.757812 L 17.980469 -2.78125 L 14.539062 -2.78125 L 14.539062 -4.15625 L 15.914062 -4.15625 L 15.914062 -0.703125 L 12.460938 -0.703125 L 12.460938 -2.078125 L 13.835938 -2.078125 L 13.835938 1.375 L 2.78125 1.375 L 2.78125 -2.078125 L 4.15625 -2.078125 L 4.15625 -0.703125 L 0.703125 -0.703125 L 0.703125 -4.15625 L 2.078125 -4.15625 L 2.078125 -2.78125 L -1.375 -2.78125 L -1.375 -11.757812 L 2.078125 -11.757812 L 2.078125 -10.382812 Z M 3.453125 -9.003906 L 0 -9.003906 L 0 -10.382812 L 1.375 -10.382812 L 1.375 -4.15625 L 0 -4.15625 L 0 -5.53125 L 3.453125 -5.53125 L 3.453125 -2.078125 L 2.078125 -2.078125 L 2.078125 -3.453125 L 5.53125 -3.453125 L 5.53125 0 L 4.15625 0 L 4.15625 -1.375 L 12.460938 -1.375 L 12.460938 0 L 11.082031 0 L 11.082031 -3.453125 L 14.539062 -3.453125 L 14.539062 -2.078125 L 13.160156 -2.078125 L 13.160156 -5.53125 L 16.605469 -5.53125 L 16.605469 -4.15625 L 15.230469 -4.15625 L 15.230469 -10.382812 L 16.605469 -10.382812 L 16.605469 -9.003906 L 13.160156 -9.003906 L 13.160156 -12.460938 L 14.539062 -12.460938 L 14.539062 -11.082031 L 11.082031 -11.082031 L 11.082031 -14.539062 L 12.460938 -14.539062 L 12.460938 -13.160156 L 4.15625 -13.160156 L 4.15625 -14.539062 L 5.53125 -14.539062 L 5.53125 -11.082031 L 2.078125 -11.082031 L 2.078125 -12.460938 L 3.453125 -12.460938 Z M 9.003906 -10.382812 L 9.003906 -12.460938 L 10.382812 -12.460938 L 10.382812 -11.082031 L 6.222656 -11.082031 L 6.222656 -12.460938 L 7.601562 -12.460938 L 7.601562 -9.027344 L 4.15625 -9.027344 L 4.15625 -10.402344 L 5.53125 -10.402344 L 5.53125 -4.136719 L 4.15625 -4.136719 L 4.15625 -5.511719 L 7.601562 -5.511719 L 7.601562 -2.078125 L 6.222656 -2.078125 L 6.222656 -3.453125 L 10.382812 -3.453125 L 10.382812 -2.078125 L 9.003906 -2.078125 L 9.003906 -5.53125 L 12.460938 -5.53125 L 12.460938 -4.15625 L 11.082031 -4.15625 L 11.082031 -10.382812 L 12.460938 -10.382812 L 12.460938 -9.003906 L 9.003906 -9.003906 Z M 11.757812 -10.382812 L 10.382812 -10.382812 L 10.382812 -11.757812 L 13.835938 -11.757812 L 13.835938 -2.78125 L 10.382812 -2.78125 L 10.382812 -4.15625 L 11.757812 -4.15625 L 11.757812 -0.703125 L 4.847656 -0.703125 L 4.847656 -4.136719 L 6.222656 -4.136719 L 6.222656 -2.761719 L 2.78125 -2.761719 L 2.78125 -11.777344 L 6.222656 -11.777344 L 6.222656 -10.402344 L 4.847656 -10.402344 L 4.847656 -13.835938 L 11.757812 -13.835938 Z M 11.757812 -10.382812 "/></g></g></g><g fill="#000000" fill-opacity="1"><g transform="translate(43.616341, 19.723983)"><g/></g></g><g fill="#000000" fill-opacity="1"><g transform="translate(51.294258, 19.723983)"><g><path d="M 9.003906 -8.304688 L 9.003906 -15.914062 L 17.980469 -15.914062 L 17.980469 1.375 L 11.074219 1.375 L 11.074219 -6.222656 L 12.449219 -6.222656 L 12.449219 -4.847656 L 10.382812 -4.847656 L 10.382812 -6.222656 L 11.757812 -6.222656 L 11.757812 1.375 L 4.847656 1.375 L 4.847656 -6.222656 L 6.222656 -6.222656 L 6.222656 -4.847656 L 4.15625 -4.847656 L 4.15625 -6.222656 L 5.53125 -6.222656 L 5.53125 1.375 L -1.375 1.375 L -1.375 -15.914062 L 7.601562 -15.914062 L 7.601562 -8.304688 L 6.222656 -8.304688 L 6.222656 -9.679688 L 10.382812 -9.679688 L 10.382812 -8.304688 Z M 11.757812 -6.925781 L 4.847656 -6.925781 L 4.847656 -14.539062 L 6.222656 -14.539062 L 6.222656 -13.160156 L 0 -13.160156 L 0 -14.539062 L 1.375 -14.539062 L 1.375 0 L 0 0 L 0 -1.375 L 4.15625 -1.375 L 4.15625 0 L 2.78125 0 L 2.78125 -7.601562 L 7.601562 -7.601562 L 7.601562 0 L 6.222656 0 L 6.222656 -1.375 L 10.382812 -1.375 L 10.382812 0 L 9.003906 0 L 9.003906 -7.601562 L 13.824219 -7.601562 L 13.824219 0 L 12.449219 0 L 12.449219 -1.375 L 16.605469 -1.375 L 16.605469 0 L 15.230469 0 L 15.230469 -14.539062 L 16.605469 -14.539062 L 16.605469 -13.160156 L 10.382812 -13.160156 L 10.382812 -14.539062 L 11.757812 -14.539062 Z M 11.757812 -6.925781 "/></g></g></g><g fill="#000000" fill-opacity="1"><g transform="translate(71.431456, 19.723983)"><g><path d="M 6.222656 -7.601562 L 8.304688 -7.601562 L 8.304688 -6.222656 L 6.925781 -6.222656 L 6.925781 -10.382812 L 8.304688 -10.382812 L 8.304688 -9.003906 L 6.222656 -9.003906 L 6.222656 -10.382812 L 7.601562 -10.382812 L 7.601562 -6.222656 L 6.222656 -6.222656 Z M 4.847656 -4.847656 L 4.847656 -11.757812 L 9.679688 -11.757812 L 9.679688 -4.847656 Z M 4.15625 -15.914062 L 11.757812 -15.914062 L 11.757812 -10.382812 L 10.382812 -10.382812 L 10.382812 -11.757812 L 13.835938 -11.757812 L 13.835938 -4.15625 L 12.460938 -4.15625 L 12.460938 -5.53125 L 15.914062 -5.53125 L 15.914062 1.375 L 9.003906 1.375 L 9.003906 -4.15625 L 10.382812 -4.15625 L 10.382812 -2.78125 L 4.15625 -2.78125 L 4.15625 -4.15625 L 5.53125 -4.15625 L 5.53125 1.375 L -1.375 1.375 L -1.375 -5.53125 L 2.078125 -5.53125 L 2.078125 -4.15625 L 0.703125 -4.15625 L 0.703125 -11.757812 L 4.15625 -11.757812 L 4.15625 -10.382812 L 2.78125 -10.382812 L 2.78125 -15.914062 Z M 4.15625 -13.160156 L 4.15625 -14.539062 L 5.53125 -14.539062 L 5.53125 -9.003906 L 2.078125 -9.003906 L 2.078125 -10.382812 L 3.453125 -10.382812 L 3.453125 -2.78125 L 0 -2.78125 L 0 -4.15625 L 1.375 -4.15625 L 1.375 0 L 0 0 L 0 -1.375 L 4.15625 -1.375 L 4.15625 0 L 2.78125 0 L 2.78125 -5.53125 L 11.757812 -5.53125 L 11.757812 0 L 10.382812 0 L 10.382812 -1.375 L 14.539062 -1.375 L 14.539062 0 L 13.160156 0 L 13.160156 -4.15625 L 14.539062 -4.15625 L 14.539062 -2.78125 L 11.082031 -2.78125 L 11.082031 -10.382812 L 12.460938 -10.382812 L 12.460938 -9.003906 L 9.003906 -9.003906 L 9.003906 -14.539062 L 10.382812 -14.539062 L 10.382812 -13.160156 Z M 4.15625 -13.160156 "/></g></g></g><g fill="#000000" fill-opacity="1"><g transform="translate(89.490417, 19.723983)"><g><path d="M 0 -15.914062 L 13.835938 -15.914062 L 13.835938 -11.082031 L 8.3125 -11.082031 L 8.3125 -12.460938 L 9.6875 -12.460938 L 9.6875 1.375 L 2.78125 1.375 L 2.78125 -12.460938 L 4.15625 -12.460938 L 4.15625 -11.082031 L -1.375 -11.082031 L -1.375 -15.914062 Z M 0 -13.160156 L 0 -14.539062 L 1.375 -14.539062 L 1.375 -12.460938 L 0 -12.460938 L 0 -13.835938 L 5.53125 -13.835938 L 5.53125 0 L 4.15625 0 L 4.15625 -1.375 L 8.3125 -1.375 L 8.3125 0 L 6.9375 0 L 6.9375 -13.835938 L 12.460938 -13.835938 L 12.460938 -12.460938 L 11.082031 -12.460938 L 11.082031 -14.539062 L 12.460938 -14.539062 L 12.460938 -13.160156 Z M 0 -13.160156 "/></g></g></g><g fill="#000000" fill-opacity="1"><g transform="translate(105.481279, 19.723983)"><g><path d="M 7.601562 -12.460938 L 7.601562 -9.027344 L 4.15625 -9.027344 L 4.15625 -10.402344 L 5.53125 -10.402344 L 5.53125 -4.136719 L 4.15625 -4.136719 L 4.15625 -5.511719 L 7.601562 -5.511719 L 7.601562 -2.078125 L 6.222656 -2.078125 L 6.222656 -3.453125 L 10.382812 -3.453125 L 10.382812 -2.078125 L 9.003906 -2.078125 L 9.003906 -5.53125 L 15.914062 -5.53125 L 15.914062 -0.703125 L 12.460938 -0.703125 L 12.460938 -2.078125 L 13.835938 -2.078125 L 13.835938 1.375 L 2.78125 1.375 L 2.78125 -2.078125 L 4.15625 -2.078125 L 4.15625 -0.703125 L 0.703125 -0.703125 L 0.703125 -4.15625 L 2.078125 -4.15625 L 2.078125 -2.78125 L -1.375 -2.78125 L -1.375 -11.757812 L 2.078125 -11.757812 L 2.078125 -10.382812 L 0.703125 -10.382812 L 0.703125 -13.835938 L 4.15625 -13.835938 L 4.15625 -12.460938 L 2.78125 -12.460938 L 2.78125 -15.914062 L 13.835938 -15.914062 L 13.835938 -12.460938 L 12.460938 -12.460938 L 12.460938 -13.835938 L 15.914062 -13.835938 L 15.914062 -9.003906 L 9.003906 -9.003906 L 9.003906 -12.460938 L 10.382812 -12.460938 L 10.382812 -11.082031 L 6.222656 -11.082031 L 6.222656 -12.460938 Z M 4.847656 -13.835938 L 11.757812 -13.835938 L 11.757812 -10.382812 L 10.382812 -10.382812 L 10.382812 -11.757812 L 14.539062 -11.757812 L 14.539062 -10.382812 L 13.160156 -10.382812 L 13.160156 -12.460938 L 14.539062 -12.460938 L 14.539062 -11.082031 L 11.082031 -11.082031 L 11.082031 -14.539062 L 12.460938 -14.539062 L 12.460938 -13.160156 L 4.15625 -13.160156 L 4.15625 -14.539062 L 5.53125 -14.539062 L 5.53125 -11.082031 L 2.078125 -11.082031 L 2.078125 -12.460938 L 3.453125 -12.460938 L 3.453125 -9.003906 L 0 -9.003906 L 0 -10.382812 L 1.375 -10.382812 L 1.375 -4.15625 L 0 -4.15625 L 0 -5.53125 L 3.453125 -5.53125 L 3.453125 -2.078125 L 2.078125 -2.078125 L 2.078125 -3.453125 L 5.53125 -3.453125 L 5.53125 0 L 4.15625 0 L 4.15625 -1.375 L 12.460938 -1.375 L 12.460938 0 L 11.082031 0 L 11.082031 -3.453125 L 14.539062 -3.453125 L 14.539062 -2.078125 L 13.160156 -2.078125 L 13.160156 -4.15625 L 14.539062 -4.15625 L 14.539062 -2.78125 L 10.382812 -2.78125 L 10.382812 -4.15625 L 11.757812 -4.15625 L 11.757812 -0.703125 L 4.847656 -0.703125 L 4.847656 -4.136719 L 6.222656 -4.136719 L 6.222656 -2.761719 L 2.78125 -2.761719 L 2.78125 -11.777344 L 6.222656 -11.777344 L 6.222656 -10.402344 L 4.847656 -10.402344 Z M 4.847656 -13.835938 "/></g></g></g><g fill="#000000" fill-opacity="1"><g transform="translate(123.54024, 19.723983)"><g><path d="M 0 -15.914062 L 5.53125 -15.914062 L 5.53125 -8.304688 L 4.15625 -8.304688 L 4.15625 -9.679688 L 10.382812 -9.679688 L 10.382812 -8.304688 L 9.003906 -8.304688 L 9.003906 -15.914062 L 15.914062 -15.914062 L 15.914062 1.375 L 9.003906 1.375 L 9.003906 -6.222656 L 10.382812 -6.222656 L 10.382812 -4.847656 L 4.15625 -4.847656 L 4.15625 -6.222656 L 5.53125 -6.222656 L 5.53125 1.375 L -1.375 1.375 L -1.375 -15.914062 Z M 0 -13.160156 L 0 -14.539062 L 1.375 -14.539062 L 1.375 0 L 0 0 L 0 -1.375 L 4.15625 -1.375 L 4.15625 0 L 2.78125 0 L 2.78125 -7.601562 L 11.757812 -7.601562 L 11.757812 0 L 10.382812 0 L 10.382812 -1.375 L 14.539062 -1.375 L 14.539062 0 L 13.160156 0 L 13.160156 -14.539062 L 14.539062 -14.539062 L 14.539062 -13.160156 L 10.382812 -13.160156 L 10.382812 -14.539062 L 11.757812 -14.539062 L 11.757812 -6.925781 L 2.78125 -6.925781 L 2.78125 -14.539062 L 4.15625 -14.539062 L 4.15625 -13.160156 Z M 0 -13.160156 "/></g></g></g><g fill="#000000" fill-opacity="1"><g transform="translate(141.599201, 19.723983)"><g><path d="M -1.375 -15.914062 L 5.53125 -15.914062 L 5.53125 1.375 L -1.375 1.375 Z M 1.375 -13.160156 L 1.375 -1.375 L 2.78125 -1.375 L 2.78125 -13.160156 Z M 1.375 -13.160156 "/></g></g></g><g fill="#000000" fill-opacity="1"><g transform="translate(149.277118, 19.723983)"><g><path d="M 15.914062 -14.539062 L 15.914062 1.375 L 9.003906 1.375 L 9.003906 -4.15625 L 10.382812 -4.15625 L 10.382812 -2.78125 L 6.925781 -2.78125 L 6.925781 -6.222656 L 8.304688 -6.222656 L 8.304688 -4.847656 L 4.847656 -4.847656 L 4.847656 -8.304688 L 6.222656 -8.304688 L 6.222656 -6.925781 L 4.15625 -6.925781 L 4.15625 -8.304688 L 5.53125 -8.304688 L 5.53125 1.375 L -1.375 1.375 L -1.375 -15.914062 L 5.53125 -15.914062 L 5.53125 -12.460938 L 4.15625 -12.460938 L 4.15625 -13.835938 L 7.601562 -13.835938 L 7.601562 -10.382812 L 6.222656 -10.382812 L 6.222656 -11.757812 L 9.679688 -11.757812 L 9.679688 -8.304688 L 8.304688 -8.304688 L 8.304688 -9.679688 L 10.382812 -9.679688 L 10.382812 -8.304688 L 9.003906 -8.304688 L 9.003906 -15.914062 L 15.914062 -15.914062 Z M 13.160156 -14.539062 L 14.539062 -14.539062 L 14.539062 -13.160156 L 10.382812 -13.160156 L 10.382812 -14.539062 L 11.757812 -14.539062 L 11.757812 -6.925781 L 6.925781 -6.925781 L 6.925781 -10.382812 L 8.304688 -10.382812 L 8.304688 -9.003906 L 4.847656 -9.003906 L 4.847656 -12.460938 L 6.222656 -12.460938 L 6.222656 -11.082031 L 2.78125 -11.082031 L 2.78125 -14.539062 L 4.15625 -14.539062 L 4.15625 -13.160156 L 0 -13.160156 L 0 -14.539062 L 1.375 -14.539062 L 1.375 0 L 0 0 L 0 -1.375 L 4.15625 -1.375 L 4.15625 0 L 2.78125 0 L 2.78125 -9.679688 L 7.601562 -9.679688 L 7.601562 -6.222656 L 6.222656 -6.222656 L 6.222656 -7.601562 L 9.679688 -7.601562 L 9.679688 -4.15625 L 8.304688 -4.15625 L 8.304688 -5.53125 L 11.757812 -5.53125 L 11.757812 0 L 10.382812 0 L 10.382812 -1.375 L 14.539062 -1.375 L 14.539062 0 L 13.160156 0 Z M 13.160156 -14.539062 "/></g></g></g><g fill="#000000" fill-opacity="1"><g transform="translate(167.336079, 19.723983)"><g><path d="M 7.601562 -12.460938 L 7.601562 -9.027344 L 4.15625 -9.027344 L 4.15625 -10.402344 L 5.53125 -10.402344 L 5.53125 -4.136719 L 4.15625 -4.136719 L 4.15625 -5.511719 L 7.601562 -5.511719 L 7.601562 -2.078125 L 6.222656 -2.078125 L 6.222656 -3.453125 L 10.382812 -3.453125 L 10.382812 -2.078125 L 9.003906 -2.078125 L 9.003906 -6.222656 L 10.382812 -6.222656 L 10.382812 -4.847656 L 6.925781 -4.847656 L 6.925781 -9.679688 L 15.914062 -9.679688 L 15.914062 1.375 L 2.78125 1.375 L 2.78125 -2.078125 L 4.15625 -2.078125 L 4.15625 -0.703125 L 0.703125 -0.703125 L 0.703125 -4.15625 L 2.078125 -4.15625 L 2.078125 -2.78125 L -1.375 -2.78125 L -1.375 -11.757812 L 2.078125 -11.757812 L 2.078125 -10.382812 L 0.703125 -10.382812 L 0.703125 -13.835938 L 4.15625 -13.835938 L 4.15625 -12.460938 L 2.78125 -12.460938 L 2.78125 -15.914062 L 13.835938 -15.914062 L 13.835938 -12.460938 L 12.460938 -12.460938 L 12.460938 -13.835938 L 15.914062 -13.835938 L 15.914062 -9.003906 L 9.003906 -9.003906 L 9.003906 -12.460938 L 10.382812 -12.460938 L 10.382812 -11.082031 L 6.222656 -11.082031 L 6.222656 -12.460938 Z M 4.847656 -13.835938 L 11.757812 -13.835938 L 11.757812 -10.382812 L 10.382812 -10.382812 L 10.382812 -11.757812 L 14.539062 -11.757812 L 14.539062 -10.382812 L 13.160156 -10.382812 L 13.160156 -12.460938 L 14.539062 -12.460938 L 14.539062 -11.082031 L 11.082031 -11.082031 L 11.082031 -14.539062 L 12.460938 -14.539062 L 12.460938 -13.160156 L 4.15625 -13.160156 L 4.15625 -14.539062 L 5.53125 -14.539062 L 5.53125 -11.082031 L 2.078125 -11.082031 L 2.078125 -12.460938 L 3.453125 -12.460938 L 3.453125 -9.003906 L 0 -9.003906 L 0 -10.382812 L 1.375 -10.382812 L 1.375 -4.15625 L 0 -4.15625 L 0 -5.53125 L 3.453125 -5.53125 L 3.453125 -2.078125 L 2.078125 -2.078125 L 2.078125 -3.453125 L 5.53125 -3.453125 L 5.53125 0 L 4.15625 0 L 4.15625 -1.375 L 14.539062 -1.375 L 14.539062 0 L 13.160156 0 L 13.160156 -8.304688 L 14.539062 -8.304688 L 14.539062 -6.925781 L 8.304688 -6.925781 L 8.304688 -8.304688 L 9.679688 -8.304688 L 9.679688 -6.222656 L 8.304688 -6.222656 L 8.304688 -7.601562 L 11.757812 -7.601562 L 11.757812 -0.703125 L 4.847656 -0.703125 L 4.847656 -4.136719 L 6.222656 -4.136719 L 6.222656 -2.761719 L 2.78125 -2.761719 L 2.78125 -11.777344 L 6.222656 -11.777344 L 6.222656 -10.402344 L 4.847656 -10.402344 Z M 4.847656 -13.835938 "/></g></g></g><g fill="#000000" fill-opacity="1"><g transform="translate(185.395041, 19.723983)"><g/></g></g><g fill="#000000" fill-opacity="1"><g transform="translate(193.072958, 19.723983)"><g><path d="M 7.601562 -12.460938 L 7.601562 -9.027344 L 4.15625 -9.027344 L 4.15625 -10.402344 L 5.53125 -10.402344 L 5.53125 -4.136719 L 4.15625 -4.136719 L 4.15625 -5.511719 L 7.601562 -5.511719 L 7.601562 -2.078125 L 6.222656 -2.078125 L 6.222656 -3.453125 L 10.382812 -3.453125 L 10.382812 -2.078125 L 9.003906 -2.078125 L 9.003906 -5.53125 L 15.914062 -5.53125 L 15.914062 -0.703125 L 12.460938 -0.703125 L 12.460938 -2.078125 L 13.835938 -2.078125 L 13.835938 1.375 L 2.78125 1.375 L 2.78125 -2.078125 L 4.15625 -2.078125 L 4.15625 -0.703125 L 0.703125 -0.703125 L 0.703125 -4.15625 L 2.078125 -4.15625 L 2.078125 -2.78125 L -1.375 -2.78125 L -1.375 -11.757812 L 2.078125 -11.757812 L 2.078125 -10.382812 L 0.703125 -10.382812 L 0.703125 -13.835938 L 4.15625 -13.835938 L 4.15625 -12.460938 L 2.78125 -12.460938 L 2.78125 -15.914062 L 13.835938 -15.914062 L 13.835938 -12.460938 L 12.460938 -12.460938 L 12.460938 -13.835938 L 15.914062 -13.835938 L 15.914062 -9.003906 L 9.003906 -9.003906 L 9.003906 -12.460938 L 10.382812 -12.460938 L 10.382812 -11.082031 L 6.222656 -11.082031 L 6.222656 -12.460938 Z M 4.847656 -13.835938 L 11.757812 -13.835938 L 11.757812 -10.382812 L 10.382812 -10.382812 L 10.382812 -11.757812 L 14.539062 -11.757812 L 14.539062 -10.382812 L 13.160156 -10.382812 L 13.160156 -12.460938 L 14.539062 -12.460938 L 14.539062 -11.082031 L 11.082031 -11.082031 L 11.082031 -14.539062 L 12.460938 -14.539062 L 12.460938 -13.160156 L 4.15625 -13.160156 L 4.15625 -14.539062 L 5.53125 -14.539062 L 5.53125 -11.082031 L 2.078125 -11.082031 L 2.078125 -12.460938 L 3.453125 -12.460938 L 3.453125 -9.003906 L 0 -9.003906 L 0 -10.382812 L 1.375 -10.382812 L 1.375 -4.15625 L 0 -4.15625 L 0 -5.53125 L 3.453125 -5.53125 L 3.453125 -2.078125 L 2.078125 -2.078125 L 2.078125 -3.453125 L 5.53125 -3.453125 L 5.53125 0 L 4.15625 0 L 4.15625 -1.375 L 12.460938 -1.375 L 12.460938 0 L 11.082031 0 L 11.082031 -3.453125 L 14.539062 -3.453125 L 14.539062 -2.078125 L 13.160156 -2.078125 L 13.160156 -4.15625 L 14.539062 -4.15625 L 14.539062 -2.78125 L 10.382812 -2.78125 L 10.382812 -4.15625 L 11.757812 -4.15625 L 11.757812 -0.703125 L 4.847656 -0.703125 L 4.847656 -4.136719 L 6.222656 -4.136719 L 6.222656 -2.761719 L 2.78125 -2.761719 L 2.78125 -11.777344 L 6.222656 -11.777344 L 6.222656 -10.402344 L 4.847656 -10.402344 Z M 4.847656 -13.835938 "/></g></g></g><g fill="#000000" fill-opacity="1"><g transform="translate(211.131919, 19.723983)"><g><path d="M 0.703125 -10.382812 L 0.703125 -13.835938 L 4.15625 -13.835938 L 4.15625 -12.460938 L 2.78125 -12.460938 L 2.78125 -15.914062 L 13.835938 -15.914062 L 13.835938 -12.460938 L 12.460938 -12.460938 L 12.460938 -13.835938 L 15.914062 -13.835938 L 15.914062 -10.382812 L 14.539062 -10.382812 L 14.539062 -11.757812 L 17.980469 -11.757812 L 17.980469 -2.78125 L 14.539062 -2.78125 L 14.539062 -4.15625 L 15.914062 -4.15625 L 15.914062 -0.703125 L 12.460938 -0.703125 L 12.460938 -2.078125 L 13.835938 -2.078125 L 13.835938 1.375 L 2.78125 1.375 L 2.78125 -2.078125 L 4.15625 -2.078125 L 4.15625 -0.703125 L 0.703125 -0.703125 L 0.703125 -4.15625 L 2.078125 -4.15625 L 2.078125 -2.78125 L -1.375 -2.78125 L -1.375 -11.757812 L 2.078125 -11.757812 L 2.078125 -10.382812 Z M 3.453125 -9.003906 L 0 -9.003906 L 0 -10.382812 L 1.375 -10.382812 L 1.375 -4.15625 L 0 -4.15625 L 0 -5.53125 L 3.453125 -5.53125 L 3.453125 -2.078125 L 2.078125 -2.078125 L 2.078125 -3.453125 L 5.53125 -3.453125 L 5.53125 0 L 4.15625 0 L 4.15625 -1.375 L 12.460938 -1.375 L 12.460938 0 L 11.082031 0 L 11.082031 -3.453125 L 14.539062 -3.453125 L 14.539062 -2.078125 L 13.160156 -2.078125 L 13.160156 -5.53125 L 16.605469 -5.53125 L 16.605469 -4.15625 L 15.230469 -4.15625 L 15.230469 -10.382812 L 16.605469 -10.382812 L 16.605469 -9.003906 L 13.160156 -9.003906 L 13.160156 -12.460938 L 14.539062 -12.460938 L 14.539062 -11.082031 L 11.082031 -11.082031 L 11.082031 -14.539062 L 12.460938 -14.539062 L 12.460938 -13.160156 L 4.15625 -13.160156 L 4.15625 -14.539062 L 5.53125 -14.539062 L 5.53125 -11.082031 L 2.078125 -11.082031 L 2.078125 -12.460938 L 3.453125 -12.460938 Z M 9.003906 -10.382812 L 9.003906 -12.460938 L 10.382812 -12.460938 L 10.382812 -11.082031 L 6.222656 -11.082031 L 6.222656 -12.460938 L 7.601562 -12.460938 L 7.601562 -9.027344 L 4.15625 -9.027344 L 4.15625 -10.402344 L 5.53125 -10.402344 L 5.53125 -4.136719 L 4.15625 -4.136719 L 4.15625 -5.511719 L 7.601562 -5.511719 L 7.601562 -2.078125 L 6.222656 -2.078125 L 6.222656 -3.453125 L 10.382812 -3.453125 L 10.382812 -2.078125 L 9.003906 -2.078125 L 9.003906 -5.53125 L 12.460938 -5.53125 L 12.460938 -4.15625 L 11.082031 -4.15625 L 11.082031 -10.382812 L 12.460938 -10.382812 L 12.460938 -9.003906 L 9.003906 -9.003906 Z M 11.757812 -10.382812 L 10.382812 -10.382812 L 10.382812 -11.757812 L 13.835938 -11.757812 L 13.835938 -2.78125 L 10.382812 -2.78125 L 10.382812 -4.15625 L 11.757812 -4.15625 L 11.757812 -0.703125 L 4.847656 -0.703125 L 4.847656 -4.136719 L 6.222656 -4.136719 L 6.222656 -2.761719 L 2.78125 -2.761719 L 2.78125 -11.777344 L 6.222656 -11.777344 L 6.222656 -10.402344 L 4.847656 -10.402344 L 4.847656 -13.835938 L 11.757812 -13.835938 Z M 11.757812 -10.382812 "/></g></g></g><g fill="#000000" fill-opacity="1"><g transform="translate(231.269116, 19.723983)"><g><path d="M -1.375 -15.914062 L 5.53125 -15.914062 L 5.53125 1.375 L -1.375 1.375 Z M 1.375 -13.160156 L 1.375 -1.375 L 2.78125 -1.375 L 2.78125 -13.160156 Z M 1.375 -13.160156 "/></g></g></g><g fill="#000000" fill-opacity="1"><g transform="translate(238.947033, 19.723983)"><g><path d="M 15.914062 -14.539062 L 15.914062 1.375 L 9.003906 1.375 L 9.003906 -4.15625 L 10.382812 -4.15625 L 10.382812 -2.78125 L 6.925781 -2.78125 L 6.925781 -6.222656 L 8.304688 -6.222656 L 8.304688 -4.847656 L 4.847656 -4.847656 L 4.847656 -8.304688 L 6.222656 -8.304688 L 6.222656 -6.925781 L 4.15625 -6.925781 L 4.15625 -8.304688 L 5.53125 -8.304688 L 5.53125 1.375 L -1.375 1.375 L -1.375 -15.914062 L 5.53125 -15.914062 L 5.53125 -12.460938 L 4.15625 -12.460938 L 4.15625 -13.835938 L 7.601562 -13.835938 L 7.601562 -10.382812 L 6.222656 -10.382812 L 6.222656 -11.757812 L 9.679688 -11.757812 L 9.679688 -8.304688 L 8.304688 -8.304688 L 8.304688 -9.679688 L 10.382812 -9.679688 L 10.382812 -8.304688 L 9.003906 -8.304688 L 9.003906 -15.914062 L 15.914062 -15.914062 Z M 13.160156 -14.539062 L 14.539062 -14.539062 L 14.539062 -13.160156 L 10.382812 -13.160156 L 10.382812 -14.539062 L 11.757812 -14.539062 L 11.757812 -6.925781 L 6.925781 -6.925781 L 6.925781 -10.382812 L 8.304688 -10.382812 L 8.304688 -9.003906 L 4.847656 -9.003906 L 4.847656 -12.460938 L 6.222656 -12.460938 L 6.222656 -11.082031 L 2.78125 -11.082031 L 2.78125 -14.539062 L 4.15625 -14.539062 L 4.15625 -13.160156 L 0 -13.160156 L 0 -14.539062 L 1.375 -14.539062 L 1.375 0 L 0 0 L 0 -1.375 L 4.15625 -1.375 L 4.15625 0 L 2.78125 0 L 2.78125 -9.679688 L 7.601562 -9.679688 L 7.601562 -6.222656 L 6.222656 -6.222656 L 6.222656 -7.601562 L 9.679688 -7.601562 L 9.679688 -4.15625 L 8.304688 -4.15625 L 8.304688 -5.53125 L 11.757812 -5.53125 L 11.757812 0 L 10.382812 0 L 10.382812 -1.375 L 14.539062 -1.375 L 14.539062 0 L 13.160156 0 Z M 13.160156 -14.539062 "/></g></g></g><g fill="#000000" fill-opacity="1"><g transform="translate(257.005994, 19.723983)"><g><path d="M 2.078125 -0.703125 L -1.375 -0.703125 L -1.375 -5.53125 L 5.53125 -5.53125 L 5.53125 -2.078125 L 4.15625 -2.078125 L 4.15625 -3.453125 L 8.304688 -3.453125 L 8.304688 -2.078125 L 6.925781 -2.078125 L 6.925781 -6.222656 L 8.304688 -6.222656 L 8.304688 -4.847656 L 0.703125 -4.847656 L 0.703125 -8.304688 L 2.078125 -8.304688 L 2.078125 -6.925781 L -1.375 -6.925781 L -1.375 -13.835938 L 2.078125 -13.835938 L 2.078125 -12.460938 L 0.703125 -12.460938 L 0.703125 -15.914062 L 11.757812 -15.914062 L 11.757812 -12.460938 L 10.382812 -12.460938 L 10.382812 -13.835938 L 13.835938 -13.835938 L 13.835938 -9.003906 L 6.925781 -9.003906 L 6.925781 -12.460938 L 8.304688 -12.460938 L 8.304688 -11.082031 L 4.15625 -11.082031 L 4.15625 -12.460938 L 5.53125 -12.460938 L 5.53125 -8.304688 L 4.15625 -8.304688 L 4.15625 -9.679688 L 11.757812 -9.679688 L 11.757812 -6.222656 L 10.382812 -6.222656 L 10.382812 -7.601562 L 13.835938 -7.601562 L 13.835938 -0.703125 L 10.382812 -0.703125 L 10.382812 -2.078125 L 11.757812 -2.078125 L 11.757812 1.375 L 0.703125 1.375 L 0.703125 -2.078125 L 2.078125 -2.078125 Z M 3.453125 -3.453125 L 3.453125 0 L 2.078125 0 L 2.078125 -1.375 L 10.382812 -1.375 L 10.382812 0 L 9.003906 0 L 9.003906 -3.453125 L 12.460938 -3.453125 L 12.460938 -2.078125 L 11.082031 -2.078125 L 11.082031 -6.222656 L 12.460938 -6.222656 L 12.460938 -4.847656 L 9.003906 -4.847656 L 9.003906 -8.304688 L 10.382812 -8.304688 L 10.382812 -6.925781 L 2.78125 -6.925781 L 2.78125 -13.835938 L 9.679688 -13.835938 L 9.679688 -10.382812 L 8.304688 -10.382812 L 8.304688 -11.757812 L 12.460938 -11.757812 L 12.460938 -10.382812 L 11.082031 -10.382812 L 11.082031 -12.460938 L 12.460938 -12.460938 L 12.460938 -11.082031 L 9.003906 -11.082031 L 9.003906 -14.539062 L 10.382812 -14.539062 L 10.382812 -13.160156 L 2.078125 -13.160156 L 2.078125 -14.539062 L 3.453125 -14.539062 L 3.453125 -11.082031 L 0 -11.082031 L 0 -12.460938 L 1.375 -12.460938 L 1.375 -8.304688 L 0 -8.304688 L 0 -9.679688 L 3.453125 -9.679688 L 3.453125 -6.222656 L 2.078125 -6.222656 L 2.078125 -7.601562 L 9.679688 -7.601562 L 9.679688 -0.703125 L 2.78125 -0.703125 L 2.78125 -4.15625 L 4.15625 -4.15625 L 4.15625 -2.78125 L 0 -2.78125 L 0 -4.15625 L 1.375 -4.15625 L 1.375 -2.078125 L 0 -2.078125 L 0 -3.453125 Z M 3.453125 -3.453125 "/></g></g></g><g fill="#000000" fill-opacity="1"><g transform="translate(272.996857, 19.723983)"><g><path d="M 0 -3.453125 L 5.53125 -3.453125 L 5.53125 1.375 L -1.375 1.375 L -1.375 -3.453125 Z M 0 -0.703125 L 0 -2.078125 L 1.375 -2.078125 L 1.375 0 L 0 0 L 0 -1.375 L 4.15625 -1.375 L 4.15625 0 L 2.78125 0 L 2.78125 -2.078125 L 4.15625 -2.078125 L 4.15625 -0.703125 Z M 0 -15.914062 L 5.53125 -15.914062 L 5.53125 -2.78125 L -1.375 -2.78125 L -1.375 -15.914062 Z M 0 -13.160156 L 0 -14.539062 L 1.375 -14.539062 L 1.375 -4.15625 L 0 -4.15625 L 0 -5.53125 L 4.15625 -5.53125 L 4.15625 -4.15625 L 2.78125 -4.15625 L 2.78125 -14.539062 L 4.15625 -14.539062 L 4.15625 -13.160156 Z M 0 -13.160156 "/></g></g></g><g fill="#000000" fill-opacity="1"><g transform="translate(280.674774, 19.723983)"><g><path d="M 0 -3.453125 L 5.53125 -3.453125 L 5.53125 1.375 L -1.375 1.375 L -1.375 -3.453125 Z M 0 -0.703125 L 0 -2.078125 L 1.375 -2.078125 L 1.375 0 L 0 0 L 0 -1.375 L 4.15625 -1.375 L 4.15625 0 L 2.78125 0 L 2.78125 -2.078125 L 4.15625 -2.078125 L 4.15625 -0.703125 Z M 0 -15.914062 L 5.53125 -15.914062 L 5.53125 -2.78125 L -1.375 -2.78125 L -1.375 -15.914062 Z M 0 -13.160156 L 0 -14.539062 L 1.375 -14.539062 L 1.375 -4.15625 L 0 -4.15625 L 0 -5.53125 L 4.15625 -5.53125 L 4.15625 -4.15625 L 2.78125 -4.15625 L 2.78125 -14.539062 L 4.15625 -14.539062 L 4.15625 -13.160156 Z M 0 -13.160156 "/></g></g></g><g fill="#000000" fill-opacity="1"><g transform="translate(288.352691, 19.723983)"><g><path d="M 0 -3.453125 L 5.53125 -3.453125 L 5.53125 1.375 L -1.375 1.375 L -1.375 -3.453125 Z M 0 -0.703125 L 0 -2.078125 L 1.375 -2.078125 L 1.375 0 L 0 0 L 0 -1.375 L 4.15625 -1.375 L 4.15625 0 L 2.78125 0 L 2.78125 -2.078125 L 4.15625 -2.078125 L 4.15625 -0.703125 Z M 0 -15.914062 L 5.53125 -15.914062 L 5.53125 -2.78125 L -1.375 -2.78125 L -1.375 -15.914062 Z M 0 -13.160156 L 0 -14.539062 L 1.375 -14.539062 L 1.375 -4.15625 L 0 -4.15625 L 0 -5.53125 L 4.15625 -5.53125 L 4.15625 -4.15625 L 2.78125 -4.15625 L 2.78125 -14.539062 L 4.15625 -14.539062 L 4.15625 -13.160156 Z M 0 -13.160156 "/></g></g></g><g clip-path="url(#49485d1094)"><g transform="matrix(1, 0, 0, 1, 0, 0)"><g clip-path="url(#616670d3ad)"><g clip-path="url(#abdae0dd72)"><g mask="url(#82a1c6926e)"><g transform="matrix(1, 0, 0, 1, 0, 0)"><g clip-path="url(#034d44d320)"><g clip-path="url(#9892d97b77)"><path fill="url(#550800f453)" d="M 0 0 L 0 63.53125 L 300 63.53125 L 300 0 Z M 0 0 " fill-rule="nonzero"/></g></g></g></g></g></g></g></g></g></g></svg>