<svg xmlns="http://www.w3.org/2000/svg" xmlns:xlink="http://www.w3.org/1999/xlink" width="400" zoomAndPan="magnify" viewBox="0 0 300 299.999988" height="400" preserveAspectRatio="xMidYMid meet" version="1.0"><path fill="#ff5757" d="M 187.613281 157.039062 L 202.40625 180.707031 C 203.265625 182.105469 204.792969 182.898438 206.371094 182.898438 C 206.808594 182.898438 207.246094 182.851562 207.671875 182.722656 C 209.6875 182.152344 211.066406 180.316406 211.066406 178.21875 L 211.066406 136.007812 L 201.6875 136.007812 L 201.6875 161.867188 L 186.898438 138.203125 C 185.792969 136.429688 183.632812 135.601562 181.632812 136.1875 C 179.617188 136.757812 178.234375 138.59375 178.234375 140.691406 L 178.234375 182.898438 L 187.613281 182.898438 L 187.613281 157.039062 " fill-opacity="1" fill-rule="nonzero"/><path fill="#ff5757" d="M 187.613281 121.933594 L 196.992188 121.933594 L 196.992188 84.402344 L 206.371094 84.402344 L 206.371094 75.027344 L 178.234375 75.027344 L 178.234375 84.402344 L 187.613281 84.402344 L 187.613281 121.933594 " fill-opacity="1" fill-rule="nonzero"/><path fill="#ff5757" d="M 290.808594 37.511719 L 262.65625 37.511719 L 262.65625 9.363281 L 290.808594 9.363281 Z M 290.808594 290.789062 L 9.378906 290.789062 L 9.378906 46.890625 L 290.808594 46.890625 Z M 9.378906 9.363281 L 253.277344 9.363281 L 253.277344 37.511719 L 9.378906 37.511719 Z M 295.503906 37.511719 L 300.183594 37.511719 L 300.183594 -0.015625 L 0 -0.015625 L 0 300.167969 L 300.183594 300.167969 L 300.183594 46.890625 L 295.503906 46.890625 L 295.503906 37.511719 " fill-opacity="1" fill-rule="nonzero"/><path fill="#ff5757" d="M 56.285156 28.117188 C 65.664062 28.117188 56.285156 28.117188 65.664062 28.117188 L 65.664062 18.742188 L 56.285156 18.742188 L 56.285156 28.117188 " fill-opacity="1" fill-rule="nonzero"/><path fill="#ff5757" d="M 18.757812 28.117188 C 28.132812 28.117188 18.757812 28.117188 28.132812 28.117188 L 28.132812 18.742188 L 18.757812 18.742188 L 18.757812 28.117188 " fill-opacity="1" fill-rule="nonzero"/><path fill="#ff5757" d="M 37.527344 28.117188 C 46.90625 28.117188 37.527344 28.117188 46.90625 28.117188 L 46.90625 18.742188 L 37.527344 18.742188 L 37.527344 28.117188 " fill-opacity="1" fill-rule="nonzero"/><path fill="#ff5757" d="M 242.84375 164.144531 C 242.84375 169.3125 238.617188 173.523438 233.449219 173.523438 L 228.765625 173.523438 L 228.765625 145.386719 L 233.449219 145.386719 C 238.617188 145.386719 242.84375 149.597656 242.84375 154.765625 Z M 233.449219 136.007812 L 219.390625 136.007812 L 219.390625 182.898438 L 233.449219 182.898438 C 243.800781 182.898438 252.222656 174.480469 252.222656 164.144531 L 252.222656 154.765625 C 252.222656 144.410156 243.800781 136.007812 233.449219 136.007812 " fill-opacity="1" fill-rule="nonzero"/><path fill="#ff5757" d="M 145.402344 91.441406 C 145.402344 87.574219 148.558594 84.402344 152.441406 84.402344 C 156.324219 84.402344 159.480469 87.574219 159.480469 91.441406 L 159.480469 105.515625 C 159.480469 109.402344 156.324219 112.554688 152.441406 112.554688 C 148.558594 112.554688 145.402344 109.402344 145.402344 105.515625 Z M 152.441406 121.933594 C 161.496094 121.933594 168.855469 114.570312 168.855469 105.515625 L 168.855469 91.441406 C 168.855469 82.390625 161.496094 75.027344 152.441406 75.027344 C 143.386719 75.027344 136.023438 82.390625 136.023438 91.441406 L 136.023438 105.515625 C 136.023438 114.570312 143.386719 121.933594 152.441406 121.933594 " fill-opacity="1" fill-rule="nonzero"/><path fill="#ff5757" d="M 64.609375 164.144531 L 83.363281 164.144531 L 83.363281 154.765625 L 64.609375 154.765625 L 64.609375 150.066406 C 64.609375 147.484375 66.703125 145.386719 69.289062 145.386719 L 88.046875 145.386719 L 88.046875 136.007812 L 69.289062 136.007812 C 61.535156 136.007812 55.230469 142.316406 55.230469 150.066406 L 55.230469 182.898438 L 64.609375 182.898438 L 64.609375 164.144531 " fill-opacity="1" fill-rule="nonzero"/><path fill="#ff5757" d="M 94.921875 239.753906 C 89.441406 245.25 80.503906 245.25 75.027344 239.753906 C 69.53125 234.277344 69.53125 225.339844 75.027344 219.859375 C 77.773438 217.113281 81.363281 215.75 84.972656 215.75 C 88.582031 215.75 92.171875 217.113281 94.921875 219.859375 C 100.414062 225.339844 100.414062 234.277344 94.921875 239.753906 Z M 101.550781 213.230469 C 92.417969 204.078125 77.527344 204.09375 68.394531 213.230469 C 59.242188 222.363281 59.242188 237.25 68.394531 246.386719 C 72.960938 250.96875 78.960938 253.261719 84.972656 253.261719 C 88.9375 253.261719 92.886719 252.238281 96.433594 250.253906 L 112.019531 265.839844 L 118.667969 259.210938 L 103.550781 244.09375 C 110.621094 234.910156 109.972656 221.648438 101.550781 213.230469 " fill-opacity="1" fill-rule="nonzero"/><path fill="#ff5757" d="M 224.589844 207.605469 L 112.019531 207.605469 L 112.019531 217 L 224.589844 217 C 232.359375 217 238.664062 223.304688 238.664062 231.058594 C 238.664062 238.828125 232.359375 245.136719 224.589844 245.136719 L 126.09375 245.136719 L 126.09375 254.511719 L 224.589844 254.511719 C 237.527344 254.511719 248.042969 243.996094 248.042969 231.058594 C 248.042969 218.136719 237.527344 207.605469 224.589844 207.605469 " fill-opacity="1" fill-rule="nonzero"/><path fill="#ff5757" d="M 152.441406 182.898438 C 161.496094 182.898438 168.855469 175.539062 168.855469 166.484375 L 168.855469 136.007812 L 159.480469 136.007812 L 159.480469 166.484375 C 159.480469 170.367188 156.324219 173.523438 152.441406 173.523438 C 148.558594 173.523438 145.402344 170.367188 145.402344 166.484375 L 145.402344 136.007812 L 136.023438 136.007812 L 136.023438 166.484375 C 136.023438 175.539062 143.386719 182.898438 152.441406 182.898438 " fill-opacity="1" fill-rule="nonzero"/><path fill="#ff5757" d="M 103.191406 152.425781 C 103.191406 148.539062 106.347656 145.386719 110.230469 145.386719 C 114.097656 145.386719 117.253906 148.539062 117.253906 152.425781 L 117.253906 166.484375 C 117.253906 170.367188 114.097656 173.523438 110.230469 173.523438 C 106.347656 173.523438 103.191406 170.367188 103.191406 166.484375 Z M 110.230469 182.898438 C 119.269531 182.898438 126.648438 175.539062 126.648438 166.484375 L 126.648438 152.425781 C 126.648438 143.371094 119.269531 136.007812 110.230469 136.007812 C 101.179688 136.007812 93.796875 143.371094 93.796875 152.425781 L 93.796875 166.484375 C 93.796875 175.539062 101.179688 182.898438 110.230469 182.898438 " fill-opacity="1" fill-rule="nonzero"/><path fill="#ff5757" d="M 103.191406 96.074219 L 117.96875 119.722656 C 118.84375 121.121094 120.355469 121.933594 121.949219 121.933594 C 122.371094 121.933594 122.8125 121.867188 123.25 121.753906 C 125.25 121.167969 126.648438 119.332031 126.648438 117.234375 L 126.648438 75.027344 L 117.253906 75.027344 L 117.253906 100.886719 L 102.476562 77.238281 C 101.371094 75.464844 99.210938 74.636719 97.195312 75.203125 C 95.195312 75.789062 93.796875 77.625 93.796875 79.722656 L 93.796875 121.933594 L 103.191406 121.933594 L 103.191406 96.074219 " fill-opacity="1" fill-rule="nonzero"/></svg>